# Blender 4.4.1
# www.blender.org
mtllib dog.mtl
o Dog_Blob
v 0.595081 1.531854 -0.334025
v 0.260953 1.491803 -0.648934
v 0.794243 0.525564 -0.321345
v 0.340530 0.495248 -0.756589
v 0.304221 0.192813 -0.682321
v 0.730487 1.326048 0.159348
v 0.252731 1.579772 0.470668
v 0.252731 1.579772 0.470668
v 0.338144 0.564160 0.774731
v 0.710397 0.242834 0.249746
v 0.703463 0.217191 -0.291487
v 0.304229 0.272121 0.715879
v 0.730181 1.289736 -0.342859
v 0.256805 1.303766 0.601347
v 0.256805 1.303766 0.601347
v 0.328732 0.055612 -0.311812
v 0.331595 0.077749 0.291234
v 0.263921 1.707493 -0.361295
v 0.192744 1.769052 0.076268
v 0.192744 1.769052 0.076268
v 0.800369 0.553322 0.264482
v 0.317737 1.224141 -0.715948
v 0.355038 0.888299 -0.759932
v 0.300177 0.943620 0.738869
v 0.300177 0.943620 0.738869
v 0.817892 0.940323 -0.337516
v 0.820690 0.971330 0.230892
v 0.663167 1.428181 -0.341192
v 0.288481 1.371692 -0.687439
v 0.320660 0.311125 -0.724982
v 0.756494 0.364726 0.259015
v 0.749157 0.337750 -0.307489
v 0.320071 0.394137 0.752787
v 0.348351 0.031536 0.008560
v 0.278465 1.772300 -0.112248
v 0.302986 0.116191 -0.564779
v 0.248318 1.598959 -0.555297
v 0.592093 0.157593 0.254875
v 0.586781 0.133232 -0.287744
v 0.432739 1.637566 -0.341245
v 0.302992 0.176417 0.599602
v 0.302992 0.176417 0.599602
v 0.474884 1.488160 -0.529553
v 0.648271 0.909933 -0.596149
v 0.624224 0.515498 -0.589085
v 0.556141 0.227481 -0.536854
v 0.629706 1.575786 -0.099644
v 0.870376 0.965732 -0.031105
v 0.750975 0.208180 0.001858
v 0.850238 0.535619 -0.004561
v 0.618172 0.269352 0.424645
v 0.618172 0.269352 0.424645
v 0.241178 1.674330 0.359271
v 0.241178 1.674330 0.359271
v 0.712500 0.966996 0.417069
v 0.648033 1.459950 0.098154
v 0.256487 1.459935 0.519554
v 0.256487 1.459935 0.519554
v 0.515029 1.566458 0.243207
v 0.692909 0.564090 0.455235
v 0.328421 0.755387 0.775018
v 0.328421 0.755387 0.775018
v 0.579751 1.248584 -0.571106
v 0.775649 1.323666 -0.072464
v 0.633721 1.319132 0.324180
v 0.271707 1.139067 0.658946
v 0.271707 1.139067 0.658946
v 0.526390 1.385974 -0.553591
v 0.588114 0.338064 -0.566265
v 0.704272 1.465981 -0.088874
v 0.802928 0.338201 -0.000651
v 0.659010 0.416757 0.442946
v 0.659010 0.416757 0.442946
v 0.623182 0.116754 0.005200
v 0.438976 1.700548 -0.108340
v 0.494136 0.160163 -0.474669
v 0.409410 1.565863 -0.482075
v 0.715964 0.795479 0.446629
v 0.573850 1.460699 0.280956
v 0.387105 1.651260 0.240879
v 0.675353 1.176298 0.365172
v 0.828259 1.145652 -0.051838
v 0.779270 1.119743 -0.340386
v 0.618645 1.085959 -0.584009
v 0.339123 1.062489 -0.738420
v 0.781037 1.162740 0.193040
v 0.870481 0.765901 -0.016426
v 0.815699 0.742805 -0.330928
v 0.352081 0.698117 -0.763749
v 0.643927 0.718162 -0.596490
v 0.821897 0.768153 0.254596
v 0.592958 1.573552 0.045052
v 0.411064 1.687622 0.064869
v 0.488340 0.563917 0.639398
v 0.488340 0.563917 0.639398
v 0.312440 0.252087 -0.703572
v 0.733445 0.303476 0.254357
v 0.726310 0.277437 -0.299374
v 0.312150 0.333139 0.734381
v 0.572128 0.282830 -0.551423
v 0.776951 0.273009 0.000659
v 0.655351 0.335611 0.402019
v 0.655351 0.335611 0.402019
v -0.594809 1.532955 -0.334074
v -0.260734 1.492278 -0.648955
v -0.794243 0.525564 -0.321345
v -0.340530 0.495248 -0.756589
v -0.304221 0.192813 -0.682321
v -0.730569 1.326785 0.159316
v -0.252391 1.580312 0.470644
v -0.252391 1.580312 0.470644
v -0.338144 0.564160 0.774731
v -0.710397 0.242834 0.249746
v -0.703463 0.217191 -0.291487
v -0.304229 0.272121 0.715879
v -0.730268 1.290408 -0.342889
v -0.256913 1.303992 0.601337
v -0.256913 1.303992 0.601337
v -0.328732 0.055612 -0.311812
v -0.331595 0.077685 0.291201
v -0.262275 1.708830 -0.361353
v -0.188405 1.771308 0.076168
v -0.188405 1.771308 0.076168
v -0.800369 0.553322 0.264482
v -0.317861 1.224413 -0.715960
v -0.355038 0.888299 -0.759932
v -0.300177 0.943620 0.738869
v -0.300177 0.943620 0.738869
v -0.817892 0.940323 -0.337516
v -0.820690 0.971330 0.230892
v -0.663109 1.429071 -0.341231
v -0.288478 1.372061 -0.687455
v -0.320660 0.311125 -0.724982
v -0.756494 0.364726 0.259015
v -0.749157 0.337750 -0.307489
v -0.320071 0.394137 0.752787
v 0.000000 0.017293 -0.333544
v -0.348351 0.031536 0.008560
v 0.000000 0.045783 0.362410
v 0.001741 1.752842 -0.379917
v -0.274691 1.775059 -0.112369
v -0.302986 0.116191 -0.564779
v -0.247702 1.599642 -0.555327
v -0.592093 0.157593 0.254875
v -0.586781 0.133232 -0.287744
v -0.431950 1.638914 -0.341304
v -0.302992 0.176417 0.599602
v -0.302992 0.176417 0.599602
v 0.000146 1.505612 -0.689595
v -0.000000 0.879650 -0.818096
v -0.474697 1.488960 -0.529588
v -0.648271 0.909933 -0.596149
v 0.000000 0.164379 -0.730285
v 0.000000 0.482612 -0.815467
v -0.624224 0.515498 -0.589085
v -0.556141 0.227481 -0.536854
v -0.629300 1.577203 -0.099706
v -0.870381 0.965742 -0.031106
v -0.750975 0.208180 0.001858
v -0.850238 0.535618 -0.004561
v -0.618172 0.269352 0.424645
v -0.618172 0.269352 0.424645
v 0.000185 1.596269 0.519496
v -0.000000 0.932947 0.801631
v 0.000000 0.248535 0.782298
v -0.000000 0.554002 0.849555
v -0.240275 1.675170 0.359234
v -0.240275 1.675170 0.359234
v -0.712500 0.966996 0.417069
v -0.647945 1.460971 0.098110
v -0.256434 1.460304 0.519538
v -0.256434 1.460304 0.519538
v 0.003289 1.814550 -0.014698
v 0.003289 1.814550 -0.014698
v -0.514682 1.567603 0.243157
v -0.692909 0.564090 0.455235
v -0.328421 0.755387 0.775018
v -0.328421 0.755387 0.775018
v -0.000067 1.216165 -0.767461
v -0.579859 1.249080 -0.571127
v -0.775723 1.324446 -0.072498
v -0.000055 1.299406 0.664020
v -0.633814 1.319756 0.324153
v -0.271798 1.139152 0.658942
v -0.271798 1.139152 0.658942
v -0.526378 1.386621 -0.553619
v -0.588114 0.338064 -0.566265
v -0.704165 1.467058 -0.088921
v -0.802928 0.338201 -0.000651
v -0.659010 0.416757 0.442946
v -0.659010 0.416757 0.442946
v -0.623182 0.116754 0.005200
v -0.437541 1.702604 -0.108431
v -0.494136 0.160163 -0.474669
v -0.408980 1.566803 -0.482116
v -0.715964 0.795479 0.446629
v -0.573777 1.461564 0.280918
v -0.386283 1.652580 0.240821
v -0.675476 1.176642 0.365157
v -0.000000 0.744686 0.844744
v 0.000002 1.371643 -0.734731
v 0.000000 0.290666 -0.779930
v 0.000025 1.463481 0.590373
v -0.000000 0.381169 0.825367
v 0.000000 -0.009327 0.010518
v 0.003432 1.825403 -0.114646
v 0.000000 0.082007 -0.601213
v 0.000475 1.629040 -0.586562
v 0.000000 0.141253 0.652558
v 0.000000 0.141253 0.652558
v 0.000521 1.704555 0.395943
v -0.000037 1.130131 0.729404
v -0.828376 1.146036 -0.051855
v -0.779375 1.120050 -0.340399
v -0.618740 1.086160 -0.584018
v -0.339217 1.062592 -0.738424
v -0.000050 1.053419 -0.793365
v -0.781158 1.163125 0.193023
v -0.870481 0.765901 -0.016426
v -0.815699 0.742805 -0.330928
v -0.000000 0.689237 -0.822991
v -0.352081 0.698117 -0.763749
v -0.643927 0.718162 -0.596490
v -0.821897 0.768153 0.254596
v -0.592551 1.574956 0.044990
v -0.409734 1.689535 0.064785
v -0.488340 0.563917 0.639398
v -0.488340 0.563917 0.639398
v -0.312440 0.252087 -0.703572
v -0.733445 0.303476 0.254357
v -0.726310 0.277437 -0.299374
v -0.312150 0.333139 0.734381
v 0.000000 0.227654 -0.755041
v -0.572128 0.282830 -0.551423
v -0.776951 0.273009 0.000659
v -0.655351 0.335611 0.402019
v -0.655351 0.335611 0.402019
v 0.000000 0.314362 0.803691
v 0.765274 1.679679 0.109697
v 0.765274 1.679679 0.109697
v 0.330867 1.669425 0.214371
v 0.330867 1.669425 0.214371
v 0.977190 1.427792 -0.072311
v 0.977190 1.427792 -0.072311
v 0.747497 0.884900 -0.185657
v 0.747497 0.884900 -0.185657
v 0.645758 1.142631 -0.211285
v 0.756108 1.215887 0.157809
v 0.930976 1.101484 -0.115048
v 0.930976 1.101484 -0.115048
v 0.930976 1.101484 -0.115048
v 0.930976 1.101484 -0.115048
v 0.612939 1.447751 0.208347
v 0.612939 1.447751 0.208347
v 0.473751 1.439120 -0.124998
v 0.781823 1.226550 0.074201
v 0.781823 1.226550 0.074201
v 0.481311 1.731800 0.336573
v 0.481311 1.731800 0.336573
v 0.481311 1.731800 0.336573
v 0.613034 1.473195 0.234640
v 0.613034 1.473195 0.234640
v 0.746044 1.531826 0.537181
v 0.746044 1.531826 0.537181
v 0.826924 1.373038 0.474593
v 0.930564 1.221593 0.376080
v 1.061689 1.392461 0.247198
v 0.931569 1.547125 0.358954
v 1.022147 1.144800 0.259878
v 1.022147 1.144800 0.259878
v 0.898314 1.370287 0.662670
v 0.898314 1.370287 0.662670
v 1.002354 1.235736 0.711670
v 1.002354 1.235736 0.711670
v 1.034097 1.189352 0.681498
v 1.034097 1.189352 0.681498
v 1.066112 1.205372 0.672861
v 1.026249 1.252613 0.707254
v 1.046872 1.162046 0.513466
v 1.046872 1.162046 0.513466
v -0.760778 1.691899 0.109159
v -0.760778 1.691899 0.109159
v -0.326665 1.674691 0.214140
v -0.326665 1.674691 0.214140
v -0.976573 1.443438 -0.072999
v -0.976573 1.443438 -0.072999
v -0.755524 0.896936 -0.186187
v -0.755524 0.896936 -0.186187
v -0.649653 1.153005 -0.211741
v -0.759075 1.228020 0.157276
v -0.935561 1.116431 -0.115705
v -0.935561 1.116431 -0.115705
v -0.935561 1.116431 -0.115705
v -0.935561 1.116431 -0.115705
v -0.612247 1.457562 0.207916
v -0.612247 1.457562 0.207916
v -0.472980 1.446701 -0.125332
v -0.784557 1.239093 0.073649
v -0.784557 1.239093 0.073649
v -0.476178 1.739468 0.336236
v -0.476178 1.739468 0.336236
v -0.476178 1.739468 0.336236
v -0.611953 1.483004 0.234209
v -0.611953 1.483004 0.234209
v -0.744220 1.543760 0.536657
v -0.744220 1.543760 0.536657
v -0.827589 1.386287 0.474010
v -0.933571 1.236520 0.375424
v -1.061852 1.409466 0.246450
v -0.929350 1.562027 0.358299
v -1.026291 1.161204 0.259157
v -1.026291 1.161204 0.259157
v -0.899146 1.384681 0.662037
v -0.899146 1.384681 0.662037
v -1.005362 1.251814 0.710963
v -1.005362 1.251814 0.710963
v -1.037822 1.205944 0.680769
v -1.037822 1.205944 0.680769
v -1.069571 1.222474 0.672109
v -1.028980 1.269071 0.706530
v -1.050915 1.178845 0.512727
v -1.050915 1.178845 0.512727
v 0.075638 0.704214 0.867436
v 0.095793 0.787754 0.796314
v -0.181149 0.602726 0.785325
v 0.032876 0.489281 0.816598
v 0.086670 0.548938 0.795200
v 0.044621 0.563050 0.871514
v -0.075638 0.704214 0.867436
v -0.095793 0.787754 0.796314
v 0.207193 0.748838 0.773581
v -0.032877 0.489281 0.816598
v -0.086670 0.548938 0.795200
v -0.044621 0.563050 0.871514
v 0.238756 0.665363 0.779911
v -0.238756 0.665363 0.779911
v -0.195016 0.676196 0.820392
v 0.181149 0.602726 0.785325
v -0.207193 0.748838 0.773581
v 0.195016 0.676196 0.820392
v -0.193327 0.675368 0.738514
v -0.193327 0.675368 0.738514
v -0.193327 0.675368 0.738514
v -0.193327 0.675368 0.738514
v 0.193327 0.675368 0.738514
v 0.193327 0.675368 0.738514
v 0.193327 0.675368 0.738514
v 0.193327 0.675368 0.738514
v 0.036932 0.514960 0.857480
v 0.091432 0.766033 0.847312
v 0.030637 0.474807 0.762293
v -0.000000 0.713013 0.891188
v 0.094436 0.789425 0.729879
v -0.000000 0.796793 0.808139
v 0.171539 0.768986 0.778806
v 0.062763 0.507130 0.805487
v -0.000000 0.486346 0.822360
v 0.143301 0.688410 0.831924
v 0.147897 0.685787 0.738056
v 0.147897 0.685787 0.738056
v 0.120749 0.589279 0.787794
v 0.057128 0.627988 0.870800
v -0.000000 0.566281 0.888476
v 0.077444 0.556291 0.835473
v 0.084098 0.541288 0.752810
v -0.036932 0.514960 0.857480
v -0.091432 0.766033 0.847312
v -0.030637 0.474807 0.762293
v -0.094436 0.789425 0.729879
v -0.171539 0.768986 0.778806
v -0.062763 0.507130 0.805487
v -0.143301 0.688410 0.831924
v -0.147897 0.685787 0.738056
v -0.147897 0.685787 0.738056
v -0.120749 0.589279 0.787794
v -0.057128 0.627988 0.870800
v -0.077444 0.556291 0.835473
v -0.084098 0.541288 0.752810
v 0.222888 0.717550 0.775622
v 0.227821 0.668278 0.810501
v 0.227399 0.667657 0.749092
v 0.227399 0.667657 0.749092
v 0.227399 0.667657 0.749092
v 0.232332 0.618385 0.783972
v -0.222888 0.717550 0.775622
v -0.227821 0.668278 0.810501
v -0.227399 0.667657 0.749092
v -0.227399 0.667657 0.749092
v -0.227399 0.667657 0.749092
v -0.232332 0.618385 0.783972
v 0.204827 0.728842 0.805765
v 0.203048 0.732306 0.744333
v 0.203048 0.732306 0.744333
v 0.203048 0.732306 0.744333
v -0.184782 0.623342 0.814550
v -0.184027 0.618638 0.753165
v -0.184027 0.618638 0.753165
v -0.184027 0.618638 0.753165
v -0.204827 0.728842 0.805765
v 0.184027 0.618638 0.753165
v 0.184027 0.618638 0.753165
v 0.184027 0.618638 0.753165
v 0.184782 0.623342 0.814550
v -0.203048 0.732306 0.744333
v -0.203048 0.732306 0.744333
v -0.203048 0.732306 0.744333
v 0.060488 0.523584 0.834494
v 0.165497 0.747257 0.815751
v 0.059321 0.496198 0.759381
v 0.155019 0.755477 0.732835
v 0.155019 0.755477 0.732835
v 0.113322 0.612734 0.827388
v 0.111460 0.605883 0.744921
v 0.111460 0.605883 0.744921
v -0.000000 0.514485 0.868652
v -0.060488 0.523584 0.834494
v -0.165497 0.747257 0.815751
v -0.000000 0.775512 0.868487
v -0.059321 0.496198 0.759381
v -0.000000 0.470036 0.762833
v -0.000000 0.797464 0.728968
v -0.155019 0.755477 0.732835
v -0.155019 0.755477 0.732835
v -0.000000 0.634776 0.892449
v -0.113322 0.612734 0.827388
v -0.111460 0.605883 0.744921
v -0.111460 0.605883 0.744921
v 0.219341 0.708942 0.753798
v 0.219341 0.708942 0.753798
v 0.220131 0.707587 0.799296
v 0.218313 0.632860 0.805607
v 0.217978 0.630585 0.760130
v 0.217978 0.630585 0.760130
v -0.219341 0.708942 0.753798
v -0.219341 0.708942 0.753798
v -0.220131 0.707587 0.799296
v -0.218313 0.632860 0.805607
v -0.217978 0.630585 0.760130
v -0.217978 0.630585 0.760130
v 0.745484 0.875003 0.747250
v 0.770951 0.865981 0.697901
v 0.782702 0.858164 0.643439
v 0.779936 0.852084 0.587577
v 0.762843 0.848156 0.534120
v 0.732586 0.846646 0.486712
v 0.691229 0.847659 0.448584
v 0.641589 0.851124 0.422334
v 0.587049 0.856806 0.409750
v 0.654388 0.873669 0.820778
v 0.654388 0.873669 0.820778
v 0.694723 0.845191 0.794151
v 0.726654 0.819251 0.755774
v 0.747888 0.797700 0.708342
v 0.756979 0.782006 0.655085
v 0.753306 0.773239 0.599633
v 0.737120 0.771997 0.545765
v 0.709524 0.778364 0.497153
v 0.672398 0.791907 0.457109
v 0.628274 0.811701 0.428362
v 0.580156 0.836400 0.412871
v 0.608054 0.902988 0.834068
v 0.640143 0.857696 0.824892
v 0.667431 0.814173 0.801949
v 0.688057 0.775385 0.766802
v 0.700617 0.743975 0.721847
v 0.704255 0.722084 0.670148
v 0.698722 0.711204 0.615228
v 0.684396 0.712076 0.560829
v 0.662253 0.724640 0.510659
v 0.633802 0.748041 0.468136
v 0.600982 0.780684 0.436159
v 0.566029 0.820344 0.416907
v 0.620932 0.848435 0.829230
v 0.630317 0.796282 0.810329
v 0.635570 0.750084 0.778653
v 0.636334 0.712988 0.736362
v 0.632556 0.687522 0.686338
v 0.624494 0.675422 0.631988
v 0.612697 0.677513 0.577018
v 0.597969 0.693653 0.525174
v 0.581315 0.722740 0.479987
v 0.563868 0.762793 0.444539
v 0.546817 0.811082 0.421245
v 0.599560 0.847379 0.833209
v 0.589031 0.794242 0.818015
v 0.577183 0.747198 0.789524
v 0.564825 0.709454 0.749676
v 0.552798 0.683581 0.701187
v 0.541923 0.671342 0.647362
v 0.532939 0.673572 0.591868
v 0.526461 0.690119 0.538487
v 0.522928 0.719854 0.490858
v 0.522582 0.760753 0.452226
v 0.525446 0.810027 0.425223
v 0.579283 0.854688 0.836223
v 0.549859 0.808363 0.823839
v 0.521786 0.767169 0.797759
v 0.496977 0.733912 0.759762
v 0.477124 0.710860 0.712437
v 0.463579 0.699584 0.659008
v 0.457265 0.700851 0.603117
v 0.458613 0.714577 0.548573
v 0.467530 0.739824 0.499093
v 0.483410 0.774874 0.458049
v 0.505169 0.817336 0.428238
v 0.563188 0.869251 0.837814
v 0.563188 0.869251 0.837814
v 0.518764 0.836495 0.826912
v 0.477811 0.806953 0.802105
v 0.443119 0.782639 0.765085
v 0.417053 0.765208 0.718373
v 0.401389 0.755849 0.665154
v 0.397195 0.755199 0.609054
v 0.404755 0.763304 0.553896
v 0.423556 0.779610 0.503439
v 0.452315 0.803006 0.461122
v 0.489074 0.831898 0.429829
v 0.553723 0.888849 0.837739
v 0.500481 0.874356 0.826767
v 0.500481 0.874356 0.826767
v 0.451954 0.860497 0.801900
v 0.411451 0.848216 0.764834
v 0.381732 0.838349 0.718093
v 0.364822 0.831570 0.664864
v 0.361873 0.828341 0.608774
v 0.373087 0.828881 0.553645
v 0.397699 0.833153 0.503235
v 0.434032 0.840867 0.460977
v 0.479609 0.851497 0.429754
v 0.552332 0.910499 0.836010
v 0.497792 0.916181 0.823426
v 0.497792 0.916181 0.823426
v 0.448152 0.919647 0.797176
v 0.406794 0.920659 0.759047
v 0.376538 0.919150 0.711639
v 0.359444 0.915221 0.658183
v 0.356679 0.909141 0.602320
v 0.368430 0.901324 0.547859
v 0.393896 0.892303 0.498510
v 0.431343 0.882692 0.457637
v 0.478217 0.873147 0.428024
v 0.531326 0.864318 0.411691
v 0.559224 0.930906 0.832889
v 0.559224 0.930906 0.832889
v 0.511107 0.955604 0.817398
v 0.466982 0.975398 0.788651
v 0.429856 0.988941 0.748606
v 0.402260 0.995308 0.699994
v 0.386074 0.994066 0.646127
v 0.382402 0.985300 0.590675
v 0.391492 0.969606 0.537418
v 0.412727 0.948055 0.489985
v 0.444658 0.922114 0.451609
v 0.485110 0.893554 0.424904
v 0.573351 0.946962 0.828853
v 0.538399 0.986622 0.809600
v 0.505579 1.019264 0.777623
v 0.477128 1.042665 0.735100
v 0.454984 1.055230 0.684930
v 0.440658 1.056101 0.630531
v 0.435126 1.045221 0.575611
v 0.438763 1.023330 0.523912
v 0.451323 0.991920 0.478957
v 0.471950 0.953133 0.443811
v 0.499237 0.909610 0.420868
v 0.592563 0.956222 0.824515
v 0.575513 1.004513 0.801220
v 0.558066 1.044566 0.765772
v 0.541411 1.073653 0.720586
v 0.526683 1.089792 0.668741
v 0.514886 1.091883 0.613771
v 0.506824 1.079784 0.559422
v 0.503047 1.054318 0.509397
v 0.503810 1.017222 0.467106
v 0.509064 0.971023 0.435431
v 0.518449 0.918870 0.416530
v 0.613934 0.957279 0.820536
v 0.616798 1.006552 0.793534
v 0.616453 1.047451 0.754901
v 0.612920 1.077187 0.707272
v 0.606441 1.093734 0.653892
v 0.597458 1.095963 0.598398
v 0.586582 1.083725 0.544572
v 0.574555 1.057852 0.496083
v 0.562197 1.020108 0.456235
v 0.550349 0.973063 0.427744
v 0.539820 0.919927 0.412551
v 0.634211 0.949969 0.817522
v 0.655971 0.992432 0.787710
v 0.671850 1.027481 0.746666
v 0.680768 1.052729 0.697186
v 0.682115 1.066454 0.642642
v 0.675802 1.067722 0.586751
v 0.662256 1.056445 0.533323
v 0.642403 1.033394 0.485997
v 0.617595 1.000137 0.448000
v 0.589521 0.958943 0.421921
v 0.560097 0.912617 0.409536
v 0.650307 0.935407 0.815931
v 0.650307 0.935407 0.815931
v 0.687065 0.964300 0.784637
v 0.715825 0.987696 0.742320
v 0.734625 1.004002 0.691863
v 0.742186 1.012106 0.636706
v 0.737991 1.011457 0.580605
v 0.722327 1.002098 0.527386
v 0.696261 0.984667 0.480675
v 0.661569 0.960352 0.443654
v 0.620616 0.930810 0.418848
v 0.576192 0.898055 0.407946
v 0.659771 0.915809 0.816006
v 0.705349 0.926438 0.784782
v 0.705349 0.926438 0.784782
v 0.741681 0.934152 0.742525
v 0.766293 0.938425 0.692114
v 0.777507 0.938965 0.636985
v 0.774558 0.935735 0.580895
v 0.757648 0.928956 0.527666
v 0.727929 0.919090 0.480926
v 0.687426 0.906808 0.443859
v 0.638900 0.892950 0.418993
v 0.585657 0.878456 0.408021
v 0.661163 0.894158 0.817735
v 0.708038 0.884613 0.788123
v 0.708038 0.884613 0.788123
v 0.611783 0.937413 0.825488
v 0.611783 0.937413 0.825488
v 0.583104 0.934603 0.830319
v 0.583104 0.934603 0.830319
v 0.627010 0.937036 0.822077
v 0.627010 0.937036 0.822077
v 0.598090 0.937230 0.827923
v 0.598090 0.937230 0.827923
v 0.616139 0.868737 0.831031
v 0.616139 0.868737 0.831031
v 0.630899 0.870744 0.827536
v 0.630899 0.870744 0.827536
v 0.602732 0.868140 0.833530
v 0.602732 0.868140 0.833530
v 0.587511 0.868500 0.835607
v 0.587511 0.868500 0.835607
v -0.745484 0.875003 0.747250
v -0.770951 0.865981 0.697901
v -0.782702 0.858164 0.643439
v -0.779936 0.852084 0.587577
v -0.762843 0.848156 0.534120
v -0.732586 0.846646 0.486712
v -0.691229 0.847659 0.448584
v -0.641589 0.851124 0.422334
v -0.587049 0.856806 0.409750
v -0.654388 0.873669 0.820778
v -0.654388 0.873669 0.820778
v -0.694723 0.845191 0.794151
v -0.726654 0.819251 0.755774
v -0.747888 0.797700 0.708342
v -0.756979 0.782006 0.655085
v -0.753306 0.773239 0.599633
v -0.737120 0.771997 0.545765
v -0.709524 0.778364 0.497153
v -0.672398 0.791906 0.457109
v -0.628274 0.811701 0.428362
v -0.580156 0.836400 0.412871
v -0.608054 0.902988 0.834068
v -0.640143 0.857696 0.824892
v -0.667431 0.814173 0.801949
v -0.688057 0.775385 0.766802
v -0.700617 0.743975 0.721847
v -0.704255 0.722084 0.670148
v -0.698722 0.711204 0.615228
v -0.684396 0.712076 0.560829
v -0.662253 0.724640 0.510659
v -0.633802 0.748041 0.468136
v -0.600982 0.780684 0.436159
v -0.566029 0.820344 0.416907
v -0.620932 0.848435 0.829230
v -0.630317 0.796282 0.810329
v -0.635570 0.750084 0.778653
v -0.636334 0.712988 0.736362
v -0.632556 0.687522 0.686338
v -0.624494 0.675422 0.631988
v -0.612697 0.677513 0.577018
v -0.597969 0.693653 0.525174
v -0.581315 0.722740 0.479987
v -0.563868 0.762793 0.444539
v -0.546817 0.811082 0.421245
v -0.599560 0.847379 0.833209
v -0.589031 0.794242 0.818015
v -0.577183 0.747198 0.789524
v -0.564825 0.709454 0.749676
v -0.552798 0.683581 0.701187
v -0.541923 0.671342 0.647362
v -0.532939 0.673572 0.591868
v -0.526461 0.690119 0.538487
v -0.522928 0.719854 0.490858
v -0.522582 0.760753 0.452226
v -0.525446 0.810027 0.425223
v -0.579283 0.854688 0.836223
v -0.549859 0.808363 0.823839
v -0.521786 0.767169 0.797759
v -0.496977 0.733912 0.759762
v -0.477124 0.710860 0.712437
v -0.463579 0.699584 0.659008
v -0.457265 0.700851 0.603117
v -0.458613 0.714577 0.548573
v -0.467530 0.739824 0.499093
v -0.483410 0.774874 0.458049
v -0.505169 0.817336 0.428238
v -0.563188 0.869251 0.837814
v -0.563188 0.869251 0.837814
v -0.518764 0.836495 0.826912
v -0.477811 0.806953 0.802105
v -0.443119 0.782638 0.765085
v -0.417053 0.765208 0.718373
v -0.401389 0.755848 0.665154
v -0.397195 0.755199 0.609054
v -0.404755 0.763304 0.553896
v -0.423556 0.779609 0.503439
v -0.452315 0.803006 0.461122
v -0.489074 0.831898 0.429829
v -0.553723 0.888849 0.837739
v -0.500481 0.874356 0.826767
v -0.500481 0.874356 0.826767
v -0.451954 0.860497 0.801900
v -0.411451 0.848216 0.764834
v -0.381732 0.838349 0.718093
v -0.364822 0.831570 0.664864
v -0.361873 0.828341 0.608774
v -0.373087 0.828881 0.553645
v -0.397699 0.833153 0.503235
v -0.434032 0.840867 0.460977
v -0.479609 0.851497 0.429754
v -0.552332 0.910499 0.836010
v -0.497792 0.916181 0.823426
v -0.497792 0.916181 0.823426
v -0.448152 0.919647 0.797176
v -0.406794 0.920659 0.759047
v -0.376538 0.919150 0.711639
v -0.359444 0.915221 0.658183
v -0.356679 0.909141 0.602320
v -0.368430 0.901324 0.547859
v -0.393896 0.892303 0.498510
v -0.431343 0.882692 0.457637
v -0.478217 0.873147 0.428024
v -0.531326 0.864318 0.411691
v -0.559224 0.930906 0.832889
v -0.559224 0.930906 0.832889
v -0.511107 0.955604 0.817398
v -0.466982 0.975398 0.788651
v -0.429856 0.988941 0.748606
v -0.402260 0.995308 0.699994
v -0.386074 0.994066 0.646127
v -0.382402 0.985300 0.590675
v -0.391492 0.969606 0.537418
v -0.412727 0.948055 0.489985
v -0.444658 0.922114 0.451609
v -0.485110 0.893553 0.424904
v -0.573351 0.946962 0.828853
v -0.538399 0.986622 0.809600
v -0.505579 1.019264 0.777623
v -0.477128 1.042665 0.735100
v -0.454985 1.055230 0.684930
v -0.440659 1.056101 0.630531
v -0.435126 1.045221 0.575611
v -0.438763 1.023330 0.523912
v -0.451323 0.991920 0.478957
v -0.471950 0.953133 0.443811
v -0.499237 0.909610 0.420868
v -0.592563 0.956222 0.824515
v -0.575513 1.004513 0.801220
v -0.558066 1.044566 0.765772
v -0.541411 1.073653 0.720586
v -0.526683 1.089792 0.668741
v -0.514887 1.091883 0.613771
v -0.506825 1.079784 0.559422
v -0.503047 1.054318 0.509397
v -0.503810 1.017222 0.467106
v -0.509064 0.971023 0.435431
v -0.518449 0.918870 0.416530
v -0.613934 0.957279 0.820536
v -0.616798 1.006552 0.793534
v -0.616453 1.047451 0.754901
v -0.612920 1.077187 0.707272
v -0.606441 1.093733 0.653892
v -0.597458 1.095963 0.598398
v -0.586582 1.083725 0.544572
v -0.574556 1.057852 0.496083
v -0.562197 1.020107 0.456235
v -0.550349 0.973063 0.427744
v -0.539820 0.919927 0.412551
v -0.634211 0.949969 0.817522
v -0.655971 0.992432 0.787710
v -0.671850 1.027481 0.746666
v -0.680768 1.052728 0.697186
v -0.682116 1.066454 0.642642
v -0.675802 1.067722 0.586751
v -0.662257 1.056445 0.533323
v -0.642403 1.033394 0.485997
v -0.617595 1.000137 0.448000
v -0.589521 0.958942 0.421921
v -0.560097 0.912616 0.409536
v -0.650307 0.935407 0.815931
v -0.650307 0.935407 0.815931
v -0.687065 0.964300 0.784637
v -0.715825 0.987695 0.742320
v -0.734625 1.004002 0.691863
v -0.742186 1.012106 0.636706
v -0.737991 1.011457 0.580605
v -0.722327 1.002098 0.527386
v -0.696261 0.984667 0.480675
v -0.661569 0.960352 0.443654
v -0.620616 0.930810 0.418848
v -0.576192 0.898054 0.407946
v -0.659771 0.915809 0.816006
v -0.705349 0.926438 0.784782
v -0.705349 0.926438 0.784782
v -0.741681 0.934152 0.742525
v -0.766293 0.938425 0.692114
v -0.777507 0.938965 0.636985
v -0.774558 0.935735 0.580895
v -0.757648 0.928956 0.527666
v -0.727929 0.919090 0.480926
v -0.687426 0.906808 0.443859
v -0.638900 0.892949 0.418993
v -0.585657 0.878456 0.408021
v -0.661163 0.894158 0.817735
v -0.708038 0.884613 0.788123
v -0.708038 0.884613 0.788123
v -0.611783 0.937413 0.825488
v -0.611783 0.937413 0.825488
v -0.583104 0.934603 0.830319
v -0.583104 0.934603 0.830319
v -0.627010 0.937036 0.822077
v -0.627010 0.937036 0.822077
v -0.598090 0.937230 0.827923
v -0.598090 0.937230 0.827923
v -0.616139 0.868737 0.831031
v -0.616139 0.868737 0.831031
v -0.630899 0.870744 0.827536
v -0.630899 0.870744 0.827536
v -0.602732 0.868140 0.833530
v -0.602732 0.868140 0.833530
v -0.587511 0.868500 0.835607
v -0.587511 0.868500 0.835607
vn 0.6665 0.6502 -0.3647
vn 0.5279 0.5577 -0.6406
vn 0.4317 0.7305 -0.5291
vn 0.4613 0.8137 -0.3538
vn 0.4731 0.8798 -0.0459
vn 0.7109 0.7031 -0.0165
vn 0.8558 0.5173 0.0043
vn 0.8006 0.4585 -0.3858
vn 0.5988 0.3787 -0.7057
vn 0.3803 0.3876 0.8397
vn 0.3981 0.4291 0.8108
vn 0.0002 0.4342 0.9008
vn 0.0001 0.3931 0.9195
vn 0.2874 0.5045 -0.8142
vn 0.2738 0.7458 -0.6073
vn 0.3062 0.2983 -0.9040
vn 0.0005 0.4968 -0.8679
vn 0.0012 0.7668 -0.6419
vn 0.9314 -0.0633 -0.3585
vn 0.9990 -0.0430 0.0086
vn 0.9865 -0.1634 0.0140
vn 0.9208 -0.1727 -0.3496
vn 0.9932 0.1160 0.0032
vn 0.9261 0.0832 -0.3679
vn 0.9533 -0.3015 0.0185
vn 0.8898 -0.3067 -0.3380
vn 0.6748 -0.2963 -0.6759
vn 0.6918 -0.1592 -0.7043
vn 0.6912 -0.0546 -0.7206
vn 0.6818 0.0675 -0.7284
vn 0.0002 0.2685 -0.9633
vn 0.3486 -0.1280 -0.9285
vn 0.3483 -0.2837 -0.8934
vn 0.3123 -0.6007 -0.7359
vn 0.5898 -0.5703 -0.5718
vn 0.3991 -0.8418 -0.3635
vn 0.2407 -0.8889 -0.3898
vn -0.0003 -0.2825 -0.9593
vn -0.0000 -0.1131 -0.9936
vn -0.0005 -0.9227 -0.3854
vn -0.0000 -0.6294 -0.7771
vn 0.3470 -0.3620 -0.8652
vn 0.6623 -0.3699 -0.6516
vn 0.9263 -0.1470 0.3468
vn 0.9395 -0.0112 0.3423
vn 0.7652 0.0620 0.6408
vn 0.7677 -0.1214 0.6292
vn 0.6963 0.3360 0.6342
vn 0.8960 0.2981 0.3292
vn 0.8450 0.4332 0.3135
vn 0.6779 0.4208 0.6028
vn 0.9214 0.3885 -0.0049
vn 0.7964 0.5332 0.2853
vn 0.6772 0.4916 0.5475
vn -0.0000 -0.3656 -0.9308
vn 0.3775 0.5827 0.7197
vn 0.6299 0.6350 0.4471
vn 0.4559 0.8200 0.3460
vn 0.3057 0.8399 0.4485
vn 0.3775 0.5826 0.7198
vn 0.0005 0.6029 0.7978
vn -0.0000 0.3675 0.9300
vn 0.3829 0.3559 0.8525
vn 0.4659 -0.0632 0.8826
vn 0.4347 0.1136 0.8934
vn -0.0000 0.1220 0.9925
vn -0.0000 -0.0598 0.9982
vn 0.4549 -0.2376 0.8583
vn 0.7393 -0.2588 0.6217
vn 0.6650 -0.0910 0.7412
vn 0.2375 0.9496 0.2046
vn 0.4484 0.8716 0.1983
vn 0.6833 0.6914 0.2347
vn 0.7587 -0.5635 0.3268
vn 0.6409 -0.5247 0.5603
vn 0.4554 -0.8423 0.2883
vn 0.4562 -0.8886 0.0488
vn 0.7928 -0.6086 0.0338
vn 0.8729 -0.3379 0.3520
vn 0.9295 -0.3684 0.0201
vn 0.8924 -0.2794 0.3542
vn 0.7514 -0.5934 -0.2884
vn 0.4328 -0.8777 -0.2058
vn 0.8678 -0.3721 -0.3294
vn -0.0002 -0.2185 0.9758
vn 0.4188 -0.4829 0.7690
vn 0.3235 -0.8068 0.4944
vn 0.6370 -0.5344 0.5555
vn 0.4602 -0.2952 0.8373
vn 0.7627 -0.2987 0.5736
vn -0.0000 -0.5469 0.8372
vn -0.0000 -0.8520 0.5235
vn 0.9662 0.2575 -0.0077
vn 0.8644 0.3246 -0.3839
vn 0.6360 0.2622 -0.7258
vn 0.8992 0.2187 -0.3790
vn 0.3803 0.3877 0.8397
vn 0.3830 0.3559 0.8524
vn 0.3305 0.0679 -0.9414
vn 0.3395 -0.0279 -0.9402
vn -0.0001 -0.0147 -0.9999
vn -0.0000 0.0710 -0.9975
vn 0.3055 0.8402 0.4480
vn 0.0018 0.8768 0.4809
vn 0.2035 -0.9657 -0.1613
vn 0.2177 -0.9729 0.0774
vn -0.0002 -0.3035 0.9528
vn 0.2589 -0.9277 0.2689
vn 0.3297 -0.8072 0.4896
vn 0.0002 -0.9526 0.3042
vn -0.0023 -0.9970 0.0776
vn -0.0000 -0.9909 -0.1345
vn 0.2864 0.8821 -0.3739
vn 0.3045 0.9506 -0.0602
vn 0.0029 0.9213 -0.3888
vn 0.0057 0.9968 -0.0803
vn 0.0065 0.9863 0.1650
vn 0.6569 0.1791 -0.7324
vn 0.3179 0.1465 -0.9367
vn 0.3131 0.2003 -0.9284
vn 0.2389 0.9491 0.2051
vn 0.0064 0.9863 0.1651
vn 0.9275 0.1575 0.3391
vn 0.0001 0.1773 -0.9842
vn 0.0001 -0.8444 0.5357
vn 0.3932 0.2876 0.8733
vn 0.4347 0.1156 0.8931
vn 0.7337 0.2293 0.6396
vn 0.3941 0.2869 0.8731
vn -0.0000 0.2995 0.9541
vn -0.0001 0.1369 -0.9906
vn 0.7413 -0.2568 0.6201
vn 0.7648 -0.2999 0.5703
vn 0.6643 -0.0896 0.7421
vn -0.6662 0.6503 -0.3652
vn -0.4602 0.8138 -0.3550
vn -0.4308 0.7305 -0.5299
vn -0.5273 0.5577 -0.6410
vn -0.7107 0.7033 -0.0168
vn -0.4719 0.8804 -0.0462
vn -0.8004 0.4587 -0.3860
vn -0.8556 0.5176 0.0042
vn -0.5985 0.3789 -0.7059
vn -0.3800 0.3876 0.8398
vn -0.3975 0.4294 0.8109
vn -0.2865 0.5046 -0.8144
vn -0.2720 0.7457 -0.6082
vn -0.3059 0.2984 -0.9041
vn -0.9314 -0.0633 -0.3585
vn -0.9208 -0.1727 -0.3497
vn -0.9865 -0.1634 0.0140
vn -0.9990 -0.0430 0.0085
vn -0.9933 0.1155 0.0031
vn -0.9261 0.0828 -0.3679
vn -0.8898 -0.3067 -0.3380
vn -0.9533 -0.3015 0.0185
vn -0.6918 -0.1592 -0.7043
vn -0.6748 -0.2963 -0.6759
vn -0.6818 0.0672 -0.7284
vn -0.6912 -0.0546 -0.7206
vn -0.3486 -0.1280 -0.9285
vn -0.3481 -0.2837 -0.8935
vn -0.3124 -0.6007 -0.7359
vn -0.2405 -0.8888 -0.3902
vn -0.3991 -0.8418 -0.3635
vn -0.5898 -0.5703 -0.5717
vn -0.3469 -0.3620 -0.8652
vn -0.6624 -0.3699 -0.6515
vn -0.9263 -0.1470 0.3468
vn -0.7678 -0.1214 0.6291
vn -0.7652 0.0620 0.6408
vn -0.9395 -0.0112 0.3423
vn -0.6964 0.3354 0.6344
vn -0.6779 0.4205 0.6030
vn -0.8451 0.4329 0.3136
vn -0.8962 0.2974 0.3294
vn -0.7963 0.5334 0.2855
vn -0.9215 0.3884 -0.0049
vn -0.6769 0.4917 0.5477
vn -0.3763 0.5830 0.7201
vn -0.6293 0.6352 0.4477
vn -0.3976 0.4293 0.8109
vn -0.3028 0.8404 0.4495
vn -0.4546 0.8204 0.3470
vn -0.3761 0.5832 0.7201
vn -0.3828 0.3556 0.8527
vn -0.4658 -0.0632 0.8826
vn -0.4347 0.1136 0.8934
vn -0.6650 -0.0910 0.7412
vn -0.7393 -0.2588 0.6217
vn -0.4549 -0.2376 0.8583
vn -0.2313 0.9510 0.2051
vn -0.4467 0.8723 0.1991
vn -0.6829 0.6917 0.2350
vn -0.7587 -0.5634 0.3270
vn -0.4549 -0.8427 0.2879
vn -0.6410 -0.5246 0.5603
vn -0.7927 -0.6086 0.0339
vn -0.4562 -0.8886 0.0487
vn -0.8729 -0.3378 0.3522
vn -0.8925 -0.2795 0.3540
vn -0.9295 -0.3684 0.0200
vn -0.7514 -0.5935 -0.2884
vn -0.4329 -0.8776 -0.2057
vn -0.8678 -0.3721 -0.3294
vn -0.4187 -0.4829 0.7691
vn -0.6370 -0.5344 0.5555
vn -0.3235 -0.8068 0.4944
vn -0.4601 -0.2952 0.8374
vn -0.7627 -0.2987 0.5736
vn -0.9664 0.2568 -0.0077
vn -0.8644 0.3244 -0.3840
vn -0.6360 0.2620 -0.7259
vn -0.8993 0.2180 -0.3791
vn -0.3801 0.3875 0.8399
vn -0.3829 0.3556 0.8526
vn -0.3304 0.0678 -0.9414
vn -0.3396 -0.0279 -0.9402
vn -0.3028 0.8401 0.4500
vn -0.2032 -0.9657 -0.1619
vn -0.2146 -0.9736 0.0778
vn -0.2583 -0.9276 0.2697
vn -0.3298 -0.8069 0.4900
vn -0.2825 0.8830 -0.3749
vn -0.2984 0.9525 -0.0612
vn -0.3130 0.2001 -0.9284
vn -0.3179 0.1462 -0.9368
vn -0.6570 0.1786 -0.7324
vn -0.2299 0.9515 0.2046
vn -0.9275 0.1570 0.3392
vn -0.3932 0.2875 0.8733
vn -0.7338 0.2289 0.6396
vn -0.4347 0.1157 0.8931
vn -0.3941 0.2868 0.8732
vn -0.7413 -0.2568 0.6201
vn -0.7648 -0.2999 0.5703
vn -0.6643 -0.0896 0.7421
vn -0.5588 -0.5449 0.6251
vn -0.5966 -0.5813 0.5533
vn -0.7440 -0.5930 0.3079
vn -0.7514 -0.5338 0.3878
vn 0.7935 0.0080 0.6085
vn 0.6029 -0.5205 0.6046
vn 0.7137 -0.3035 0.6313
vn -0.4201 -0.5279 0.7381
vn -0.4202 -0.5279 0.7381
vn 0.7956 0.2824 0.5360
vn 0.7956 0.2822 0.5361
vn 0.9437 0.2601 -0.2043
vn 0.5466 0.8285 0.1216
vn 0.6153 0.7585 0.2146
vn 0.9531 0.2940 -0.0723
vn 0.9615 -0.1310 -0.2417
vn 0.9756 -0.1443 -0.1655
vn 0.2403 0.2472 -0.9387
vn 0.0107 0.6417 -0.7669
vn -0.0304 0.7000 -0.7135
vn 0.1724 0.3750 -0.9108
vn -0.1469 0.8365 -0.5280
vn -0.1470 0.8364 -0.5280
vn 0.3268 0.0587 -0.9433
vn 0.3267 0.0587 -0.9433
vn 0.3989 0.8243 0.4018
vn 0.4317 0.7374 0.5195
vn 0.5239 0.3063 0.7948
vn 0.8645 -0.2416 0.4407
vn 0.9752 -0.2115 -0.0657
vn -0.6169 -0.7600 0.2047
vn -0.7121 -0.6810 0.1707
vn -0.7642 -0.6084 0.2142
vn -0.5522 -0.7925 0.2591
vn -0.4569 -0.8641 0.2109
vn -0.4828 -0.8567 0.1818
vn 0.3458 0.8819 0.3206
vn 0.4728 -0.6057 0.6400
vn 0.1790 0.0085 0.9838
vn -0.8016 -0.5191 0.2967
vn -0.5472 -0.8306 0.1033
vn 0.5496 -0.5538 0.6255
vn 0.7425 -0.5458 0.3884
vn 0.7342 -0.6048 0.3084
vn 0.5868 -0.5908 0.5537
vn -0.7937 0.0208 0.6080
vn -0.7189 -0.2920 0.6308
vn -0.6116 -0.5108 0.6042
vn 0.4111 -0.5345 0.7384
vn 0.4111 -0.5346 0.7384
vn -0.7914 0.2950 0.5355
vn -0.7913 0.2949 0.5356
vn -0.9393 0.2752 -0.2050
vn -0.9482 0.3092 -0.0730
vn -0.6033 0.7682 0.2142
vn -0.5333 0.8372 0.1212
vn -0.9633 -0.1156 -0.2424
vn -0.9777 -0.1286 -0.1662
vn -0.2357 0.2510 -0.9389
vn -0.1658 0.3777 -0.9110
vn 0.0421 0.6994 -0.7135
vn 0.0002 0.6418 -0.7669
vn 0.1607 0.8340 -0.5279
vn -0.3251 0.0639 -0.9435
vn -0.5195 0.3147 0.7944
vn -0.4202 0.7442 0.5192
vn -0.3859 0.8306 0.4015
vn -0.9784 -0.1959 -0.0663
vn -0.8686 -0.2277 0.4401
vn 0.7542 -0.6205 0.2147
vn 0.7010 -0.6924 0.1712
vn 0.6045 -0.7697 0.2051
vn 0.5392 -0.8012 0.2594
vn 0.4688 -0.8643 0.1821
vn 0.4429 -0.8713 0.2113
vn -0.3318 0.8873 0.3203
vn -0.4829 -0.5981 0.6396
vn -0.1796 0.0115 0.9837
vn 0.7930 -0.5318 0.2972
vn 0.5338 -0.8393 0.1036
vn 0.3916 0.0650 0.9178
vn -0.0000 0.1492 0.9888
vn -0.0000 -0.0332 0.9994
vn 0.4525 -0.1060 0.8854
vn 0.5177 -0.4026 0.7549
vn 0.3627 -0.0006 0.9319
vn 0.4186 0.5325 0.7356
vn 0.3393 0.6002 0.7244
vn -0.0000 0.6647 0.7471
vn 0.2444 0.9516 0.1864
vn 0.4432 0.8926 0.0822
vn 0.3867 0.8818 -0.2699
vn 0.2146 0.9744 -0.0664
vn -0.0000 0.9999 0.0152
vn -0.0000 0.9789 0.2046
vn -0.2811 -0.9574 0.0664
vn -0.2490 -0.8615 -0.4425
vn -0.5447 -0.7759 -0.3183
vn -0.6060 -0.7905 0.0890
vn -0.5177 -0.4026 0.7549
vn -0.2578 -0.5137 0.8183
vn -0.5290 -0.4131 0.7413
vn -0.7471 -0.6634 0.0412
vn -0.6300 -0.5823 -0.5138
vn 0.3742 -0.8591 0.3492
vn 0.4423 -0.5903 0.6752
vn -0.0000 -0.6078 0.7941
vn -0.0000 -0.9151 0.4032
vn -0.0000 -0.9660 0.2584
vn 0.3570 -0.9075 0.2213
vn 0.7339 -0.6697 0.1133
vn 0.7440 -0.6286 0.2265
vn 0.7327 -0.4993 0.4625
vn 0.8567 -0.4986 0.1323
vn 0.7546 -0.3668 0.5441
vn 0.8631 -0.5015 -0.0604
vn 0.5447 -0.7759 -0.3183
vn 0.6060 -0.7905 0.0890
vn 0.4931 -0.2262 0.8401
vn -0.0000 -0.1912 0.9815
vn -0.3916 0.0650 0.9178
vn -0.4525 -0.1060 0.8854
vn -0.3393 0.6002 0.7244
vn -0.4186 0.5326 0.7356
vn -0.3627 -0.0006 0.9319
vn -0.2444 0.9516 0.1864
vn -0.4432 0.8926 0.0822
vn -0.2147 0.9744 -0.0664
vn -0.3867 0.8818 -0.2699
vn 0.6926 0.7213 -0.0066
vn 0.6641 0.6311 -0.4009
vn 0.5627 0.4522 0.6920
vn 0.7592 0.3310 0.5604
vn 0.9208 0.3900 -0.0089
vn 0.8932 0.3234 -0.3124
vn -0.3742 -0.8591 0.3492
vn -0.4423 -0.5903 0.6752
vn -0.7327 -0.4993 0.4624
vn -0.7440 -0.6286 0.2265
vn -0.7339 -0.6697 0.1133
vn -0.3569 -0.9075 0.2213
vn -0.8567 -0.4986 0.1323
vn -0.7546 -0.3668 0.5441
vn -0.8631 -0.5015 -0.0604
vn -0.4931 -0.2262 0.8401
vn 0.9999 0.0108 -0.0092
vn 0.6986 0.0350 0.7147
vn 0.5291 -0.4131 0.7413
vn 0.7471 -0.6634 0.0412
vn 0.6300 -0.5823 -0.5138
vn 0.9236 0.0206 -0.3828
vn -0.9999 0.0108 -0.0092
vn -0.6986 0.0350 0.7147
vn -0.7592 0.3310 0.5604
vn -0.9208 0.3900 -0.0089
vn -0.8932 0.3234 -0.3124
vn -0.9236 0.0206 -0.3828
vn -0.3010 0.0254 0.9533
vn -0.5627 0.4522 0.6920
vn 0.2811 -0.9574 0.0664
vn 0.2578 -0.5137 0.8183
vn 0.2490 -0.8615 -0.4425
vn -0.6927 0.7212 -0.0066
vn -0.6641 0.6311 -0.4009
vn 0.3010 0.0254 0.9533
vn -0.1228 -0.0116 -0.9924
vn -0.1227 -0.0117 -0.9924
vn -0.0759 -0.1799 -0.9808
vn -0.0758 -0.1798 -0.9808
vn -0.0759 -0.1798 -0.9808
vn -0.2556 -0.3025 -0.9182
vn -0.2557 -0.3025 -0.9182
vn -0.4157 0.0899 -0.9051
vn -0.4157 0.0900 -0.9051
vn 0.0759 -0.1799 -0.9808
vn 0.0759 -0.1798 -0.9808
vn 0.0758 -0.1798 -0.9808
vn 0.1228 -0.0116 -0.9924
vn 0.1227 -0.0117 -0.9924
vn 0.4157 0.0899 -0.9051
vn 0.2556 -0.3025 -0.9182
vn 0.2557 -0.3025 -0.9182
vn 0.9887 -0.1188 0.0913
vn 0.9365 -0.0832 0.3407
vn 0.8290 -0.4015 0.3894
vn 0.8692 -0.4725 0.1454
vn -0.1780 -0.0897 -0.9799
vn 0.0960 -0.1264 -0.9873
vn 0.0622 -0.2266 -0.9720
vn 0.6524 0.0021 0.7578
vn 0.4053 -0.0545 0.9126
vn 0.5891 -0.1853 0.7865
vn 0.5731 -0.1675 -0.8022
vn 0.7609 -0.1717 -0.6257
vn 0.6534 -0.4899 -0.5770
vn 0.4848 -0.4291 -0.7622
vn 0.9756 -0.1465 -0.1638
vn 0.8520 -0.5123 -0.1079
vn 0.8220 -0.0420 0.5679
vn 0.7337 -0.3036 0.6079
vn 0.3466 -0.1521 -0.9256
vn 0.2833 -0.3394 -0.8970
vn 0.8980 -0.1645 -0.4081
vn 0.7785 -0.5183 -0.3540
vn 0.4381 0.0458 0.8978
vn 0.1781 0.0897 0.9799
vn 0.3037 -0.6349 -0.7104
vn 0.1536 -0.4868 -0.8599
vn 0.5987 -0.8002 -0.0355
vn 0.5336 -0.7966 -0.2841
vn 0.5526 -0.5095 0.6596
vn 0.6086 -0.6519 0.4523
vn -0.0072 -0.3055 -0.9522
vn 0.2554 -0.0149 0.9667
vn 0.4331 -0.7404 -0.5141
vn 0.6243 -0.7509 0.2154
vn 0.3353 -0.1324 0.9327
vn 0.4595 -0.3326 0.8236
vn 0.2409 -0.1784 0.9540
vn 0.2831 -0.4177 0.8634
vn 0.1335 -0.8848 -0.4464
vn 0.0574 -0.7536 -0.6548
vn 0.2913 -0.9114 0.2906
vn 0.2543 -0.9662 0.0423
vn 0.3063 -0.6282 0.7153
vn -0.0227 -0.5718 -0.8201
vn 0.2005 -0.9572 -0.2089
vn 0.3090 -0.7963 0.5200
vn -0.1016 -0.3509 -0.9309
vn 0.2097 -0.0372 0.9771
vn -0.2189 -0.5815 -0.7836
vn -0.2065 -0.3561 -0.9113
vn 0.1597 -0.0396 0.9864
vn 0.1359 -0.1835 0.9736
vn -0.1700 -0.9755 -0.1399
vn -0.1999 -0.9013 -0.3844
vn -0.0243 -0.8128 0.5820
vn -0.0792 -0.9297 0.3596
vn 0.0869 -0.4274 0.8999
vn -0.2166 -0.7671 -0.6038
vn -0.1288 -0.9851 0.1136
vn 0.0323 -0.6417 0.7663
vn -0.0992 -0.3603 0.9276
vn -0.2276 -0.5480 0.8049
vn -0.4765 -0.6734 -0.5652
vn -0.4050 -0.5144 -0.7559
vn -0.4924 -0.8541 0.1676
vn -0.5215 -0.8488 -0.0876
vn -0.3406 -0.6988 0.6290
vn -0.3061 -0.3202 -0.8965
vn 0.1122 -0.0225 0.9934
vn 0.0363 -0.1477 0.9884
vn -0.5161 -0.7873 -0.3374
vn -0.4307 -0.8030 0.4118
vn -0.3851 -0.2487 -0.8887
vn -0.0427 -0.0761 0.9962
vn -0.2469 -0.2266 0.9422
vn -0.7672 -0.5602 -0.3126
vn -0.6829 -0.4868 -0.5448
vn -0.7098 -0.5506 0.4394
vn -0.7809 -0.5930 0.1962
vn -0.4340 -0.3613 0.8253
vn -0.5528 -0.3807 -0.7413
vn -0.8005 -0.5963 -0.0601
vn -0.5916 -0.4717 0.6539
vn -0.5553 -0.1101 0.8243
vn -0.7392 -0.1660 0.6527
vn -0.6396 -0.2008 -0.7420
vn -0.4316 -0.1525 -0.8891
vn -0.0892 0.0201 0.9958
vn -0.9646 -0.2565 -0.0614
vn -0.9148 -0.2545 -0.3137
vn -0.8738 -0.2108 0.4381
vn -0.3338 -0.0467 0.9415
vn -0.8042 -0.2355 -0.5457
vn -0.9506 -0.2417 0.1948
vn -0.3466 0.1521 0.9256
vn -0.5731 0.1675 0.8022
vn -0.8220 0.0420 -0.5679
vn -0.6524 -0.0021 -0.7579
vn -0.9756 0.1465 0.1638
vn -0.9887 0.1188 -0.0913
vn -0.7609 0.1717 0.6257
vn -0.4384 -0.0462 -0.8976
vn -0.0960 0.1264 0.9873
vn -0.9365 0.0832 -0.3407
vn -0.8980 0.1645 0.4081
vn -0.3338 -0.0466 0.9415
vn -0.6534 0.4899 0.5770
vn -0.7785 0.5183 0.3540
vn -0.4046 0.0540 -0.9129
vn -0.0622 0.2266 0.9720
vn -0.2833 0.3394 0.8970
vn -0.8290 0.4015 -0.3894
vn -0.7337 0.3036 -0.6079
vn -0.8520 0.5123 0.1079
vn -0.4848 0.4291 0.7622
vn -0.5891 0.1853 -0.7865
vn -0.8692 0.4725 -0.1454
vn -0.0621 0.2266 0.9720
vn -0.3037 0.6349 0.7104
vn -0.4331 0.7404 0.5141
vn -0.4595 0.3326 -0.8236
vn -0.3352 0.1329 -0.9327
vn 0.0984 0.1934 0.9762
vn -0.6243 0.7509 -0.2154
vn -0.6086 0.6519 -0.4523
vn -0.5336 0.7966 0.2841
vn 0.0072 0.3055 0.9522
vn -0.1537 0.4868 0.8599
vn -0.5526 0.5094 -0.6597
vn -0.5987 0.8002 0.0355
vn -0.2005 0.9572 0.2089
vn -0.2543 0.9662 -0.0423
vn 0.0227 0.5718 0.8201
vn -0.0574 0.7536 0.6548
vn -0.3063 0.6282 -0.7153
vn -0.2831 0.4177 -0.8634
vn -0.2913 0.9114 -0.2906
vn -0.1335 0.8848 0.4464
vn -0.2409 0.1784 -0.9540
vn 0.0983 0.1934 0.9762
vn 0.1433 0.2151 0.9660
vn 0.1015 0.3509 0.9309
vn -0.3090 0.7963 -0.5200
vn 0.1999 0.9013 0.3844
vn 0.1700 0.9755 0.1399
vn -0.1359 0.1836 -0.9736
vn 0.2065 0.3561 0.9113
vn 0.2189 0.5815 0.7836
vn 0.0243 0.8128 -0.5820
vn -0.0323 0.6417 -0.7663
vn 0.1288 0.9851 -0.1136
vn 0.2166 0.7671 0.6038
vn -0.0869 0.4273 -0.8999
vn 0.0792 0.9297 -0.3596
vn 0.1933 0.2175 0.9567
vn 0.4924 0.8541 -0.1676
vn 0.4307 0.8030 -0.4118
vn 0.4765 0.6734 0.5652
vn 0.5161 0.7873 0.3374
vn 0.0992 0.3603 -0.9276
vn -0.0363 0.1477 -0.9884
vn 0.2408 0.2004 0.9497
vn 0.3061 0.3202 0.8965
vn 0.3406 0.6988 -0.6290
vn 0.5215 0.8488 0.0876
vn 0.4050 0.5144 0.7559
vn 0.2276 0.5480 -0.8049
vn 0.8005 0.5963 0.0601
vn 0.7809 0.5930 -0.1962
vn 0.5528 0.3807 0.7413
vn 0.6829 0.4868 0.5448
vn 0.4340 0.3613 -0.8253
vn 0.2469 0.2266 -0.9422
vn 0.7098 0.5506 -0.4394
vn 0.7672 0.5602 0.3126
vn 0.0427 0.0761 -0.9962
vn 0.3851 0.2487 0.8887
vn 0.5916 0.4717 -0.6539
vn 0.8738 0.2108 -0.4381
vn 0.7392 0.1660 -0.6527
vn 0.9148 0.2545 0.3137
vn 0.9646 0.2566 0.0614
vn 0.0892 -0.0201 -0.9958
vn 0.6396 0.2008 0.7420
vn 0.5553 0.1101 -0.8243
vn 0.9506 0.2417 -0.1948
vn 0.8042 0.2355 0.5457
vn 0.3338 0.0467 -0.9415
vn 0.4316 0.1525 0.8891
vn 0.6524 0.0021 0.7579
vn 0.2407 0.2004 0.9497
vn 0.1596 -0.0396 0.9864
vn -0.9887 -0.1188 0.0913
vn -0.8692 -0.4725 0.1454
vn -0.8290 -0.4015 0.3894
vn -0.9365 -0.0832 0.3407
vn 0.1780 -0.0897 -0.9799
vn -0.0622 -0.2266 -0.9720
vn -0.0960 -0.1264 -0.9873
vn -0.6524 0.0021 0.7578
vn -0.5891 -0.1853 0.7865
vn -0.4053 -0.0545 0.9126
vn -0.5731 -0.1675 -0.8022
vn -0.4848 -0.4291 -0.7622
vn -0.6534 -0.4899 -0.5770
vn -0.7609 -0.1717 -0.6257
vn -0.9756 -0.1465 -0.1638
vn -0.8520 -0.5123 -0.1079
vn -0.8220 -0.0420 0.5679
vn -0.7337 -0.3036 0.6079
vn -0.3466 -0.1521 -0.9256
vn -0.2833 -0.3394 -0.8970
vn -0.8980 -0.1645 -0.4081
vn -0.7785 -0.5183 -0.3540
vn -0.4381 0.0458 0.8978
vn -0.1781 0.0897 0.9799
vn -0.1536 -0.4868 -0.8599
vn -0.3037 -0.6349 -0.7104
vn -0.5336 -0.7966 -0.2841
vn -0.5987 -0.8002 -0.0355
vn -0.6086 -0.6519 0.4523
vn -0.5526 -0.5094 0.6596
vn 0.0072 -0.3055 -0.9522
vn -0.2554 -0.0149 0.9667
vn -0.4331 -0.7404 -0.5141
vn -0.6243 -0.7509 0.2154
vn -0.4595 -0.3326 0.8236
vn -0.3353 -0.1324 0.9327
vn -0.2831 -0.4177 0.8634
vn -0.2409 -0.1784 0.9540
vn -0.0574 -0.7536 -0.6548
vn -0.1335 -0.8848 -0.4464
vn -0.2543 -0.9662 0.0423
vn -0.2913 -0.9114 0.2906
vn -0.3063 -0.6282 0.7153
vn 0.0227 -0.5718 -0.8201
vn -0.2005 -0.9572 -0.2089
vn -0.3090 -0.7963 0.5200
vn 0.1016 -0.3509 -0.9309
vn -0.2097 -0.0372 0.9771
vn 0.2065 -0.3561 -0.9113
vn 0.2189 -0.5815 -0.7836
vn -0.1359 -0.1835 0.9736
vn -0.1597 -0.0396 0.9864
vn 0.1999 -0.9013 -0.3844
vn 0.1700 -0.9755 -0.1399
vn 0.0792 -0.9297 0.3596
vn 0.0243 -0.8128 0.5820
vn -0.0869 -0.4274 0.8999
vn 0.2166 -0.7671 -0.6038
vn 0.1288 -0.9851 0.1136
vn -0.0323 -0.6417 0.7663
vn 0.2276 -0.5480 0.8049
vn 0.0992 -0.3603 0.9276
vn 0.4050 -0.5144 -0.7559
vn 0.4765 -0.6734 -0.5652
vn 0.5215 -0.8488 -0.0876
vn 0.4924 -0.8541 0.1676
vn 0.3406 -0.6988 0.6290
vn 0.3061 -0.3202 -0.8965
vn -0.0363 -0.1477 0.9884
vn -0.1122 -0.0225 0.9934
vn 0.5161 -0.7873 -0.3374
vn 0.4307 -0.8030 0.4118
vn 0.3851 -0.2487 -0.8887
vn 0.2469 -0.2266 0.9422
vn 0.0427 -0.0761 0.9962
vn 0.6829 -0.4868 -0.5448
vn 0.7672 -0.5602 -0.3126
vn 0.7809 -0.5930 0.1962
vn 0.7098 -0.5506 0.4394
vn 0.4340 -0.3613 0.8253
vn 0.5528 -0.3807 -0.7413
vn 0.8005 -0.5963 -0.0601
vn 0.5916 -0.4717 0.6539
vn 0.7392 -0.1660 0.6527
vn 0.5553 -0.1101 0.8243
vn 0.4316 -0.1525 -0.8891
vn 0.6396 -0.2008 -0.7420
vn 0.0892 0.0201 0.9958
vn 0.9148 -0.2545 -0.3137
vn 0.9646 -0.2565 -0.0614
vn 0.8738 -0.2108 0.4381
vn 0.3338 -0.0467 0.9415
vn 0.8042 -0.2355 -0.5457
vn 0.9506 -0.2417 0.1948
vn 0.5731 0.1675 0.8022
vn 0.3466 0.1521 0.9256
vn 0.6524 -0.0021 -0.7579
vn 0.8220 0.0420 -0.5679
vn 0.9887 0.1188 -0.0913
vn 0.9756 0.1465 0.1638
vn 0.7609 0.1717 0.6257
vn 0.4384 -0.0462 -0.8976
vn 0.0960 0.1264 0.9873
vn 0.9365 0.0832 -0.3407
vn 0.8980 0.1645 0.4081
vn 0.7785 0.5183 0.3540
vn 0.6534 0.4899 0.5770
vn 0.4046 0.0540 -0.9129
vn 0.2833 0.3394 0.8970
vn 0.0622 0.2266 0.9720
vn 0.7337 0.3036 -0.6079
vn 0.8290 0.4015 -0.3894
vn 0.8520 0.5123 0.1079
vn 0.4848 0.4291 0.7622
vn 0.5891 0.1853 -0.7865
vn 0.8692 0.4725 -0.1454
vn 0.0621 0.2266 0.9720
vn 0.4331 0.7404 0.5141
vn 0.3037 0.6349 0.7104
vn 0.3352 0.1329 -0.9327
vn 0.4595 0.3326 -0.8236
vn -0.0984 0.1934 0.9762
vn 0.6086 0.6519 -0.4523
vn 0.6243 0.7509 -0.2154
vn 0.5336 0.7966 0.2841
vn 0.1537 0.4868 0.8599
vn -0.0072 0.3055 0.9522
vn 0.5526 0.5095 -0.6597
vn 0.5987 0.8002 0.0355
vn 0.2543 0.9662 -0.0423
vn 0.2005 0.9572 0.2089
vn 0.0574 0.7536 0.6548
vn -0.0227 0.5718 0.8201
vn 0.2831 0.4177 -0.8634
vn 0.3063 0.6282 -0.7153
vn 0.2913 0.9114 -0.2906
vn 0.1335 0.8848 0.4464
vn 0.2409 0.1784 -0.9540
vn -0.1015 0.3509 0.9309
vn -0.1433 0.2151 0.9660
vn -0.0983 0.1934 0.9762
vn 0.3090 0.7963 -0.5200
vn -0.1700 0.9755 0.1399
vn -0.1999 0.9013 0.3844
vn 0.1359 0.1836 -0.9736
vn -0.2189 0.5815 0.7836
vn -0.2065 0.3561 0.9113
vn 0.0323 0.6417 -0.7663
vn -0.0243 0.8128 -0.5820
vn -0.1288 0.9851 -0.1136
vn -0.2166 0.7671 0.6038
vn 0.0869 0.4273 -0.8999
vn -0.0792 0.9297 -0.3596
vn -0.1933 0.2175 0.9567
vn -0.4307 0.8030 -0.4118
vn -0.4924 0.8541 -0.1676
vn -0.5161 0.7873 0.3374
vn -0.4765 0.6734 0.5652
vn 0.0363 0.1477 -0.9884
vn -0.0992 0.3602 -0.9276
vn -0.3061 0.3202 0.8965
vn -0.2408 0.2004 0.9497
vn -0.3406 0.6988 -0.6290
vn -0.5215 0.8488 0.0876
vn -0.4050 0.5144 0.7559
vn -0.2276 0.5480 -0.8049
vn -0.7809 0.5930 -0.1962
vn -0.8005 0.5963 0.0601
vn -0.6829 0.4868 0.5448
vn -0.5528 0.3807 0.7413
vn -0.2469 0.2266 -0.9422
vn -0.4340 0.3613 -0.8253
vn -0.7098 0.5506 -0.4394
vn -0.7672 0.5602 0.3126
vn -0.0427 0.0761 -0.9962
vn -0.3851 0.2487 0.8887
vn -0.5916 0.4717 -0.6539
vn -0.7392 0.1660 -0.6527
vn -0.8738 0.2108 -0.4381
vn -0.9646 0.2566 0.0614
vn -0.9148 0.2545 0.3137
vn -0.0892 -0.0201 -0.9958
vn -0.6396 0.2008 0.7420
vn -0.5553 0.1101 -0.8243
vn -0.9506 0.2417 -0.1948
vn -0.8042 0.2355 0.5457
vn -0.3338 0.0467 -0.9415
vn -0.4316 0.1525 0.8891
vn -0.6524 0.0021 0.7579
vn -0.2407 0.2004 0.9497
vn -0.1596 -0.0396 0.9864
vt 0.078488 0.421124
vt 0.111030 0.421586
vt 0.016007 0.422185
vt 0.047650 0.420368
s 1
usemtl Atlas.001
f 1/1/1 43/1/2 77/1/3
f 1/1/1 77/1/3 40/1/4
f 1/1/1 40/1/4 75/1/5
f 1/1/1 75/1/5 47/1/6
f 1/1/1 47/1/6 70/1/7
f 1/1/1 70/1/7 28/1/8
f 1/1/1 28/1/8 68/1/9
f 1/1/1 68/1/9 43/1/2
f 15/2/10 58/2/11 203/2/12
f 15/2/10 203/2/12 182/2/13
f 2/1/14 37/1/15 77/1/3
f 2/1/14 77/1/3 43/1/2
f 2/1/14 43/1/2 68/1/9
f 2/1/14 68/1/9 29/1/16
f 2/1/14 149/1/17 208/1/18
f 2/1/14 208/1/18 37/1/15
f 88/1/19 87/1/20 50/1/21
f 88/1/19 50/1/21 3/1/22
f 48/1/23 87/1/20 88/1/19
f 48/1/23 88/1/19 26/1/24
f 3/1/22 50/1/21 71/1/25
f 3/1/22 71/1/25 32/1/26
f 3/1/22 32/1/26 69/1/27
f 3/1/22 69/1/27 45/1/28
f 26/1/24 88/1/19 90/1/29
f 26/1/24 90/1/29 44/1/30
f 2/1/14 29/1/16 201/1/31
f 2/1/14 201/1/31 149/1/17
f 4/1/32 45/1/28 69/1/27
f 4/1/32 69/1/27 30/1/33
f 5/1/34 46/1/35 76/1/36
f 5/1/34 76/1/36 36/1/37
f 4/1/32 30/1/33 202/1/38
f 4/1/32 202/1/38 154/1/39
f 5/1/34 36/1/37 207/1/40
f 5/1/34 207/1/40 153/1/41
f 96/1/42 30/1/33 69/1/27
f 96/1/42 69/1/27 100/1/43
f 21/1/44 91/1/45 78/1/46
f 21/1/44 78/1/46 60/1/47
f 81/1/48 86/1/49 6/1/50
f 81/1/48 6/1/50 65/1/51
f 6/1/50 64/1/52 70/1/7
f 6/1/50 70/1/7 56/1/53
f 6/1/50 56/1/53 79/1/54
f 6/1/50 79/1/54 65/1/51
f 96/1/42 233/1/55 202/1/38
f 96/1/42 202/1/38 30/1/33
f 7/1/56 57/1/11 79/1/54
f 7/1/56 79/1/54 59/1/57
f 7/1/56 59/1/57 80/1/58
f 7/1/56 80/1/58 53/1/59
f 8/2/60 163/2/61 203/2/12
f 8/2/60 203/2/12 58/2/11
f 15/2/10 182/2/13 212/2/62
f 15/2/10 212/2/62 67/2/63
f 9/2/64 62/2/65 200/2/66
f 9/2/64 200/2/66 166/2/67
f 9/2/64 33/2/68 73/2/69
f 9/2/64 73/2/69 95/2/70
f 9/2/64 95/2/70 62/2/65
f 19/1/71 53/1/59 80/1/58
f 19/1/71 80/1/58 93/1/72
f 92/1/73 93/1/72 80/1/58
f 92/1/73 80/1/58 59/1/57
f 56/1/53 92/1/73 59/1/57
f 56/1/53 59/1/57 79/1/54
f 92/1/73 56/1/53 70/1/7
f 92/1/73 70/1/7 47/1/6
f 10/1/74 51/1/75 38/1/76
f 10/1/74 38/1/76 74/1/77
f 10/1/74 74/1/77 49/1/78
f 97/1/79 101/1/80 71/1/25
f 97/1/79 71/1/25 31/1/81
f 11/1/82 49/1/78 74/1/77
f 11/1/82 74/1/77 39/1/83
f 11/1/82 39/1/83 76/1/36
f 11/1/82 76/1/36 46/1/35
f 98/1/84 100/1/43 69/1/27
f 98/1/84 69/1/27 32/1/26
f 98/1/84 32/1/26 71/1/25
f 98/1/84 71/1/25 101/1/80
f 9/2/64 166/2/67 204/2/85
f 9/2/64 204/2/85 33/2/68
f 12/2/86 42/2/87 52/2/88
f 99/2/89 103/2/90 73/2/69
f 99/2/89 73/2/69 33/2/68
f 12/2/86 165/2/91 210/2/92
f 12/2/86 210/2/92 42/2/87
f 86/1/49 82/1/93 64/1/52
f 86/1/49 64/1/52 6/1/50
f 13/1/94 63/1/95 68/1/9
f 13/1/94 68/1/9 28/1/8
f 13/1/94 28/1/8 70/1/7
f 13/1/94 70/1/7 64/1/52
f 64/1/52 82/1/93 83/1/96
f 64/1/52 83/1/96 13/1/94
f 14/1/97 66/1/98 81/1/48
f 14/1/97 81/1/48 65/1/51
f 14/1/97 65/1/51 79/1/54
f 14/1/97 79/1/54 57/1/11
f 23/1/99 89/1/100 221/1/101
f 23/1/99 221/1/101 150/1/102
f 8/2/60 54/2/103 211/2/104
f 8/2/60 211/2/104 163/2/61
f 16/1/105 36/1/37 76/1/36
f 16/1/105 76/1/36 39/1/83
f 16/1/105 39/1/83 74/1/77
f 16/1/105 74/1/77 34/1/106
f 99/2/89 33/2/68 204/2/85
f 99/2/89 204/2/85 238/2/107
f 17/1/108 34/1/106 74/1/77
f 17/1/108 74/1/77 38/1/76
f 17/1/108 38/1/76 51/1/75
f 17/1/108 51/1/75 41/1/109
f 17/1/108 139/1/110 205/1/111
f 17/1/108 205/1/111 34/1/106
f 16/1/105 137/1/112 207/1/40
f 16/1/105 207/1/40 36/1/37
f 18/1/113 35/1/114 75/1/5
f 18/1/113 75/1/5 40/1/4
f 18/1/113 40/1/4 77/1/3
f 18/1/113 77/1/3 37/1/15
f 18/1/113 140/1/115 206/1/116
f 18/1/113 206/1/116 35/1/114
f 18/1/113 37/1/15 208/1/18
f 18/1/113 208/1/18 140/1/115
f 19/1/71 35/1/114 206/1/116
f 19/1/71 206/1/116 173/1/117
f 19/1/71 93/1/72 75/1/5
f 19/1/71 75/1/5 35/1/114
f 4/1/32 89/1/100 90/1/29
f 4/1/32 90/1/29 45/1/28
f 63/1/95 84/1/118 85/1/119
f 63/1/95 85/1/119 22/1/120
f 21/1/44 31/1/81 71/1/25
f 21/1/44 71/1/25 50/1/21
f 20/2/121 174/2/122 211/2/104
f 20/2/121 211/2/104 54/2/103
f 13/1/94 83/1/96 84/1/118
f 13/1/94 84/1/118 63/1/95
f 22/1/120 29/1/16 68/1/9
f 22/1/120 68/1/9 63/1/95
f 27/1/123 91/1/45 87/1/20
f 27/1/123 87/1/20 48/1/23
f 22/1/120 179/1/124 201/1/31
f 22/1/120 201/1/31 29/1/16
f 83/1/96 82/1/93 48/1/23
f 83/1/96 48/1/23 26/1/24
f 85/1/119 84/1/118 44/1/30
f 85/1/119 44/1/30 23/1/99
f 17/1/108 41/1/109 209/1/125
f 17/1/108 209/1/125 139/1/110
f 24/1/126 61/1/127 78/1/46
f 24/1/126 78/1/46 55/1/128
f 24/1/126 55/1/128 81/1/48
f 24/1/126 81/1/48 66/1/98
f 25/2/129 164/2/130 200/2/66
f 25/2/129 200/2/66 62/2/65
f 27/1/123 86/1/49 81/1/48
f 27/1/123 81/1/48 55/1/128
f 84/1/118 83/1/96 26/1/24
f 84/1/118 26/1/24 44/1/30
f 82/1/93 86/1/49 27/1/123
f 82/1/93 27/1/123 48/1/23
f 90/1/29 88/1/19 3/1/22
f 90/1/29 3/1/22 45/1/28
f 87/1/20 91/1/45 21/1/44
f 87/1/20 21/1/44 50/1/21
f 4/1/32 154/1/39 221/1/101
f 4/1/32 221/1/101 89/1/100
f 22/1/120 85/1/119 217/1/131
f 22/1/120 217/1/131 179/1/124
f 78/1/46 91/1/45 27/1/123
f 78/1/46 27/1/123 55/1/128
f 23/1/99 150/1/102 217/1/131
f 23/1/99 217/1/131 85/1/119
f 90/1/29 89/1/100 23/1/99
f 90/1/29 23/1/99 44/1/30
f 25/2/129 67/2/63 212/2/62
f 25/2/129 212/2/62 164/2/130
f 72/1/132 31/1/81 21/1/44
f 72/1/132 21/1/44 60/1/47
f 97/1/79 31/1/81 72/1/132
f 97/1/79 72/1/132 102/1/133
f 92/1/73 47/1/6 75/1/5
f 92/1/73 75/1/5 93/1/72
f 16/1/105 34/1/106 205/1/111
f 16/1/105 205/1/111 137/1/112
f 61/1/127 94/1/134 60/1/47
f 61/1/127 60/1/47 78/1/46
f 94/1/134 72/1/132 60/1/47
f 10/1/74 97/1/79 102/1/133
f 10/1/74 102/1/133 51/1/75
f 12/2/86 99/2/89 238/2/107
f 12/2/86 238/2/107 165/2/91
f 12/2/86 52/2/88 103/2/90
f 12/2/86 103/2/90 99/2/89
f 11/1/82 98/1/84 101/1/80
f 11/1/82 101/1/80 49/1/78
f 11/1/82 46/1/35 100/1/43
f 11/1/82 100/1/43 98/1/84
f 10/1/74 49/1/78 101/1/80
f 10/1/74 101/1/80 97/1/79
f 5/1/34 153/1/41 233/1/55
f 5/1/34 233/1/55 96/1/42
f 5/1/34 96/1/42 100/1/43
f 5/1/34 100/1/43 46/1/35
f 104/1/135 146/1/136 195/1/137
f 104/1/135 195/1/137 151/1/138
f 104/1/135 157/1/139 193/1/140
f 104/1/135 193/1/140 146/1/136
f 104/1/135 131/1/141 188/1/142
f 104/1/135 188/1/142 157/1/139
f 104/1/135 151/1/138 186/1/143
f 104/1/135 186/1/143 131/1/141
f 118/2/144 182/2/13 203/2/12
f 118/2/144 203/2/12 172/2/145
f 105/1/146 151/1/138 195/1/137
f 105/1/146 195/1/137 143/1/147
f 105/1/146 132/1/148 186/1/143
f 105/1/146 186/1/143 151/1/138
f 105/1/146 143/1/147 208/1/18
f 105/1/146 208/1/18 149/1/17
f 220/1/149 106/1/150 160/1/151
f 220/1/149 160/1/151 219/1/152
f 158/1/153 129/1/154 220/1/149
f 158/1/153 220/1/149 219/1/152
f 106/1/150 135/1/155 189/1/156
f 106/1/150 189/1/156 160/1/151
f 106/1/150 155/1/157 187/1/158
f 106/1/150 187/1/158 135/1/155
f 129/1/154 152/1/159 223/1/160
f 129/1/154 223/1/160 220/1/149
f 105/1/146 149/1/17 201/1/31
f 105/1/146 201/1/31 132/1/148
f 107/1/161 133/1/162 187/1/158
f 107/1/161 187/1/158 155/1/157
f 108/1/163 142/1/164 194/1/165
f 108/1/163 194/1/165 156/1/166
f 107/1/161 154/1/39 202/1/38
f 107/1/161 202/1/38 133/1/162
f 108/1/163 153/1/41 207/1/40
f 108/1/163 207/1/40 142/1/164
f 229/1/167 234/1/168 187/1/158
f 229/1/167 187/1/158 133/1/162
f 124/1/169 176/1/170 196/1/171
f 124/1/169 196/1/171 224/1/172
f 199/1/173 183/1/174 109/1/175
f 199/1/173 109/1/175 218/1/176
f 109/1/175 170/1/177 188/1/142
f 109/1/175 188/1/142 181/1/178
f 109/1/175 183/1/174 197/1/179
f 109/1/175 197/1/179 170/1/177
f 229/1/167 133/1/162 202/1/38
f 229/1/167 202/1/38 233/1/55
f 110/1/180 175/1/181 197/1/179
f 110/1/180 197/1/179 171/1/182
f 110/1/180 167/1/183 198/1/184
f 110/1/180 198/1/184 175/1/181
f 111/2/185 172/2/145 203/2/12
f 111/2/185 203/2/12 163/2/61
f 118/2/144 185/2/186 212/2/62
f 118/2/144 212/2/62 182/2/13
f 112/2/187 166/2/67 200/2/66
f 112/2/187 200/2/66 178/2/188
f 112/2/187 228/2/189 191/2/190
f 112/2/187 191/2/190 136/2/191
f 112/2/187 178/2/188 228/2/189
f 122/1/192 226/1/193 198/1/184
f 122/1/192 198/1/184 167/1/183
f 225/1/194 175/1/181 198/1/184
f 225/1/194 198/1/184 226/1/193
f 170/1/177 197/1/179 175/1/181
f 170/1/177 175/1/181 225/1/194
f 225/1/194 157/1/139 188/1/142
f 225/1/194 188/1/142 170/1/177
f 113/1/195 144/1/196 161/1/197
f 113/1/195 159/1/198 192/1/199
f 113/1/195 192/1/199 144/1/196
f 230/1/200 134/1/201 189/1/156
f 230/1/200 189/1/156 235/1/202
f 114/1/203 145/1/204 192/1/199
f 114/1/203 192/1/199 159/1/198
f 114/1/203 156/1/166 194/1/165
f 114/1/203 194/1/165 145/1/204
f 231/1/205 135/1/155 187/1/158
f 231/1/205 187/1/158 234/1/168
f 231/1/205 235/1/202 189/1/156
f 231/1/205 189/1/156 135/1/155
f 112/2/187 136/2/191 204/2/85
f 112/2/187 204/2/85 166/2/67
f 115/2/206 162/2/207 148/2/208
f 232/2/209 136/2/191 191/2/190
f 232/2/209 191/2/190 237/2/210
f 115/2/206 148/2/208 210/2/92
f 115/2/206 210/2/92 165/2/91
f 218/1/176 109/1/175 181/1/178
f 218/1/176 181/1/178 213/1/211
f 116/1/212 131/1/141 186/1/143
f 116/1/212 186/1/143 180/1/213
f 116/1/212 181/1/178 188/1/142
f 116/1/212 188/1/142 131/1/141
f 181/1/178 116/1/212 214/1/214
f 181/1/178 214/1/214 213/1/211
f 117/1/215 183/1/174 199/1/173
f 117/1/215 199/1/173 184/1/216
f 117/1/215 171/1/182 197/1/179
f 117/1/215 197/1/179 183/1/174
f 126/1/217 150/1/102 221/1/101
f 126/1/217 221/1/101 222/1/218
f 111/2/185 163/2/61 211/2/104
f 111/2/185 211/2/104 168/2/219
f 119/1/220 145/1/204 194/1/165
f 119/1/220 194/1/165 142/1/164
f 119/1/220 138/1/221 192/1/199
f 119/1/220 192/1/199 145/1/204
f 232/2/209 238/2/107 204/2/85
f 232/2/209 204/2/85 136/2/191
f 120/1/222 144/1/196 192/1/199
f 120/1/222 192/1/199 138/1/221
f 120/1/222 147/1/223 161/1/197
f 120/1/222 161/1/197 144/1/196
f 120/1/222 138/1/221 205/1/111
f 120/1/222 205/1/111 139/1/110
f 119/1/220 142/1/164 207/1/40
f 119/1/220 207/1/40 137/1/112
f 121/1/224 146/1/136 193/1/140
f 121/1/224 193/1/140 141/1/225
f 121/1/224 143/1/147 195/1/137
f 121/1/224 195/1/137 146/1/136
f 121/1/224 141/1/225 206/1/116
f 121/1/224 206/1/116 140/1/115
f 121/1/224 140/1/115 208/1/18
f 121/1/224 208/1/18 143/1/147
f 122/1/192 173/1/117 206/1/116
f 122/1/192 206/1/116 141/1/225
f 122/1/192 141/1/225 193/1/140
f 122/1/192 193/1/140 226/1/193
f 107/1/161 155/1/157 223/1/160
f 107/1/161 223/1/160 222/1/218
f 180/1/213 125/1/226 216/1/227
f 180/1/213 216/1/227 215/1/228
f 124/1/169 160/1/151 189/1/156
f 124/1/169 189/1/156 134/1/201
f 123/2/229 168/2/219 211/2/104
f 123/2/229 211/2/104 174/2/122
f 116/1/212 180/1/213 215/1/228
f 116/1/212 215/1/228 214/1/214
f 125/1/226 180/1/213 186/1/143
f 125/1/226 186/1/143 132/1/148
f 130/1/230 158/1/153 219/1/152
f 130/1/230 219/1/152 224/1/172
f 125/1/226 132/1/148 201/1/31
f 125/1/226 201/1/31 179/1/124
f 214/1/214 129/1/154 158/1/153
f 214/1/214 158/1/153 213/1/211
f 216/1/227 126/1/217 152/1/159
f 216/1/227 152/1/159 215/1/228
f 120/1/222 139/1/110 209/1/125
f 120/1/222 209/1/125 147/1/223
f 127/1/231 169/1/232 196/1/171
f 127/1/231 196/1/171 177/1/233
f 127/1/231 184/1/216 199/1/173
f 127/1/231 199/1/173 169/1/232
f 128/2/234 178/2/188 200/2/66
f 128/2/234 200/2/66 164/2/130
f 130/1/230 169/1/232 199/1/173
f 130/1/230 199/1/173 218/1/176
f 215/1/228 152/1/159 129/1/154
f 215/1/228 129/1/154 214/1/214
f 213/1/211 158/1/153 130/1/230
f 213/1/211 130/1/230 218/1/176
f 223/1/160 155/1/157 106/1/150
f 223/1/160 106/1/150 220/1/149
f 219/1/152 160/1/151 124/1/169
f 219/1/152 124/1/169 224/1/172
f 107/1/161 222/1/218 221/1/101
f 107/1/161 221/1/101 154/1/39
f 125/1/226 179/1/124 217/1/131
f 125/1/226 217/1/131 216/1/227
f 196/1/171 169/1/232 130/1/230
f 196/1/171 130/1/230 224/1/172
f 126/1/217 216/1/227 217/1/131
f 126/1/217 217/1/131 150/1/102
f 223/1/160 152/1/159 126/1/217
f 223/1/160 126/1/217 222/1/218
f 128/2/234 164/2/130 212/2/62
f 128/2/234 212/2/62 185/2/186
f 190/1/235 176/1/170 124/1/169
f 190/1/235 124/1/169 134/1/201
f 230/1/200 236/1/236 190/1/235
f 230/1/200 190/1/235 134/1/201
f 225/1/194 226/1/193 193/1/140
f 225/1/194 193/1/140 157/1/139
f 119/1/220 137/1/112 205/1/111
f 119/1/220 205/1/111 138/1/221
f 177/1/233 196/1/171 176/1/170
f 177/1/233 176/1/170 227/1/237
f 227/1/237 176/1/170 190/1/235
f 113/1/195 161/1/197 236/1/236
f 113/1/195 236/1/236 230/1/200
f 115/2/206 165/2/91 238/2/107
f 115/2/206 238/2/107 232/2/209
f 115/2/206 232/2/209 237/2/210
f 115/2/206 237/2/210 162/2/207
f 114/1/203 159/1/198 235/1/202
f 114/1/203 235/1/202 231/1/205
f 114/1/203 231/1/205 234/1/168
f 114/1/203 234/1/168 156/1/166
f 113/1/195 230/1/200 235/1/202
f 113/1/195 235/1/202 159/1/198
f 108/1/163 229/1/167 233/1/55
f 108/1/163 233/1/55 153/1/41
f 108/1/163 156/1/166 234/1/168
f 108/1/163 234/1/168 229/1/167
f 258/1/238 261/1/239 265/1/240
f 258/1/238 265/1/240 263/1/241
f 248/1/242 246/1/243 251/1/243
f 248/1/242 251/1/243 257/1/244
f 241/1/245 253/1/246 261/1/239
f 241/1/245 261/1/239 258/1/238
f 254/1/247 248/1/242 262/1/248
f 248/1/242 257/1/244 262/1/248
f 244/1/249 240/1/250 268/1/251
f 244/1/249 268/1/251 267/1/252
f 252/1/253 244/1/249 267/1/252
f 252/1/253 267/1/252 270/1/254
f 247/1/255 255/1/256 239/1/257
f 247/1/255 239/1/257 243/1/258
f 255/1/256 242/1/259 259/1/260
f 255/1/256 259/1/260 239/1/257
f 245/1/261 247/1/255 243/1/258
f 245/1/261 243/1/258 250/1/262
f 268/1/251 264/1/263 272/1/264
f 268/1/251 272/1/264 278/1/265
f 270/1/254 267/1/252 277/1/266
f 270/1/254 277/1/266 280/1/267
f 265/1/240 266/1/268 275/1/269
f 265/1/240 275/1/269 273/1/270
f 256/1/271 249/1/272 269/1/273
f 256/1/271 269/1/273 266/1/268
f 261/1/239 256/1/271 266/1/268
f 261/1/239 266/1/268 265/1/240
f 240/1/250 260/1/274 264/1/263
f 240/1/250 264/1/263 268/1/251
f 277/1/266 276/1/275 280/1/267
f 274/1/276 278/1/265 272/1/264
f 277/1/266 278/1/265 274/1/276
f 277/1/266 274/1/276 276/1/275
f 267/1/252 268/1/251 278/1/265
f 267/1/252 278/1/265 277/1/266
f 263/1/241 265/1/240 273/1/270
f 263/1/241 273/1/270 271/1/277
f 266/1/268 269/1/273 279/1/278
f 266/1/268 279/1/278 275/1/269
f 302/1/279 306/1/280 307/1/281
f 302/1/279 307/1/281 304/1/282
f 290/1/283 298/1/284 292/1/285
f 290/1/283 292/1/285 287/1/285
f 284/1/286 302/1/279 304/1/282
f 284/1/286 304/1/282 296/1/287
f 295/1/288 303/1/289 290/1/283
f 303/1/289 298/1/284 290/1/283
f 285/1/290 309/1/291 310/1/292
f 285/1/290 310/1/292 281/1/293
f 291/1/294 311/1/295 309/1/291
f 291/1/294 309/1/291 285/1/290
f 289/1/296 286/1/297 282/1/298
f 289/1/296 282/1/298 297/1/299
f 297/1/299 282/1/298 301/1/300
f 297/1/299 301/1/300 283/1/300
f 288/1/301 293/1/301 286/1/297
f 288/1/301 286/1/297 289/1/296
f 310/1/292 320/1/302 313/1/303
f 310/1/292 313/1/303 305/1/304
f 311/1/295 321/1/305 319/1/306
f 311/1/295 319/1/306 309/1/291
f 307/1/281 316/1/307 318/1/308
f 307/1/281 318/1/308 308/1/309
f 299/1/310 308/1/309 312/1/311
f 299/1/310 312/1/311 294/1/312
f 304/1/282 307/1/281 308/1/309
f 304/1/282 308/1/309 299/1/310
f 281/1/293 310/1/292 305/1/304
f 281/1/293 305/1/304 300/1/313
f 319/1/306 321/1/305 317/1/314
f 315/1/315 313/1/303 320/1/302
f 319/1/306 317/1/314 315/1/315
f 319/1/306 315/1/315 320/1/302
f 309/1/291 319/1/306 320/1/302
f 309/1/291 320/1/302 310/1/292
f 306/1/280 314/1/316 316/1/307
f 306/1/280 316/1/307 307/1/281
f 308/1/309 318/1/308 322/1/317
f 308/1/309 322/1/317 312/1/311
f 323/3/318 352/3/319 424/3/320
f 323/3/318 424/3/320 362/3/321
f 323/3/318 362/3/321 412/3/322
f 323/3/318 412/3/322 358/3/323
f 323/3/318 358/3/323 408/3/324
f 323/3/318 408/3/324 350/3/325
f 323/3/318 350/3/325 418/3/326
f 323/3/318 418/3/326 352/3/319
f 324/3/327 350/3/325 408/3/324
f 324/3/327 408/3/324 355/3/328
f 324/3/327 355/3/328 411/3/329
f 324/3/327 411/3/329 353/3/330
f 324/3/327 353/3/330 421/3/331
f 324/3/327 421/3/331 354/3/332
f 324/3/327 354/3/332 418/3/326
f 324/3/327 418/3/326 350/3/325
f 325/3/333 397/3/334 426/3/335
f 325/3/333 426/3/335 375/3/336
f 325/3/333 375/3/336 425/3/337
f 325/3/333 425/3/337 395/3/338
f 325/3/333 395/3/338 437/3/339
f 325/3/333 437/3/339 390/3/340
f 325/3/333 390/3/340 438/3/341
f 325/3/333 438/3/341 397/3/334
f 326/3/342 349/3/343 415/3/344
f 326/3/342 415/3/344 357/3/345
f 326/3/342 357/3/345 420/3/346
f 326/3/342 420/3/346 351/3/347
f 326/3/342 351/3/347 409/3/348
f 326/3/342 409/3/348 356/3/349
f 326/3/342 356/3/349 407/3/350
f 326/3/342 407/3/350 349/3/343
f 327/3/351 364/3/352 407/3/350
f 327/3/351 407/3/350 356/3/349
f 327/3/351 356/3/349 409/3/348
f 327/3/351 409/3/348 365/3/353
f 327/3/351 365/3/353 414/3/354
f 327/3/351 414/3/354 361/3/355
f 327/3/351 361/3/355 412/3/322
f 327/3/351 412/3/322 364/3/352
f 328/3/356 363/3/357 415/3/344
f 328/3/356 415/3/344 349/3/343
f 328/3/356 349/3/343 407/3/350
f 328/3/356 407/3/350 364/3/352
f 328/3/356 364/3/352 412/3/322
f 328/3/356 412/3/322 362/3/321
f 328/3/356 362/3/321 424/3/320
f 328/3/356 424/3/320 363/3/357
f 329/3/358 376/3/359 424/3/320
f 329/3/358 424/3/320 352/3/319
f 329/3/358 352/3/319 418/3/326
f 329/3/358 418/3/326 367/3/360
f 329/3/358 367/3/360 417/3/361
f 329/3/358 417/3/361 372/3/362
f 329/3/358 372/3/362 425/3/337
f 329/3/358 425/3/337 376/3/359
f 330/3/363 370/3/364 417/3/361
f 330/3/363 417/3/361 367/3/360
f 330/3/363 367/3/360 418/3/326
f 330/3/363 418/3/326 354/3/332
f 330/3/363 354/3/332 421/3/331
f 330/3/363 421/3/331 369/3/365
f 330/3/363 369/3/365 422/3/366
f 330/3/363 422/3/366 370/3/364
f 331/3/367 394/3/368 411/3/329
f 331/3/367 411/3/329 355/3/328
f 331/3/367 355/3/328 408/3/324
f 331/3/367 408/3/324 391/3/369
f 331/3/367 391/3/369 430/3/370
f 331/3/367 430/3/370 379/3/371
f 331/3/367 379/3/371 429/3/372
f 331/3/367 429/3/372 394/3/368
f 332/3/373 357/3/345 415/3/344
f 332/3/373 415/3/344 366/3/374
f 332/3/373 366/3/374 416/3/375
f 332/3/373 416/3/375 371/3/376
f 332/3/373 371/3/376 419/3/377
f 332/3/373 419/3/377 368/3/378
f 332/3/373 368/3/378 420/3/346
f 332/3/373 420/3/346 357/3/345
f 333/3/379 371/3/376 416/3/375
f 333/3/379 416/3/375 377/3/380
f 333/3/379 377/3/380 425/3/337
f 333/3/379 425/3/337 375/3/336
f 333/3/379 375/3/336 426/3/335
f 333/3/379 426/3/335 378/3/381
f 333/3/379 378/3/381 419/3/377
f 333/3/379 419/3/377 371/3/376
f 334/3/382 366/3/374 415/3/344
f 334/3/382 415/3/344 363/3/357
f 334/3/382 363/3/357 424/3/320
f 334/3/382 424/3/320 376/3/359
f 334/3/382 376/3/359 425/3/337
f 334/3/382 425/3/337 377/3/380
f 334/3/382 377/3/380 416/3/375
f 334/3/382 416/3/375 366/3/374
f 335/3/383 380/3/384 431/3/385
f 335/3/383 431/3/385 384/3/386
f 335/3/383 384/3/386 433/3/387
f 335/3/383 433/3/387 383/3/388
f 335/3/383 383/3/388 429/3/372
f 335/3/383 429/3/372 379/3/371
f 335/3/383 379/3/371 430/3/370
f 335/3/383 430/3/370 380/3/384
f 336/3/389 390/3/340 437/3/339
f 336/3/389 437/3/339 386/3/390
f 336/3/389 386/3/390 436/3/391
f 336/3/389 436/3/391 385/3/392
f 336/3/389 385/3/392 434/3/393
f 336/3/389 434/3/393 387/3/394
f 336/3/389 387/3/394 438/3/341
f 336/3/389 438/3/341 390/3/340
f 337/3/395 395/3/338 425/3/337
f 337/3/395 425/3/337 372/3/362
f 337/3/395 372/3/362 417/3/361
f 337/3/395 417/3/361 399/3/396
f 337/3/395 399/3/396 436/3/391
f 337/3/395 436/3/391 386/3/390
f 337/3/395 386/3/390 437/3/339
f 337/3/395 437/3/339 395/3/338
f 338/3/397 403/3/398 412/3/322
f 338/3/397 412/3/322 361/3/355
f 338/3/397 361/3/355 414/3/354
f 338/3/397 414/3/354 401/3/399
f 338/3/397 401/3/399 433/3/387
f 338/3/397 433/3/387 384/3/386
f 338/3/397 384/3/386 431/3/385
f 338/3/397 431/3/385 403/3/398
f 339/3/400 399/3/396 417/3/361
f 339/3/400 417/3/361 370/3/364
f 339/3/400 370/3/364 422/3/366
f 339/3/400 422/3/366 404/3/401
f 339/3/400 404/3/401 434/3/393
f 339/3/400 434/3/393 385/3/392
f 339/3/400 385/3/392 436/3/391
f 339/3/400 436/3/391 399/3/396
f 340/3/402 391/3/369 408/3/324
f 340/3/402 408/3/324 358/3/323
f 340/3/402 358/3/323 412/3/322
f 340/3/402 412/3/322 403/3/398
f 340/3/402 403/3/398 431/3/385
f 340/3/402 431/3/385 380/3/384
f 340/3/402 380/3/384 430/3/370
f 340/3/402 430/3/370 391/3/369
f 343/3/403 406/3/403 423/3/403
f 343/3/403 423/3/403 373/3/404
f 344/3/405 374/3/406 427/3/407
f 344/3/405 427/3/407 398/3/405
f 342/3/408 396/3/409 439/3/409
f 342/3/408 439/3/409 389/3/408
f 341/3/410 388/3/411 435/3/410
f 341/3/410 435/3/410 405/3/410
f 345/3/412 400/3/412 413/3/413
f 345/3/412 413/3/413 359/3/414
f 346/3/415 360/3/416 410/3/415
f 346/3/415 410/3/415 392/3/415
f 348/3/417 393/3/417 428/3/417
f 348/3/417 428/3/417 382/3/417
f 347/3/418 381/3/418 432/3/419
f 347/3/418 432/3/419 402/3/419
f 442/4/420 441/4/421 453/4/422
f 442/4/420 453/4/422 454/4/423
f 542/4/424 448/4/425 460/4/426
f 625/4/427 450/4/428 451/4/429
f 446/4/430 445/4/431 457/4/432
f 446/4/430 457/4/432 458/4/433
f 443/4/434 442/4/420 454/4/423
f 443/4/434 454/4/423 455/4/435
f 440/4/436 625/4/427 451/4/429
f 440/4/436 451/4/429 452/4/437
f 447/4/438 446/4/430 458/4/433
f 447/4/438 458/4/433 459/4/439
f 444/4/440 443/4/434 455/4/435
f 444/4/440 455/4/435 456/4/441
f 441/4/421 440/4/436 452/4/437
f 441/4/421 452/4/437 453/4/422
f 448/4/425 447/4/438 459/4/439
f 448/4/425 459/4/439 460/4/426
f 623/3/442 461/3/443 449/3/428
f 445/4/431 444/4/440 456/4/441
f 445/4/431 456/4/441 457/4/432
f 459/4/439 458/4/433 470/4/444
f 459/4/439 470/4/444 471/4/445
f 456/4/441 455/4/435 467/4/446
f 456/4/441 467/4/446 468/4/447
f 453/4/422 452/4/437 464/4/448
f 453/4/422 464/4/448 465/4/449
f 460/4/426 459/4/439 471/4/445
f 460/4/426 471/4/445 472/4/450
f 449/3/428 461/3/443 636/3/451
f 457/4/432 456/4/441 468/4/447
f 457/4/432 468/4/447 469/4/452
f 454/4/423 453/4/422 465/4/449
f 454/4/423 465/4/449 466/4/453
f 542/4/424 460/4/426 472/4/450
f 451/4/429 450/4/428 462/4/454
f 451/4/429 462/4/454 463/4/455
f 458/4/433 457/4/432 469/4/452
f 458/4/433 469/4/452 470/4/444
f 455/4/435 454/4/423 466/4/453
f 455/4/435 466/4/453 467/4/446
f 452/4/437 451/4/429 463/4/455
f 452/4/437 463/4/455 464/4/448
f 463/4/455 462/4/454 473/4/456
f 463/4/455 473/4/456 474/4/457
f 470/4/444 469/4/452 480/4/458
f 470/4/444 480/4/458 481/4/459
f 467/4/446 466/4/453 477/4/460
f 467/4/446 477/4/460 478/4/461
f 464/4/448 463/4/455 474/4/457
f 464/4/448 474/4/457 475/4/462
f 471/4/445 470/4/444 481/4/459
f 471/4/445 481/4/459 482/4/463
f 468/4/447 467/4/446 478/4/461
f 468/4/447 478/4/461 479/4/464
f 465/4/449 464/4/448 475/4/462
f 465/4/449 475/4/462 476/4/465
f 472/4/450 471/4/445 482/4/463
f 472/4/450 482/4/463 483/4/466
f 462/4/454 637/4/451 635/4/467
f 462/4/454 635/4/467 473/4/456
f 469/4/452 468/4/447 479/4/464
f 469/4/452 479/4/464 480/4/458
f 466/4/453 465/4/449 476/4/465
f 466/4/453 476/4/465 477/4/460
f 542/4/424 472/4/450 483/4/466
f 483/4/466 482/4/463 493/4/468
f 483/4/466 493/4/468 494/4/469
f 473/4/456 635/4/467 639/4/470
f 473/4/456 639/4/470 484/4/471
f 480/4/458 479/4/464 490/4/472
f 480/4/458 490/4/472 491/4/473
f 477/4/460 476/4/465 487/4/474
f 477/4/460 487/4/474 488/4/475
f 542/4/424 483/4/466 494/4/469
f 474/4/457 473/4/456 484/4/471
f 474/4/457 484/4/471 485/4/476
f 481/4/459 480/4/458 491/4/473
f 481/4/459 491/4/473 492/4/477
f 478/4/461 477/4/460 488/4/475
f 478/4/461 488/4/475 489/4/478
f 475/4/462 474/4/457 485/4/476
f 475/4/462 485/4/476 486/4/479
f 482/4/463 481/4/459 492/4/477
f 482/4/463 492/4/477 493/4/468
f 479/4/464 478/4/461 489/4/478
f 479/4/464 489/4/478 490/4/472
f 476/4/465 475/4/462 486/4/479
f 476/4/465 486/4/479 487/4/474
f 486/4/479 485/4/476 496/4/480
f 486/4/479 496/4/480 497/4/481
f 493/4/468 492/4/477 503/4/482
f 493/4/468 503/4/482 504/4/483
f 490/4/472 489/4/478 500/4/484
f 490/4/472 500/4/484 501/4/485
f 487/4/474 486/4/479 497/4/481
f 487/4/474 497/4/481 498/4/486
f 494/4/469 493/4/468 504/4/483
f 494/4/469 504/4/483 505/4/487
f 484/4/471 639/4/470 641/4/488
f 484/4/471 641/4/488 495/4/489
f 491/4/473 490/4/472 501/4/485
f 491/4/473 501/4/485 502/4/490
f 488/4/475 487/4/474 498/4/486
f 488/4/475 498/4/486 499/4/491
f 542/4/424 494/4/469 505/4/487
f 485/4/476 484/4/471 495/4/489
f 485/4/476 495/4/489 496/4/480
f 492/4/477 491/4/473 502/4/490
f 492/4/477 502/4/490 503/4/482
f 489/4/478 488/4/475 499/4/491
f 489/4/478 499/4/491 500/4/484
f 542/4/424 505/4/487 517/4/492
f 496/4/480 495/4/489 507/4/493
f 496/4/480 507/4/493 508/4/494
f 503/4/482 502/4/490 514/4/495
f 503/4/482 514/4/495 515/4/496
f 500/4/484 499/4/491 511/4/497
f 500/4/484 511/4/497 512/4/498
f 497/4/481 496/4/480 508/4/494
f 497/4/481 508/4/494 509/4/499
f 504/4/483 503/4/482 515/4/496
f 504/4/483 515/4/496 516/4/500
f 501/4/485 500/4/484 512/4/498
f 501/4/485 512/4/498 513/4/501
f 498/4/486 497/4/481 509/4/499
f 498/4/486 509/4/499 510/4/502
f 505/4/487 504/4/483 516/4/500
f 505/4/487 516/4/500 517/4/492
f 495/4/489 641/4/488 507/4/493
f 502/4/490 501/4/485 513/4/501
f 502/4/490 513/4/501 514/4/495
f 499/4/491 498/4/486 510/4/502
f 499/4/491 510/4/502 511/4/497
f 510/4/502 509/4/499 521/4/503
f 510/4/502 521/4/503 522/4/504
f 517/4/492 516/4/500 528/4/505
f 517/4/492 528/4/505 529/4/506
f 506/3/493 461/3/443 518/3/507
f 514/4/495 513/4/501 525/4/508
f 514/4/495 525/4/508 526/4/509
f 511/4/497 510/4/502 522/4/504
f 511/4/497 522/4/504 523/4/510
f 542/4/424 517/4/492 529/4/506
f 508/4/494 507/4/493 520/4/511
f 515/4/496 514/4/495 526/4/509
f 515/4/496 526/4/509 527/4/512
f 512/4/498 511/4/497 523/4/510
f 512/4/498 523/4/510 524/4/513
f 509/4/499 508/4/494 520/4/511
f 509/4/499 520/4/511 521/4/503
f 516/4/500 515/4/496 527/4/512
f 516/4/500 527/4/512 528/4/505
f 513/4/501 512/4/498 524/4/513
f 513/4/501 524/4/513 525/4/508
f 521/4/503 520/4/511 532/4/514
f 521/4/503 532/4/514 533/4/515
f 528/4/505 527/4/512 539/4/516
f 528/4/505 539/4/516 540/4/517
f 525/4/508 524/4/513 536/4/518
f 525/4/508 536/4/518 537/4/519
f 522/4/504 521/4/503 533/4/515
f 522/4/504 533/4/515 534/4/520
f 529/4/506 528/4/505 540/4/517
f 529/4/506 540/4/517 541/4/521
f 518/3/507 461/3/443 530/3/522
f 526/4/509 525/4/508 537/4/519
f 526/4/509 537/4/519 538/4/523
f 523/4/510 522/4/504 534/4/520
f 523/4/510 534/4/520 535/4/524
f 542/4/424 529/4/506 541/4/521
f 519/3/525 518/3/507 530/3/522
f 519/3/525 530/3/522 531/3/514
f 527/4/512 526/4/509 538/4/523
f 527/4/512 538/4/523 539/4/516
f 524/4/513 523/4/510 535/4/524
f 524/4/513 535/4/524 536/4/518
f 535/4/524 534/4/520 547/4/526
f 535/4/524 547/4/526 548/4/527
f 542/4/424 541/4/521 554/4/528
f 532/4/514 544/4/529 545/4/530
f 539/4/516 538/4/523 551/4/531
f 539/4/516 551/4/531 552/4/532
f 536/4/518 535/4/524 548/4/527
f 536/4/518 548/4/527 549/4/533
f 533/4/515 532/4/514 545/4/530
f 533/4/515 545/4/530 546/4/534
f 540/4/517 539/4/516 552/4/532
f 540/4/517 552/4/532 553/4/535
f 537/4/519 536/4/518 549/4/533
f 537/4/519 549/4/533 550/4/536
f 534/4/520 533/4/515 546/4/534
f 534/4/520 546/4/534 547/4/526
f 541/4/521 540/4/517 553/4/535
f 541/4/521 553/4/535 554/4/528
f 530/3/522 461/3/443 543/3/537
f 538/4/523 537/4/519 550/4/536
f 538/4/523 550/4/536 551/4/531
f 547/4/526 546/4/534 557/4/538
f 547/4/526 557/4/538 558/4/539
f 554/4/528 553/4/535 564/4/540
f 554/4/528 564/4/540 565/4/541
f 543/3/537 461/3/443 628/3/542
f 551/4/531 550/4/536 561/4/543
f 551/4/531 561/4/543 562/4/544
f 548/4/527 547/4/526 558/4/539
f 548/4/527 558/4/539 559/4/545
f 542/4/424 554/4/528 565/4/541
f 545/4/530 544/4/529 555/4/546
f 545/4/530 555/4/546 556/4/547
f 552/4/532 551/4/531 562/4/544
f 552/4/532 562/4/544 563/4/548
f 549/4/533 548/4/527 559/4/545
f 549/4/533 559/4/545 560/4/549
f 546/4/534 545/4/530 556/4/547
f 546/4/534 556/4/547 557/4/538
f 553/4/535 552/4/532 563/4/548
f 553/4/535 563/4/548 564/4/540
f 550/4/536 549/4/533 560/4/549
f 550/4/536 560/4/549 561/4/543
f 560/4/549 559/4/545 570/4/550
f 560/4/549 570/4/550 571/4/551
f 557/4/538 556/4/547 567/4/552
f 557/4/538 567/4/552 568/4/553
f 564/4/540 563/4/548 574/4/554
f 564/4/540 574/4/554 575/4/555
f 561/4/543 560/4/549 571/4/551
f 561/4/543 571/4/551 572/4/556
f 558/4/539 557/4/538 568/4/553
f 558/4/539 568/4/553 569/4/557
f 565/4/541 564/4/540 575/4/555
f 565/4/541 575/4/555 576/4/558
f 555/4/546 629/4/559 633/4/560
f 555/4/546 633/4/560 566/4/561
f 562/4/544 561/4/543 572/4/556
f 562/4/544 572/4/556 573/4/562
f 559/4/545 558/4/539 569/4/557
f 559/4/545 569/4/557 570/4/550
f 542/4/424 565/4/541 576/4/558
f 556/4/547 555/4/546 566/4/561
f 556/4/547 566/4/561 567/4/552
f 563/4/548 562/4/544 573/4/562
f 563/4/548 573/4/562 574/4/554
f 570/4/550 569/4/557 580/4/563
f 570/4/550 580/4/563 581/4/564
f 542/4/424 576/4/558 587/4/565
f 567/4/552 566/4/561 577/4/566
f 567/4/552 577/4/566 578/4/567
f 574/4/554 573/4/562 584/4/568
f 574/4/554 584/4/568 585/4/569
f 571/4/551 570/4/550 581/4/564
f 571/4/551 581/4/564 582/4/570
f 568/4/553 567/4/552 578/4/567
f 568/4/553 578/4/567 579/4/571
f 575/4/555 574/4/554 585/4/569
f 575/4/555 585/4/569 586/4/572
f 572/4/556 571/4/551 582/4/570
f 572/4/556 582/4/570 583/4/573
f 569/4/557 568/4/553 579/4/571
f 569/4/557 579/4/571 580/4/563
f 576/4/558 575/4/555 586/4/572
f 576/4/558 586/4/572 587/4/565
f 566/4/561 633/4/560 627/4/574
f 566/4/561 627/4/574 577/4/566
f 573/4/562 572/4/556 583/4/573
f 573/4/562 583/4/573 584/4/568
f 583/4/573 582/4/570 593/4/575
f 583/4/573 593/4/575 594/4/576
f 580/4/563 579/4/571 590/4/577
f 580/4/563 590/4/577 591/4/578
f 587/4/565 586/4/572 597/4/579
f 587/4/565 597/4/579 598/4/580
f 577/4/566 627/4/574 631/4/581
f 577/4/566 631/4/581 588/4/582
f 584/4/568 583/4/573 594/4/576
f 584/4/568 594/4/576 595/4/583
f 581/4/564 580/4/563 591/4/578
f 581/4/564 591/4/578 592/4/584
f 542/4/424 587/4/565 598/4/580
f 578/4/567 577/4/566 588/4/582
f 578/4/567 588/4/582 589/4/585
f 585/4/569 584/4/568 595/4/583
f 585/4/569 595/4/583 596/4/586
f 582/4/570 581/4/564 592/4/584
f 582/4/570 592/4/584 593/4/575
f 579/4/571 578/4/567 589/4/585
f 579/4/571 589/4/585 590/4/577
f 586/4/572 585/4/569 596/4/586
f 586/4/572 596/4/586 597/4/579
f 593/4/575 592/4/584 604/4/587
f 593/4/575 604/4/587 605/4/588
f 590/4/577 589/4/585 601/4/589
f 590/4/577 601/4/589 602/4/590
f 597/4/579 596/4/586 608/4/591
f 597/4/579 608/4/591 609/4/592
f 594/4/576 593/4/575 605/4/588
f 594/4/576 605/4/588 606/4/593
f 591/4/578 590/4/577 602/4/590
f 591/4/578 602/4/590 603/4/594
f 598/4/580 597/4/579 609/4/592
f 598/4/580 609/4/592 610/4/595
f 588/4/582 631/4/581 600/4/596
f 595/4/583 594/4/576 606/4/593
f 595/4/583 606/4/593 607/4/597
f 592/4/584 591/4/578 603/4/594
f 592/4/584 603/4/594 604/4/587
f 542/4/424 598/4/580 610/4/595
f 589/4/585 588/4/582 600/4/596
f 589/4/585 600/4/596 601/4/589
f 596/4/586 595/4/583 607/4/597
f 596/4/586 607/4/597 608/4/591
f 607/4/597 606/4/593 618/4/598
f 607/4/597 618/4/598 619/4/599
f 604/4/587 603/4/594 615/4/600
f 604/4/587 615/4/600 616/4/601
f 542/4/424 610/4/595 622/4/602
f 601/4/589 600/4/596 613/4/603
f 608/4/591 607/4/597 619/4/599
f 608/4/591 619/4/599 620/4/604
f 605/4/588 604/4/587 616/4/601
f 605/4/588 616/4/601 617/4/605
f 602/4/590 601/4/589 613/4/603
f 602/4/590 613/4/603 614/4/606
f 609/4/592 608/4/591 620/4/604
f 609/4/592 620/4/604 621/4/607
f 606/4/593 605/4/588 617/4/605
f 606/4/593 617/4/605 618/4/598
f 603/4/594 602/4/590 614/4/606
f 603/4/594 614/4/606 615/4/600
f 610/4/595 609/4/592 621/4/607
f 610/4/595 621/4/607 622/4/602
f 618/4/598 617/4/605 443/4/434
f 618/4/598 443/4/434 444/4/440
f 615/4/600 614/4/606 440/4/436
f 615/4/600 440/4/436 441/4/421
f 622/4/602 621/4/607 447/4/438
f 622/4/602 447/4/438 448/4/425
f 611/3/608 461/3/443 623/3/442
f 619/4/599 618/4/598 444/4/440
f 619/4/599 444/4/440 445/4/431
f 616/4/601 615/4/600 441/4/421
f 616/4/601 441/4/421 442/4/420
f 542/4/424 622/4/602 448/4/425
f 612/3/603 611/3/608 623/3/442
f 612/3/603 623/3/442 624/3/609
f 620/4/604 619/4/599 445/4/431
f 620/4/604 445/4/431 446/4/430
f 617/4/605 616/4/601 442/4/420
f 617/4/605 442/4/420 443/4/434
f 614/4/606 613/4/603 625/4/427
f 614/4/606 625/4/427 440/4/436
f 621/4/607 620/4/604 446/4/430
f 621/4/607 446/4/430 447/4/438
f 626/3/574 632/3/560 461/3/443
f 543/3/537 531/3/514 530/3/522
f 632/3/560 628/3/542 461/3/443
f 599/3/596 461/3/443 611/3/608
f 630/3/610 626/3/574 461/3/443
f 612/3/603 599/3/596 611/3/608
f 629/4/559 555/4/546 544/4/529
f 599/3/596 630/3/610 461/3/443
f 637/4/451 462/4/454 450/4/428
f 449/3/428 624/3/609 623/3/442
f 638/3/611 634/3/467 461/3/443
f 519/3/525 506/3/493 518/3/507
f 506/3/493 640/3/488 461/3/443
f 634/3/467 636/3/451 461/3/443
f 640/3/488 638/3/611 461/3/443
f 644/4/612 656/4/613 655/4/614
f 644/4/612 655/4/614 643/4/615
f 744/4/616 662/4/617 650/4/618
f 827/4/619 653/4/620 652/4/621
f 648/4/622 660/4/623 659/4/624
f 648/4/622 659/4/624 647/4/625
f 645/4/626 657/4/627 656/4/613
f 645/4/626 656/4/613 644/4/612
f 642/4/628 654/4/629 653/4/620
f 642/4/628 653/4/620 827/4/619
f 649/4/630 661/4/631 660/4/623
f 649/4/630 660/4/623 648/4/622
f 646/4/632 658/4/633 657/4/627
f 646/4/632 657/4/627 645/4/626
f 643/4/615 655/4/614 654/4/629
f 643/4/615 654/4/629 642/4/628
f 650/4/618 662/4/617 661/4/631
f 650/4/618 661/4/631 649/4/630
f 825/3/634 651/3/621 663/3/635
f 647/4/625 659/4/624 658/4/633
f 647/4/625 658/4/633 646/4/632
f 661/4/631 673/4/636 672/4/637
f 661/4/631 672/4/637 660/4/623
f 658/4/633 670/4/638 669/4/639
f 658/4/633 669/4/639 657/4/627
f 655/4/614 667/4/640 666/4/641
f 655/4/614 666/4/641 654/4/629
f 662/4/617 674/4/642 673/4/636
f 662/4/617 673/4/636 661/4/631
f 651/3/621 838/3/643 663/3/635
f 659/4/624 671/4/644 670/4/638
f 659/4/624 670/4/638 658/4/633
f 656/4/613 668/4/645 667/4/640
f 656/4/613 667/4/640 655/4/614
f 744/4/616 674/4/642 662/4/617
f 653/4/620 665/4/646 664/4/647
f 653/4/620 664/4/647 652/4/621
f 660/4/623 672/4/637 671/4/644
f 660/4/623 671/4/644 659/4/624
f 657/4/627 669/4/639 668/4/645
f 657/4/627 668/4/645 656/4/613
f 654/4/629 666/4/641 665/4/646
f 654/4/629 665/4/646 653/4/620
f 665/4/646 676/4/648 675/4/649
f 665/4/646 675/4/649 664/4/647
f 672/4/637 683/4/650 682/4/651
f 672/4/637 682/4/651 671/4/644
f 669/4/639 680/4/652 679/4/653
f 669/4/639 679/4/653 668/4/645
f 666/4/641 677/4/654 676/4/648
f 666/4/641 676/4/648 665/4/646
f 673/4/636 684/4/655 683/4/650
f 673/4/636 683/4/650 672/4/637
f 670/4/638 681/4/656 680/4/652
f 670/4/638 680/4/652 669/4/639
f 667/4/640 678/4/657 677/4/654
f 667/4/640 677/4/654 666/4/641
f 674/4/642 685/4/658 684/4/655
f 674/4/642 684/4/655 673/4/636
f 664/4/647 675/4/649 837/4/659
f 664/4/647 837/4/659 839/4/643
f 671/4/644 682/4/651 681/4/656
f 671/4/644 681/4/656 670/4/638
f 668/4/645 679/4/653 678/4/657
f 668/4/645 678/4/657 667/4/640
f 744/4/616 685/4/658 674/4/642
f 685/4/658 696/4/660 695/4/661
f 685/4/658 695/4/661 684/4/655
f 675/4/649 686/4/662 841/4/663
f 675/4/649 841/4/663 837/4/659
f 682/4/651 693/4/664 692/4/665
f 682/4/651 692/4/665 681/4/656
f 679/4/653 690/4/666 689/4/667
f 679/4/653 689/4/667 678/4/657
f 744/4/616 696/4/660 685/4/658
f 676/4/648 687/4/668 686/4/662
f 676/4/648 686/4/662 675/4/649
f 683/4/650 694/4/669 693/4/664
f 683/4/650 693/4/664 682/4/651
f 680/4/652 691/4/670 690/4/666
f 680/4/652 690/4/666 679/4/653
f 677/4/654 688/4/671 687/4/668
f 677/4/654 687/4/668 676/4/648
f 684/4/655 695/4/661 694/4/669
f 684/4/655 694/4/669 683/4/650
f 681/4/656 692/4/665 691/4/670
f 681/4/656 691/4/670 680/4/652
f 678/4/657 689/4/667 688/4/671
f 678/4/657 688/4/671 677/4/654
f 688/4/671 699/4/672 698/4/673
f 688/4/671 698/4/673 687/4/668
f 695/4/661 706/4/674 705/4/675
f 695/4/661 705/4/675 694/4/669
f 692/4/665 703/4/676 702/4/677
f 692/4/665 702/4/677 691/4/670
f 689/4/667 700/4/678 699/4/672
f 689/4/667 699/4/672 688/4/671
f 696/4/660 707/4/679 706/4/674
f 696/4/660 706/4/674 695/4/661
f 686/4/662 697/4/680 843/4/681
f 686/4/662 843/4/681 841/4/663
f 693/4/664 704/4/682 703/4/676
f 693/4/664 703/4/676 692/4/665
f 690/4/666 701/4/683 700/4/678
f 690/4/666 700/4/678 689/4/667
f 744/4/616 707/4/679 696/4/660
f 687/4/668 698/4/673 697/4/680
f 687/4/668 697/4/680 686/4/662
f 694/4/669 705/4/675 704/4/682
f 694/4/669 704/4/682 693/4/664
f 691/4/670 702/4/677 701/4/683
f 691/4/670 701/4/683 690/4/666
f 744/4/616 719/4/684 707/4/679
f 698/4/673 710/4/685 709/4/686
f 698/4/673 709/4/686 697/4/680
f 705/4/675 717/4/687 716/4/688
f 705/4/675 716/4/688 704/4/682
f 702/4/677 714/4/689 713/4/690
f 702/4/677 713/4/690 701/4/683
f 699/4/672 711/4/691 710/4/685
f 699/4/672 710/4/685 698/4/673
f 706/4/674 718/4/692 717/4/687
f 706/4/674 717/4/687 705/4/675
f 703/4/676 715/4/693 714/4/689
f 703/4/676 714/4/689 702/4/677
f 700/4/678 712/4/694 711/4/691
f 700/4/678 711/4/691 699/4/672
f 707/4/679 719/4/684 718/4/692
f 707/4/679 718/4/692 706/4/674
f 697/4/680 709/4/686 843/4/681
f 704/4/682 716/4/688 715/4/693
f 704/4/682 715/4/693 703/4/676
f 701/4/683 713/4/690 712/4/694
f 701/4/683 712/4/694 700/4/678
f 712/4/694 724/4/695 723/4/696
f 712/4/694 723/4/696 711/4/691
f 719/4/684 731/4/697 730/4/698
f 719/4/684 730/4/698 718/4/692
f 708/3/686 720/3/699 663/3/635
f 716/4/688 728/4/700 727/4/701
f 716/4/688 727/4/701 715/4/693
f 713/4/690 725/4/702 724/4/695
f 713/4/690 724/4/695 712/4/694
f 744/4/616 731/4/697 719/4/684
f 710/4/685 722/4/703 709/4/686
f 717/4/687 729/4/704 728/4/700
f 717/4/687 728/4/700 716/4/688
f 714/4/689 726/4/705 725/4/702
f 714/4/689 725/4/702 713/4/690
f 711/4/691 723/4/696 722/4/703
f 711/4/691 722/4/703 710/4/685
f 718/4/692 730/4/698 729/4/704
f 718/4/692 729/4/704 717/4/687
f 715/4/693 727/4/701 726/4/705
f 715/4/693 726/4/705 714/4/689
f 723/4/696 735/4/706 734/4/707
f 723/4/696 734/4/707 722/4/703
f 730/4/698 742/4/708 741/4/709
f 730/4/698 741/4/709 729/4/704
f 727/4/701 739/4/710 738/4/711
f 727/4/701 738/4/711 726/4/705
f 724/4/695 736/4/712 735/4/706
f 724/4/695 735/4/706 723/4/696
f 731/4/697 743/4/713 742/4/708
f 731/4/697 742/4/708 730/4/698
f 720/3/699 732/3/714 663/3/635
f 728/4/700 740/4/715 739/4/710
f 728/4/700 739/4/710 727/4/701
f 725/4/702 737/4/716 736/4/712
f 725/4/702 736/4/712 724/4/695
f 744/4/616 743/4/713 731/4/697
f 721/3/703 733/3/707 732/3/714
f 721/3/703 732/3/714 720/3/699
f 729/4/704 741/4/709 740/4/715
f 729/4/704 740/4/715 728/4/700
f 726/4/705 738/4/711 737/4/716
f 726/4/705 737/4/716 725/4/702
f 737/4/716 750/4/717 749/4/718
f 737/4/716 749/4/718 736/4/712
f 744/4/616 756/4/719 743/4/713
f 734/4/707 747/4/720 746/4/721
f 741/4/709 754/4/722 753/4/723
f 741/4/709 753/4/723 740/4/715
f 738/4/711 751/4/724 750/4/717
f 738/4/711 750/4/717 737/4/716
f 735/4/706 748/4/725 747/4/720
f 735/4/706 747/4/720 734/4/707
f 742/4/708 755/4/726 754/4/722
f 742/4/708 754/4/722 741/4/709
f 739/4/710 752/4/727 751/4/724
f 739/4/710 751/4/724 738/4/711
f 736/4/712 749/4/718 748/4/725
f 736/4/712 748/4/725 735/4/706
f 743/4/713 756/4/719 755/4/726
f 743/4/713 755/4/726 742/4/708
f 732/3/714 745/3/728 663/3/635
f 740/4/715 753/4/723 752/4/727
f 740/4/715 752/4/727 739/4/710
f 749/4/718 760/4/729 759/4/730
f 749/4/718 759/4/730 748/4/725
f 756/4/719 767/4/731 766/4/732
f 756/4/719 766/4/732 755/4/726
f 745/3/728 830/3/733 663/3/635
f 753/4/723 764/4/734 763/4/735
f 753/4/723 763/4/735 752/4/727
f 750/4/717 761/4/736 760/4/729
f 750/4/717 760/4/729 749/4/718
f 744/4/616 767/4/731 756/4/719
f 747/4/720 758/4/737 757/4/738
f 747/4/720 757/4/738 746/4/721
f 754/4/722 765/4/739 764/4/734
f 754/4/722 764/4/734 753/4/723
f 751/4/724 762/4/740 761/4/736
f 751/4/724 761/4/736 750/4/717
f 748/4/725 759/4/730 758/4/737
f 748/4/725 758/4/737 747/4/720
f 755/4/726 766/4/732 765/4/739
f 755/4/726 765/4/739 754/4/722
f 752/4/727 763/4/735 762/4/740
f 752/4/727 762/4/740 751/4/724
f 762/4/740 773/4/741 772/4/742
f 762/4/740 772/4/742 761/4/736
f 759/4/730 770/4/743 769/4/744
f 759/4/730 769/4/744 758/4/737
f 766/4/732 777/4/745 776/4/746
f 766/4/732 776/4/746 765/4/739
f 763/4/735 774/4/747 773/4/741
f 763/4/735 773/4/741 762/4/740
f 760/4/729 771/4/748 770/4/743
f 760/4/729 770/4/743 759/4/730
f 767/4/731 778/4/749 777/4/745
f 767/4/731 777/4/745 766/4/732
f 757/4/738 768/4/750 835/4/751
f 757/4/738 835/4/751 831/4/752
f 764/4/734 775/4/753 774/4/747
f 764/4/734 774/4/747 763/4/735
f 761/4/736 772/4/742 771/4/748
f 761/4/736 771/4/748 760/4/729
f 744/4/616 778/4/749 767/4/731
f 758/4/737 769/4/744 768/4/750
f 758/4/737 768/4/750 757/4/738
f 765/4/739 776/4/746 775/4/753
f 765/4/739 775/4/753 764/4/734
f 772/4/742 783/4/754 782/4/755
f 772/4/742 782/4/755 771/4/748
f 744/4/616 789/4/756 778/4/749
f 769/4/744 780/4/757 779/4/758
f 769/4/744 779/4/758 768/4/750
f 776/4/746 787/4/759 786/4/760
f 776/4/746 786/4/760 775/4/753
f 773/4/741 784/4/761 783/4/754
f 773/4/741 783/4/754 772/4/742
f 770/4/743 781/4/762 780/4/757
f 770/4/743 780/4/757 769/4/744
f 777/4/745 788/4/763 787/4/759
f 777/4/745 787/4/759 776/4/746
f 774/4/747 785/4/764 784/4/761
f 774/4/747 784/4/761 773/4/741
f 771/4/748 782/4/755 781/4/762
f 771/4/748 781/4/762 770/4/743
f 778/4/749 789/4/756 788/4/763
f 778/4/749 788/4/763 777/4/745
f 768/4/750 779/4/758 829/4/765
f 768/4/750 829/4/765 835/4/751
f 775/4/753 786/4/760 785/4/764
f 775/4/753 785/4/764 774/4/747
f 785/4/764 796/4/766 795/4/767
f 785/4/764 795/4/767 784/4/761
f 782/4/755 793/4/768 792/4/769
f 782/4/755 792/4/769 781/4/762
f 789/4/756 800/4/770 799/4/771
f 789/4/756 799/4/771 788/4/763
f 779/4/758 790/4/772 833/4/773
f 779/4/758 833/4/773 829/4/765
f 786/4/760 797/4/774 796/4/766
f 786/4/760 796/4/766 785/4/764
f 783/4/754 794/4/775 793/4/768
f 783/4/754 793/4/768 782/4/755
f 744/4/616 800/4/770 789/4/756
f 780/4/757 791/4/776 790/4/772
f 780/4/757 790/4/772 779/4/758
f 787/4/759 798/4/777 797/4/774
f 787/4/759 797/4/774 786/4/760
f 784/4/761 795/4/767 794/4/775
f 784/4/761 794/4/775 783/4/754
f 781/4/762 792/4/769 791/4/776
f 781/4/762 791/4/776 780/4/757
f 788/4/763 799/4/771 798/4/777
f 788/4/763 798/4/777 787/4/759
f 795/4/767 807/4/778 806/4/779
f 795/4/767 806/4/779 794/4/775
f 792/4/769 804/4/780 803/4/781
f 792/4/769 803/4/781 791/4/776
f 799/4/771 811/4/782 810/4/783
f 799/4/771 810/4/783 798/4/777
f 796/4/766 808/4/784 807/4/778
f 796/4/766 807/4/778 795/4/767
f 793/4/768 805/4/785 804/4/780
f 793/4/768 804/4/780 792/4/769
f 800/4/770 812/4/786 811/4/782
f 800/4/770 811/4/782 799/4/771
f 790/4/772 802/4/787 833/4/773
f 797/4/774 809/4/788 808/4/784
f 797/4/774 808/4/784 796/4/766
f 794/4/775 806/4/779 805/4/785
f 794/4/775 805/4/785 793/4/768
f 744/4/616 812/4/786 800/4/770
f 791/4/776 803/4/781 802/4/787
f 791/4/776 802/4/787 790/4/772
f 798/4/777 810/4/783 809/4/788
f 798/4/777 809/4/788 797/4/774
f 809/4/788 821/4/789 820/4/790
f 809/4/788 820/4/790 808/4/784
f 806/4/779 818/4/791 817/4/792
f 806/4/779 817/4/792 805/4/785
f 744/4/616 824/4/793 812/4/786
f 803/4/781 815/4/794 802/4/787
f 810/4/783 822/4/795 821/4/789
f 810/4/783 821/4/789 809/4/788
f 807/4/778 819/4/796 818/4/791
f 807/4/778 818/4/791 806/4/779
f 804/4/780 816/4/797 815/4/794
f 804/4/780 815/4/794 803/4/781
f 811/4/782 823/4/798 822/4/795
f 811/4/782 822/4/795 810/4/783
f 808/4/784 820/4/790 819/4/796
f 808/4/784 819/4/796 807/4/778
f 805/4/785 817/4/792 816/4/797
f 805/4/785 816/4/797 804/4/780
f 812/4/786 824/4/793 823/4/798
f 812/4/786 823/4/798 811/4/782
f 820/4/790 646/4/632 645/4/626
f 820/4/790 645/4/626 819/4/796
f 817/4/792 643/4/615 642/4/628
f 817/4/792 642/4/628 816/4/797
f 824/4/793 650/4/618 649/4/630
f 824/4/793 649/4/630 823/4/798
f 813/3/799 825/3/634 663/3/635
f 821/4/789 647/4/625 646/4/632
f 821/4/789 646/4/632 820/4/790
f 818/4/791 644/4/612 643/4/615
f 818/4/791 643/4/615 817/4/792
f 744/4/616 650/4/618 824/4/793
f 814/3/794 826/3/800 825/3/634
f 814/3/794 825/3/634 813/3/799
f 822/4/795 648/4/622 647/4/625
f 822/4/795 647/4/625 821/4/789
f 819/4/796 645/4/626 644/4/612
f 819/4/796 644/4/612 818/4/791
f 816/4/797 642/4/628 827/4/619
f 816/4/797 827/4/619 815/4/794
f 823/4/798 649/4/630 648/4/622
f 823/4/798 648/4/622 822/4/795
f 828/3/765 663/3/635 834/3/751
f 745/3/728 732/3/714 733/3/707
f 834/3/751 663/3/635 830/3/733
f 801/3/787 813/3/799 663/3/635
f 832/3/801 663/3/635 828/3/765
f 814/3/794 813/3/799 801/3/787
f 831/4/752 746/4/721 757/4/738
f 801/3/787 663/3/635 832/3/801
f 839/4/643 652/4/621 664/4/647
f 651/3/621 825/3/634 826/3/800
f 840/3/802 663/3/635 836/3/659
f 721/3/703 720/3/699 708/3/686
f 708/3/686 663/3/635 842/3/681
f 836/3/659 663/3/635 838/3/643
f 842/3/681 663/3/635 840/3/802
