# Blender 4.4.1
# www.blender.org
mtllib door.mtl
o 円柱
v -0.487894 -0.455055 0.030987
v -0.487894 1.524592 0.030987
v -0.493939 -0.455055 0.030391
v -0.493939 1.524592 0.030391
v -0.499752 -0.455055 0.028628
v -0.499752 1.524592 0.028628
v -0.505110 -0.455055 0.025764
v -0.505110 1.524592 0.025764
v -0.509805 -0.455055 0.021911
v -0.509805 1.524592 0.021911
v -0.513659 -0.455055 0.017215
v -0.513659 1.524592 0.017215
v -0.516522 -0.455055 0.011858
v -0.516522 1.524592 0.011858
v -0.518286 -0.455055 0.006045
v -0.518286 1.524592 0.006045
v -0.518881 -0.455055 0.000000
v -0.518881 1.524592 -0.000000
v -0.518286 -0.455055 -0.006045
v -0.518286 1.524592 -0.006045
v -0.516522 -0.455055 -0.011858
v -0.516522 1.524592 -0.011858
v -0.513659 -0.455055 -0.017215
v -0.513659 1.524592 -0.017215
v -0.509805 -0.455055 -0.021911
v -0.509805 1.524592 -0.021911
v -0.505110 -0.455055 -0.025764
v -0.505110 1.524592 -0.025764
v -0.499752 -0.455055 -0.028628
v -0.499752 1.524592 -0.028628
v -0.493939 -0.455055 -0.030391
v -0.493939 1.524592 -0.030391
v -0.487894 -0.455055 -0.030987
v -0.487894 1.524592 -0.030987
v -0.481849 -0.455055 -0.030391
v -0.481849 1.524592 -0.030391
v -0.476036 -0.455055 -0.028628
v -0.476036 1.524592 -0.028628
v -0.470679 -0.455055 -0.025764
v -0.470679 1.524592 -0.025764
v -0.465983 -0.455055 -0.021911
v -0.465983 1.524592 -0.021911
v -0.462130 -0.455055 -0.017215
v -0.462130 1.524592 -0.017215
v -0.459266 -0.455055 -0.011858
v -0.459266 1.524592 -0.011858
v -0.457503 -0.455055 -0.006045
v -0.457503 1.524592 -0.006045
v -0.456908 -0.455055 0.000000
v -0.456908 1.524592 -0.000000
v -0.457503 -0.455055 0.006045
v -0.457503 1.524592 0.006045
v -0.459266 -0.455055 0.011858
v -0.459266 1.524592 0.011858
v -0.462130 -0.455055 0.017215
v -0.462130 1.524592 0.017215
v -0.465983 -0.455055 0.021911
v -0.465983 1.524592 0.021911
v -0.470679 -0.455055 0.025764
v -0.470679 1.524592 0.025764
v -0.476036 -0.455055 0.028628
v -0.476036 1.524592 0.028628
v -0.481849 -0.455055 0.030391
v -0.481849 1.524592 0.030391
v 0.592807 0.938516 0.000000
v -0.494494 0.398636 -0.000000
v 0.592807 0.946058 0.000000
v -0.494494 1.485937 -0.000000
vn -0.0981 -0.0000 0.9952
vn -0.2902 -0.0000 0.9570
vn -0.4714 -0.0000 0.8819
vn -0.6344 -0.0000 0.7730
vn -0.7730 -0.0000 0.6344
vn -0.8819 -0.0000 0.4713
vn -0.9569 -0.0000 0.2904
vn -0.9952 -0.0000 0.0980
vn -0.9952 -0.0000 -0.0980
vn -0.9569 -0.0000 -0.2904
vn -0.8819 -0.0000 -0.4713
vn -0.7730 -0.0000 -0.6344
vn -0.6344 -0.0000 -0.7730
vn -0.4714 -0.0000 -0.8819
vn -0.2902 -0.0000 -0.9570
vn -0.0981 -0.0000 -0.9952
vn 0.0981 -0.0000 -0.9952
vn 0.2902 -0.0000 -0.9570
vn 0.4715 -0.0000 -0.8819
vn 0.6343 -0.0000 -0.7731
vn 0.7731 -0.0000 -0.6343
vn 0.8819 -0.0000 -0.4715
vn 0.9570 -0.0000 -0.2902
vn 0.9952 -0.0000 -0.0980
vn 0.9952 -0.0000 0.0980
vn 0.9570 -0.0000 0.2902
vn 0.8819 -0.0000 0.4715
vn 0.7731 -0.0000 0.6343
vn 0.6343 -0.0000 0.7731
vn 0.4715 -0.0000 0.8819
vn -0.0000 1.0000 -0.0000
vn 0.2902 -0.0000 0.9570
vn 0.0981 -0.0000 0.9952
vn -0.0000 -1.0000 -0.0000
vn -0.0000 1.0000 0.0003
vn -0.0000 1.0000 -0.0003
vn -0.0000 1.0000 0.0001
vn -0.0000 1.0000 -0.0001
vn -0.0000 -1.0000 0.0001
vn -0.0000 -1.0000 -0.0001
vn -0.0000 -0.0000 -1.0000
vt 0.337188 0.907371
vt 0.329541 0.785027
vt 0.337188 0.785027
vt 0.329541 0.907371
vt 0.321895 0.785027
vt 0.321895 0.907371
vt 0.314248 0.785027
vt 0.314248 0.907371
vt 0.306602 0.785027
vt 0.306602 0.907371
vt 0.298955 0.785027
vt 0.298955 0.907371
vt 0.291309 0.785027
vt 0.291309 0.907371
vt 0.283662 0.785027
vt 0.283662 0.907371
vt 0.276016 0.785027
vt 0.276016 0.907371
vt 0.268369 0.785027
vt 0.268369 0.907371
vt 0.260723 0.785027
vt 0.260723 0.907371
vt 0.253076 0.785027
vt 0.253076 0.907371
vt 0.245430 0.785027
vt 0.245430 0.907371
vt 0.237783 0.785027
vt 0.237783 0.907371
vt 0.230137 0.785027
vt 0.230137 0.907371
vt 0.222490 0.785027
vt 0.222490 0.907371
vt 0.214844 0.785027
vt 0.214844 0.907371
vt 0.207197 0.785027
vt 0.207197 0.907371
vt 0.199551 0.785027
vt 0.199551 0.907371
vt 0.191904 0.785027
vt 0.191904 0.907371
vt 0.184258 0.785027
vt 0.184258 0.907371
vt 0.176611 0.785027
vt 0.176611 0.907371
vt 0.168965 0.785027
vt 0.168965 0.907371
vt 0.161318 0.785027
vt 0.161318 0.907371
vt 0.153672 0.785027
vt 0.153672 0.907371
vt 0.146025 0.785027
vt 0.146025 0.907371
vt 0.138379 0.785027
vt 0.138379 0.907371
vt 0.130732 0.785027
vt 0.130732 0.907371
vt 0.123086 0.785027
vt 0.123086 0.907371
vt 0.115439 0.785027
vt 0.115439 0.907371
vt 0.107793 0.785027
vt 0.131199 0.669600
vt 0.207927 0.701381
vt 0.176145 0.778109
vt 0.107793 0.907371
vt 0.100146 0.785027
vt 0.100146 0.907371
vt 0.092500 0.785027
vt 0.287472 0.666258
vt 0.218419 0.712398
vt 0.264559 0.781451
vt 0.165128 0.781451
vt 0.153672 0.782580
vt 0.142215 0.781451
vt 0.131199 0.778109
vt 0.121046 0.772683
vt 0.112147 0.765379
vt 0.104844 0.756480
vt 0.099417 0.746328
vt 0.096075 0.735311
vt 0.094947 0.723855
vt 0.096075 0.712398
vt 0.099417 0.701381
vt 0.104844 0.691229
vt 0.112147 0.682330
vt 0.121046 0.675026
vt 0.142215 0.666258
vt 0.153672 0.665129
vt 0.165128 0.666258
vt 0.176145 0.669600
vt 0.186298 0.675026
vt 0.195197 0.682330
vt 0.202500 0.691229
vt 0.211268 0.712398
vt 0.212397 0.723855
vt 0.211268 0.735311
vt 0.207927 0.746328
vt 0.202500 0.756480
vt 0.195197 0.765379
vt 0.186298 0.772683
vt 0.092500 0.907371
vt 0.276016 0.782580
vt 0.287472 0.781451
vt 0.298489 0.778109
vt 0.308642 0.772683
vt 0.317541 0.765379
vt 0.324844 0.756480
vt 0.330271 0.746328
vt 0.333613 0.735311
vt 0.334741 0.723855
vt 0.333613 0.712398
vt 0.330271 0.701381
vt 0.324844 0.691229
vt 0.317541 0.682330
vt 0.308642 0.675026
vt 0.298489 0.669600
vt 0.276016 0.665129
vt 0.264559 0.666258
vt 0.253543 0.669600
vt 0.243390 0.675026
vt 0.234491 0.682330
vt 0.227188 0.691229
vt 0.221761 0.701381
vt 0.217291 0.723855
vt 0.218419 0.735311
vt 0.221761 0.746328
vt 0.227188 0.756480
vt 0.234491 0.765379
vt 0.243390 0.772683
vt 0.253543 0.778109
vt 0.925124 0.067063
vt 0.629563 0.362624
vt 0.629563 0.067063
vt 0.925124 0.362624
s 1
usemtl マテリアル
f 2/1/1 3/2/1 1/3/1
f 4/4/2 5/5/2 3/2/2
f 6/6/3 7/7/3 5/5/3
f 8/8/4 9/9/4 7/7/4
f 10/10/5 11/11/5 9/9/5
f 12/12/6 13/13/6 11/11/6
f 14/14/7 15/15/7 13/13/7
f 16/16/8 17/17/8 15/15/8
f 18/18/9 19/19/9 17/17/9
f 20/20/10 21/21/10 19/19/10
f 22/22/11 23/23/11 21/21/11
f 24/24/12 25/25/12 23/23/12
f 26/26/13 27/27/13 25/25/13
f 28/28/14 29/29/14 27/27/14
f 30/30/15 31/31/15 29/29/15
f 32/32/16 33/33/16 31/31/16
f 34/34/17 35/35/17 33/33/17
f 36/36/18 37/37/18 35/35/18
f 38/38/19 39/39/19 37/37/19
f 40/40/20 41/41/20 39/39/20
f 42/42/21 43/43/21 41/41/21
f 44/44/22 45/45/22 43/43/22
f 46/46/23 47/47/23 45/45/23
f 48/48/24 49/49/24 47/47/24
f 50/50/25 51/51/25 49/49/25
f 52/52/26 53/53/26 51/51/26
f 54/54/27 55/55/27 53/53/27
f 56/56/28 57/57/28 55/55/28
f 58/58/29 59/59/29 57/57/29
f 60/60/30 61/61/30 59/59/30
f 38/62/31 22/63/31 6/64/31
f 62/65/32 63/66/32 61/61/32
f 64/67/33 1/68/33 63/66/33
f 31/69/34 47/70/34 63/71/34
f 2/1/1 4/4/1 3/2/1
f 4/4/2 6/6/2 5/5/2
f 6/6/3 8/8/3 7/7/3
f 8/8/4 10/10/4 9/9/4
f 10/10/5 12/12/5 11/11/5
f 12/12/6 14/14/6 13/13/6
f 14/14/7 16/16/7 15/15/7
f 16/16/8 18/18/8 17/17/8
f 18/18/9 20/20/9 19/19/9
f 20/20/10 22/22/10 21/21/10
f 22/22/11 24/24/11 23/23/11
f 24/24/12 26/26/12 25/25/12
f 26/26/13 28/28/13 27/27/13
f 28/28/14 30/30/14 29/29/14
f 30/30/15 32/32/15 31/31/15
f 32/32/16 34/34/16 33/33/16
f 34/34/17 36/36/17 35/35/17
f 36/36/18 38/38/18 37/37/18
f 38/38/19 40/40/19 39/39/19
f 40/40/20 42/42/20 41/41/20
f 42/42/21 44/44/21 43/43/21
f 44/44/22 46/46/22 45/45/22
f 46/46/23 48/48/23 47/47/23
f 48/48/24 50/50/24 49/49/24
f 50/50/25 52/52/25 51/51/25
f 52/52/26 54/54/26 53/53/26
f 54/54/27 56/56/27 55/55/27
f 56/56/28 58/58/28 57/57/28
f 58/58/29 60/60/29 59/59/29
f 60/60/30 62/65/30 61/61/30
f 6/64/31 4/72/31 2/73/31
f 2/73/31 64/74/35 62/75/31
f 62/75/31 60/76/31 58/77/31
f 58/77/31 56/78/36 54/79/31
f 54/79/31 52/80/31 50/81/31
f 50/81/31 48/82/31 46/83/31
f 46/83/31 44/84/35 42/85/31
f 42/85/31 40/86/31 38/62/31
f 38/62/31 36/87/37 34/88/31
f 34/88/31 32/89/31 30/90/31
f 30/90/31 28/91/38 26/92/31
f 26/92/31 24/93/38 22/63/31
f 22/63/31 20/94/31 18/95/31
f 18/95/31 16/96/31 14/97/31
f 14/97/31 12/98/37 10/99/31
f 10/99/31 8/100/37 6/64/31
f 6/64/31 2/73/31 62/75/31
f 62/75/31 58/77/31 54/79/31
f 54/79/31 50/81/31 46/83/31
f 46/83/31 42/85/31 38/62/31
f 38/62/31 34/88/31 30/90/31
f 30/90/31 26/92/31 22/63/31
f 22/63/31 18/95/31 14/97/31
f 14/97/31 10/99/31 6/64/31
f 6/64/31 62/75/31 54/79/31
f 54/79/31 46/83/31 38/62/31
f 38/62/31 30/90/31 22/63/31
f 22/63/31 14/97/31 6/64/31
f 6/64/31 54/79/31 38/62/31
f 62/65/32 64/67/32 63/66/32
f 64/67/33 2/101/33 1/68/33
f 63/71/34 1/102/34 3/103/34
f 3/103/34 5/104/39 7/105/34
f 7/105/34 9/106/40 11/107/34
f 11/107/34 13/108/34 15/109/34
f 15/109/34 17/110/34 19/111/34
f 19/111/34 21/112/39 23/113/34
f 23/113/34 25/114/34 27/115/34
f 27/115/34 29/116/40 31/69/34
f 31/69/34 33/117/34 35/118/34
f 35/118/34 37/119/40 39/120/34
f 39/120/34 41/121/40 43/122/34
f 43/122/34 45/123/34 47/70/34
f 47/70/34 49/124/34 51/125/34
f 51/125/34 53/126/34 55/127/34
f 55/127/34 57/128/39 59/129/34
f 59/129/34 61/130/39 63/71/34
f 63/71/34 3/103/34 7/105/34
f 7/105/34 11/107/34 15/109/34
f 15/109/34 19/111/34 23/113/34
f 23/113/34 27/115/34 31/69/34
f 31/69/34 35/118/34 39/120/34
f 39/120/34 43/122/34 47/70/34
f 47/70/34 51/125/34 55/127/34
f 55/127/34 59/129/34 63/71/34
f 63/71/34 7/105/34 15/109/34
f 15/109/34 23/113/34 31/69/34
f 31/69/34 39/120/34 47/70/34
f 47/70/34 55/127/34 63/71/34
f 63/71/34 15/109/34 31/69/34
usemtl マテリアル.001
f 66/131/41 67/132/41 65/133/41
f 66/131/41 68/134/41 67/132/41
