# Blender 4.4.1
# www.blender.org
mtllib CountGO.mtl
o テキスト
v 0.421487 0.100000 -0.346742
v 0.472310 0.100000 -0.337269
v 0.519266 0.100000 -0.322031
v 0.562148 0.100000 -0.301481
v 0.600753 0.100000 -0.276071
v 0.634875 0.100000 -0.246250
v 0.664310 0.100000 -0.212471
v 0.688852 0.100000 -0.175185
v 0.708297 0.100000 -0.134844
v 0.722440 0.100000 -0.091898
v 0.731076 0.100000 -0.046800
v 0.734000 0.100000 0.000000
v 0.731151 0.100000 0.045539
v 0.722708 0.100000 0.089815
v 0.708828 0.100000 0.132313
v 0.689667 0.100000 0.172519
v 0.665380 0.100000 0.209919
v 0.636125 0.100000 0.244000
v 0.602057 0.100000 0.274248
v 0.563333 0.100000 0.300148
v 0.520109 0.100000 0.321188
v 0.472542 0.100000 0.336852
v 0.420786 0.100000 0.346627
v 0.365000 0.100000 0.350000
v 0.310992 0.100000 0.346646
v 0.260606 0.100000 0.336921
v 0.214047 0.100000 0.321328
v 0.171518 0.100000 0.300370
v 0.133226 0.100000 0.274552
v 0.099375 0.100000 0.244375
v 0.070170 0.100000 0.210344
v 0.045815 0.100000 0.172963
v 0.026516 0.100000 0.132734
v 0.012477 0.100000 0.090162
v 0.003903 0.100000 0.045749
v 0.001000 0.100000 0.000000
v 0.003981 0.100000 -0.046590
v 0.012764 0.100000 -0.091551
v 0.027109 0.100000 -0.134422
v 0.046778 0.100000 -0.174741
v 0.071529 0.100000 -0.212046
v 0.101125 0.100000 -0.245875
v 0.135325 0.100000 -0.275767
v 0.173889 0.100000 -0.301259
v 0.216578 0.100000 -0.321891
v 0.263153 0.100000 -0.337199
v 0.313373 0.100000 -0.346723
v 0.367000 0.100000 -0.350000
v 0.404374 0.100000 0.257730
v 0.439829 0.100000 0.251088
v 0.473109 0.100000 0.240328
v 0.503963 0.100000 0.225704
v 0.532136 0.100000 0.207468
v 0.557375 0.100000 0.185875
v 0.579427 0.100000 0.161178
v 0.598037 0.100000 0.133630
v 0.612953 0.100000 0.103484
v 0.623921 0.100000 0.070995
v 0.630688 0.100000 0.036416
v 0.633000 0.100000 0.000000
v 0.630688 0.100000 -0.036626
v 0.623921 0.100000 -0.071343
v 0.612953 0.100000 -0.103906
v 0.598037 0.100000 -0.134074
v 0.579426 0.100000 -0.161603
v 0.557375 0.100000 -0.186250
v 0.532136 0.100000 -0.207772
v 0.503963 0.100000 -0.225926
v 0.473109 0.100000 -0.240469
v 0.439829 0.100000 -0.251157
v 0.404374 0.100000 -0.257749
v 0.367000 0.100000 -0.260000
v 0.329855 0.100000 -0.257749
v 0.294593 0.100000 -0.251157
v 0.261469 0.100000 -0.240469
v 0.230741 0.100000 -0.225926
v 0.202665 0.100000 -0.207772
v 0.177500 0.100000 -0.186250
v 0.155501 0.100000 -0.161603
v 0.136926 0.100000 -0.134074
v 0.122031 0.100000 -0.103906
v 0.111074 0.100000 -0.071343
v 0.104311 0.100000 -0.036626
v 0.102000 0.100000 0.000000
v 0.104311 0.100000 0.036416
v 0.111074 0.100000 0.070995
v 0.122031 0.100000 0.103484
v 0.136926 0.100000 0.133630
v 0.155501 0.100000 0.161178
v 0.177500 0.100000 0.185875
v 0.202666 0.100000 0.207468
v 0.230741 0.100000 0.225704
v 0.261469 0.100000 0.240328
v 0.294593 0.100000 0.251088
v 0.329855 0.100000 0.257730
v 0.367000 0.100000 0.260000
v -0.133418 0.100000 0.303505
v -0.155259 0.100000 0.312037
v -0.176656 0.100000 0.319625
v -0.197741 0.100000 0.326296
v -0.218645 0.100000 0.332079
v -0.239500 0.100000 0.337000
v -0.260439 0.100000 0.341088
v -0.281593 0.100000 0.344370
v -0.303094 0.100000 0.346875
v -0.325074 0.100000 0.348630
v -0.347666 0.100000 0.349662
v -0.371000 0.100000 0.350000
v -0.422047 0.100000 0.347012
v -0.470458 0.100000 0.338259
v -0.515891 0.100000 0.324062
v -0.558000 0.100000 0.304741
v -0.596443 0.100000 0.280613
v -0.630875 0.100000 0.252000
v -0.660953 0.100000 0.219220
v -0.686333 0.100000 0.182593
v -0.706672 0.100000 0.142438
v -0.721625 0.100000 0.099074
v -0.730849 0.100000 0.052822
v -0.734000 0.100000 0.004000
v -0.730771 0.100000 -0.045189
v -0.721333 0.100000 -0.092014
v -0.706063 0.100000 -0.136109
v -0.685333 0.100000 -0.177111
v -0.659521 0.100000 -0.214655
v -0.629000 0.100000 -0.248375
v -0.594146 0.100000 -0.277908
v -0.555333 0.100000 -0.302889
v -0.512938 0.100000 -0.322953
v -0.467333 0.100000 -0.337736
v -0.418896 0.100000 -0.346873
v -0.368000 0.100000 -0.350000
v -0.348457 0.100000 -0.349718
v -0.329653 0.100000 -0.348829
v -0.311328 0.100000 -0.347266
v -0.293222 0.100000 -0.344963
v -0.275075 0.100000 -0.341855
v -0.256625 0.100000 -0.337875
v -0.237613 0.100000 -0.332958
v -0.217778 0.100000 -0.327037
v -0.196859 0.100000 -0.320047
v -0.174597 0.100000 -0.311921
v -0.150731 0.100000 -0.302594
v -0.125000 0.100000 -0.292000
v -0.125000 0.100000 -0.193000
v -0.145060 0.100000 -0.203561
v -0.165232 0.100000 -0.213241
v -0.185500 0.100000 -0.222031
v -0.205852 0.100000 -0.229926
v -0.226273 0.100000 -0.236918
v -0.246750 0.100000 -0.243000
v -0.267269 0.100000 -0.248166
v -0.287815 0.100000 -0.252407
v -0.308375 0.100000 -0.255719
v -0.328935 0.100000 -0.258093
v -0.349481 0.100000 -0.259522
v -0.370000 0.100000 -0.260000
v -0.406265 0.100000 -0.257691
v -0.440870 0.100000 -0.250944
v -0.473531 0.100000 -0.240031
v -0.503963 0.100000 -0.225222
v -0.531881 0.100000 -0.206788
v -0.557000 0.100000 -0.185000
v -0.579036 0.100000 -0.160128
v -0.597704 0.100000 -0.132444
v -0.612719 0.100000 -0.102219
v -0.623796 0.100000 -0.069722
v -0.630652 0.100000 -0.035226
v -0.633000 0.100000 0.001000
v -0.630663 0.100000 0.038027
v -0.623805 0.100000 0.072963
v -0.612656 0.100000 0.105594
v -0.597444 0.100000 0.135704
v -0.578399 0.100000 0.163078
v -0.555750 0.100000 0.187500
v -0.529726 0.100000 0.208756
v -0.500556 0.100000 0.226630
v -0.468469 0.100000 0.240906
v -0.433694 0.100000 0.251370
v -0.396462 0.100000 0.257807
v -0.357000 0.100000 0.260000
v -0.343852 0.100000 0.259755
v -0.330898 0.100000 0.259042
v -0.318125 0.100000 0.257891
v -0.305519 0.100000 0.256333
v -0.293065 0.100000 0.254401
v -0.280750 0.100000 0.252125
v -0.268560 0.100000 0.249536
v -0.256481 0.100000 0.246667
v -0.244500 0.100000 0.243547
v -0.232602 0.100000 0.240208
v -0.220773 0.100000 0.236682
v -0.209000 0.100000 0.233000
v -0.209000 0.100000 0.093000
v -0.340000 0.100000 0.093000
v -0.340000 0.100000 0.005000
v -0.111000 0.100000 0.005000
v -0.111000 0.100000 0.294000
v 0.421487 -0.100000 -0.346742
v 0.472310 -0.100000 -0.337269
v 0.519266 -0.100000 -0.322031
v 0.562148 -0.100000 -0.301481
v 0.600753 -0.100000 -0.276071
v 0.634875 -0.100000 -0.246250
v 0.664310 -0.100000 -0.212471
v 0.688852 -0.100000 -0.175185
v 0.708297 -0.100000 -0.134844
v 0.722440 -0.100000 -0.091898
v 0.731076 -0.100000 -0.046800
v 0.734000 -0.100000 0.000000
v 0.731151 -0.100000 0.045539
v 0.722708 -0.100000 0.089815
v 0.708828 -0.100000 0.132313
v 0.689667 -0.100000 0.172519
v 0.665380 -0.100000 0.209919
v 0.636125 -0.100000 0.244000
v 0.602057 -0.100000 0.274248
v 0.563333 -0.100000 0.300148
v 0.520109 -0.100000 0.321188
v 0.472542 -0.100000 0.336852
v 0.420786 -0.100000 0.346627
v 0.365000 -0.100000 0.350000
v 0.310992 -0.100000 0.346646
v 0.260606 -0.100000 0.336921
v 0.214047 -0.100000 0.321328
v 0.171518 -0.100000 0.300370
v 0.133226 -0.100000 0.274552
v 0.099375 -0.100000 0.244375
v 0.070170 -0.100000 0.210344
v 0.045815 -0.100000 0.172963
v 0.026516 -0.100000 0.132734
v 0.012477 -0.100000 0.090162
v 0.003903 -0.100000 0.045749
v 0.001000 -0.100000 0.000000
v 0.003981 -0.100000 -0.046590
v 0.012764 -0.100000 -0.091551
v 0.027109 -0.100000 -0.134422
v 0.046778 -0.100000 -0.174741
v 0.071529 -0.100000 -0.212046
v 0.101125 -0.100000 -0.245875
v 0.135325 -0.100000 -0.275767
v 0.173889 -0.100000 -0.301259
v 0.216578 -0.100000 -0.321891
v 0.263153 -0.100000 -0.337199
v 0.313373 -0.100000 -0.346723
v 0.367000 -0.100000 -0.350000
v 0.404374 -0.100000 0.257730
v 0.439829 -0.100000 0.251088
v 0.473109 -0.100000 0.240328
v 0.503963 -0.100000 0.225704
v 0.532136 -0.100000 0.207468
v 0.557375 -0.100000 0.185875
v 0.579427 -0.100000 0.161178
v 0.598037 -0.100000 0.133630
v 0.612953 -0.100000 0.103484
v 0.623921 -0.100000 0.070995
v 0.630688 -0.100000 0.036416
v 0.633000 -0.100000 0.000000
v 0.630688 -0.100000 -0.036626
v 0.623921 -0.100000 -0.071343
v 0.612953 -0.100000 -0.103906
v 0.598037 -0.100000 -0.134074
v 0.579426 -0.100000 -0.161603
v 0.557375 -0.100000 -0.186250
v 0.532136 -0.100000 -0.207772
v 0.503963 -0.100000 -0.225926
v 0.473109 -0.100000 -0.240469
v 0.439829 -0.100000 -0.251157
v 0.404374 -0.100000 -0.257749
v 0.367000 -0.100000 -0.260000
v 0.329855 -0.100000 -0.257749
v 0.294593 -0.100000 -0.251157
v 0.261469 -0.100000 -0.240469
v 0.230741 -0.100000 -0.225926
v 0.202665 -0.100000 -0.207772
v 0.177500 -0.100000 -0.186250
v 0.155501 -0.100000 -0.161603
v 0.136926 -0.100000 -0.134074
v 0.122031 -0.100000 -0.103906
v 0.111074 -0.100000 -0.071343
v 0.104311 -0.100000 -0.036626
v 0.102000 -0.100000 0.000000
v 0.104311 -0.100000 0.036416
v 0.111074 -0.100000 0.070995
v 0.122031 -0.100000 0.103484
v 0.136926 -0.100000 0.133630
v 0.155501 -0.100000 0.161178
v 0.177500 -0.100000 0.185875
v 0.202666 -0.100000 0.207468
v 0.230741 -0.100000 0.225704
v 0.261469 -0.100000 0.240328
v 0.294593 -0.100000 0.251088
v 0.329855 -0.100000 0.257730
v 0.367000 -0.100000 0.260000
v -0.133418 -0.100000 0.303505
v -0.155259 -0.100000 0.312037
v -0.176656 -0.100000 0.319625
v -0.197741 -0.100000 0.326296
v -0.218645 -0.100000 0.332079
v -0.239500 -0.100000 0.337000
v -0.260439 -0.100000 0.341088
v -0.281593 -0.100000 0.344370
v -0.303094 -0.100000 0.346875
v -0.325074 -0.100000 0.348630
v -0.347666 -0.100000 0.349662
v -0.371000 -0.100000 0.350000
v -0.422047 -0.100000 0.347012
v -0.470458 -0.100000 0.338259
v -0.515891 -0.100000 0.324062
v -0.558000 -0.100000 0.304741
v -0.596443 -0.100000 0.280613
v -0.630875 -0.100000 0.252000
v -0.660953 -0.100000 0.219220
v -0.686333 -0.100000 0.182593
v -0.706672 -0.100000 0.142438
v -0.721625 -0.100000 0.099074
v -0.730849 -0.100000 0.052822
v -0.734000 -0.100000 0.004000
v -0.730771 -0.100000 -0.045189
v -0.721333 -0.100000 -0.092014
v -0.706063 -0.100000 -0.136109
v -0.685333 -0.100000 -0.177111
v -0.659521 -0.100000 -0.214655
v -0.629000 -0.100000 -0.248375
v -0.594146 -0.100000 -0.277908
v -0.555333 -0.100000 -0.302889
v -0.512938 -0.100000 -0.322953
v -0.467333 -0.100000 -0.337736
v -0.418896 -0.100000 -0.346873
v -0.368000 -0.100000 -0.350000
v -0.348457 -0.100000 -0.349718
v -0.329653 -0.100000 -0.348829
v -0.311328 -0.100000 -0.347266
v -0.293222 -0.100000 -0.344963
v -0.275075 -0.100000 -0.341855
v -0.256625 -0.100000 -0.337875
v -0.237613 -0.100000 -0.332958
v -0.217778 -0.100000 -0.327037
v -0.196859 -0.100000 -0.320047
v -0.174597 -0.100000 -0.311921
v -0.150731 -0.100000 -0.302594
v -0.125000 -0.100000 -0.292000
v -0.125000 -0.100000 -0.193000
v -0.145060 -0.100000 -0.203561
v -0.165232 -0.100000 -0.213241
v -0.185500 -0.100000 -0.222031
v -0.205852 -0.100000 -0.229926
v -0.226273 -0.100000 -0.236918
v -0.246750 -0.100000 -0.243000
v -0.267269 -0.100000 -0.248166
v -0.287815 -0.100000 -0.252407
v -0.308375 -0.100000 -0.255719
v -0.328935 -0.100000 -0.258093
v -0.349481 -0.100000 -0.259522
v -0.370000 -0.100000 -0.260000
v -0.406265 -0.100000 -0.257691
v -0.440870 -0.100000 -0.250944
v -0.473531 -0.100000 -0.240031
v -0.503963 -0.100000 -0.225222
v -0.531881 -0.100000 -0.206788
v -0.557000 -0.100000 -0.185000
v -0.579036 -0.100000 -0.160128
v -0.597704 -0.100000 -0.132444
v -0.612719 -0.100000 -0.102219
v -0.623796 -0.100000 -0.069722
v -0.630652 -0.100000 -0.035226
v -0.633000 -0.100000 0.001000
v -0.630663 -0.100000 0.038027
v -0.623805 -0.100000 0.072963
v -0.612656 -0.100000 0.105594
v -0.597444 -0.100000 0.135704
v -0.578399 -0.100000 0.163078
v -0.555750 -0.100000 0.187500
v -0.529726 -0.100000 0.208756
v -0.500556 -0.100000 0.226630
v -0.468469 -0.100000 0.240906
v -0.433694 -0.100000 0.251370
v -0.396462 -0.100000 0.257807
v -0.357000 -0.100000 0.260000
v -0.343852 -0.100000 0.259755
v -0.330898 -0.100000 0.259042
v -0.318125 -0.100000 0.257891
v -0.305519 -0.100000 0.256333
v -0.293065 -0.100000 0.254401
v -0.280750 -0.100000 0.252125
v -0.268560 -0.100000 0.249536
v -0.256481 -0.100000 0.246667
v -0.244500 -0.100000 0.243547
v -0.232602 -0.100000 0.240208
v -0.220773 -0.100000 0.236682
v -0.209000 -0.100000 0.233000
v -0.209000 -0.100000 0.093000
v -0.340000 -0.100000 0.093000
v -0.340000 -0.100000 0.005000
v -0.111000 -0.100000 0.005000
v -0.111000 -0.100000 0.294000
v -0.133418 -0.100000 0.303505
v -0.133418 0.100000 0.303505
v -0.155259 -0.100000 0.312037
v -0.155259 0.100000 0.312037
v -0.176656 -0.100000 0.319625
v -0.176656 0.100000 0.319625
v -0.197741 -0.100000 0.326296
v -0.197741 0.100000 0.326296
v -0.218645 -0.100000 0.332079
v -0.218645 0.100000 0.332079
v -0.239500 -0.100000 0.337000
v -0.239500 0.100000 0.337000
v -0.260439 -0.100000 0.341088
v -0.260439 0.100000 0.341088
v -0.281593 -0.100000 0.344370
v -0.281593 0.100000 0.344370
v -0.303094 -0.100000 0.346875
v -0.303094 0.100000 0.346875
v -0.325074 -0.100000 0.348630
v -0.325074 0.100000 0.348630
v -0.347666 -0.100000 0.349662
v -0.347666 0.100000 0.349662
v -0.371000 -0.100000 0.350000
v -0.371000 0.100000 0.350000
v -0.422047 -0.100000 0.347012
v -0.422047 0.100000 0.347012
v -0.470458 -0.100000 0.338259
v -0.470458 0.100000 0.338259
v -0.515891 -0.100000 0.324062
v -0.515891 0.100000 0.324062
v -0.558000 -0.100000 0.304741
v -0.558000 0.100000 0.304741
v -0.596443 -0.100000 0.280613
v -0.596443 0.100000 0.280613
v -0.630875 -0.100000 0.252000
v -0.630875 0.100000 0.252000
v -0.660953 -0.100000 0.219220
v -0.660953 0.100000 0.219220
v -0.686333 -0.100000 0.182593
v -0.686333 0.100000 0.182593
v -0.706672 -0.100000 0.142438
v -0.706672 0.100000 0.142438
v -0.721625 -0.100000 0.099074
v -0.721625 0.100000 0.099074
v -0.730849 -0.100000 0.052822
v -0.730849 0.100000 0.052822
v -0.734000 -0.100000 0.004000
v -0.734000 0.100000 0.004000
v -0.730771 -0.100000 -0.045189
v -0.730771 0.100000 -0.045189
v -0.721333 -0.100000 -0.092014
v -0.721333 0.100000 -0.092014
v -0.706063 -0.100000 -0.136109
v -0.706063 0.100000 -0.136109
v -0.685333 -0.100000 -0.177111
v -0.685333 0.100000 -0.177111
v -0.659521 -0.100000 -0.214655
v -0.659521 0.100000 -0.214655
v -0.629000 -0.100000 -0.248375
v -0.629000 0.100000 -0.248375
v -0.594146 -0.100000 -0.277908
v -0.594146 0.100000 -0.277908
v -0.555333 -0.100000 -0.302889
v -0.555333 0.100000 -0.302889
v -0.512938 -0.100000 -0.322953
v -0.512938 0.100000 -0.322953
v -0.467333 -0.100000 -0.337736
v -0.467333 0.100000 -0.337736
v -0.418896 -0.100000 -0.346873
v -0.418896 0.100000 -0.346873
v -0.368000 -0.100000 -0.350000
v -0.368000 0.100000 -0.350000
v -0.348457 -0.100000 -0.349718
v -0.348457 0.100000 -0.349718
v -0.329653 -0.100000 -0.348829
v -0.329653 0.100000 -0.348829
v -0.311328 -0.100000 -0.347266
v -0.311328 0.100000 -0.347266
v -0.293222 -0.100000 -0.344963
v -0.293222 0.100000 -0.344963
v -0.275075 -0.100000 -0.341855
v -0.275075 0.100000 -0.341855
v -0.256625 -0.100000 -0.337875
v -0.256625 0.100000 -0.337875
v -0.237613 -0.100000 -0.332958
v -0.237613 0.100000 -0.332958
v -0.217778 -0.100000 -0.327037
v -0.217778 0.100000 -0.327037
v -0.196859 -0.100000 -0.320047
v -0.196859 0.100000 -0.320047
v -0.174597 -0.100000 -0.311921
v -0.174597 0.100000 -0.311921
v -0.150731 -0.100000 -0.302594
v -0.150731 0.100000 -0.302594
v -0.125000 -0.100000 -0.292000
v -0.125000 0.100000 -0.292000
v -0.125000 -0.100000 -0.193000
v -0.125000 0.100000 -0.193000
v -0.145060 -0.100000 -0.203561
v -0.145060 0.100000 -0.203561
v -0.165232 -0.100000 -0.213241
v -0.165232 0.100000 -0.213241
v -0.185500 -0.100000 -0.222031
v -0.185500 0.100000 -0.222031
v -0.205852 -0.100000 -0.229926
v -0.205852 0.100000 -0.229926
v -0.226273 -0.100000 -0.236918
v -0.226273 0.100000 -0.236918
v -0.246750 -0.100000 -0.243000
v -0.246750 0.100000 -0.243000
v -0.267269 -0.100000 -0.248166
v -0.267269 0.100000 -0.248166
v -0.287815 -0.100000 -0.252407
v -0.287815 0.100000 -0.252407
v -0.308375 -0.100000 -0.255719
v -0.308375 0.100000 -0.255719
v -0.328935 -0.100000 -0.258093
v -0.328935 0.100000 -0.258093
v -0.349481 -0.100000 -0.259522
v -0.349481 0.100000 -0.259522
v -0.370000 -0.100000 -0.260000
v -0.370000 0.100000 -0.260000
v -0.406265 -0.100000 -0.257691
v -0.406265 0.100000 -0.257691
v -0.440870 -0.100000 -0.250944
v -0.440870 0.100000 -0.250944
v -0.473531 -0.100000 -0.240031
v -0.473531 0.100000 -0.240031
v -0.503963 -0.100000 -0.225222
v -0.503963 0.100000 -0.225222
v -0.531881 -0.100000 -0.206788
v -0.531881 0.100000 -0.206788
v -0.557000 -0.100000 -0.185000
v -0.557000 0.100000 -0.185000
v -0.579036 -0.100000 -0.160128
v -0.579036 0.100000 -0.160128
v -0.597704 -0.100000 -0.132444
v -0.597704 0.100000 -0.132444
v -0.612719 -0.100000 -0.102219
v -0.612719 0.100000 -0.102219
v -0.623796 -0.100000 -0.069722
v -0.623796 0.100000 -0.069722
v -0.630652 -0.100000 -0.035226
v -0.630652 0.100000 -0.035226
v -0.633000 -0.100000 0.001000
v -0.633000 0.100000 0.001000
v -0.630663 -0.100000 0.038027
v -0.630663 0.100000 0.038027
v -0.623805 -0.100000 0.072963
v -0.623805 0.100000 0.072963
v -0.612656 -0.100000 0.105594
v -0.612656 0.100000 0.105594
v -0.597444 -0.100000 0.135704
v -0.597444 0.100000 0.135704
v -0.578399 -0.100000 0.163078
v -0.578399 0.100000 0.163078
v -0.555750 -0.100000 0.187500
v -0.555750 0.100000 0.187500
v -0.529726 -0.100000 0.208756
v -0.529726 0.100000 0.208756
v -0.500556 -0.100000 0.226630
v -0.500556 0.100000 0.226630
v -0.468469 -0.100000 0.240906
v -0.468469 0.100000 0.240906
v -0.433694 -0.100000 0.251370
v -0.433694 0.100000 0.251370
v -0.396462 -0.100000 0.257807
v -0.396462 0.100000 0.257807
v -0.357000 -0.100000 0.260000
v -0.357000 0.100000 0.260000
v -0.343852 -0.100000 0.259755
v -0.343852 0.100000 0.259755
v -0.330898 -0.100000 0.259042
v -0.330898 0.100000 0.259042
v -0.318125 -0.100000 0.257891
v -0.318125 0.100000 0.257891
v -0.305519 -0.100000 0.256333
v -0.305519 0.100000 0.256333
v -0.293065 -0.100000 0.254401
v -0.293065 0.100000 0.254401
v -0.280750 -0.100000 0.252125
v -0.280750 0.100000 0.252125
v -0.268560 -0.100000 0.249536
v -0.268560 0.100000 0.249536
v -0.256481 -0.100000 0.246667
v -0.256481 0.100000 0.246667
v -0.244500 -0.100000 0.243547
v -0.244500 0.100000 0.243547
v -0.232602 -0.100000 0.240208
v -0.232602 0.100000 0.240208
v -0.220773 -0.100000 0.236682
v -0.220773 0.100000 0.236682
v -0.209000 -0.100000 0.233000
v -0.209000 0.100000 0.233000
v -0.209000 -0.100000 0.093000
v -0.209000 0.100000 0.093000
v -0.340000 -0.100000 0.093000
v -0.340000 0.100000 0.093000
v -0.340000 -0.100000 0.005000
v -0.340000 0.100000 0.005000
v -0.111000 -0.100000 0.005000
v -0.111000 0.100000 0.005000
v -0.111000 -0.100000 0.294000
v -0.111000 0.100000 0.294000
v 0.421487 -0.100000 -0.346742
v 0.421487 0.100000 -0.346742
v 0.472310 -0.100000 -0.337269
v 0.472310 0.100000 -0.337269
v 0.519266 -0.100000 -0.322031
v 0.519266 0.100000 -0.322031
v 0.562148 -0.100000 -0.301481
v 0.562148 0.100000 -0.301481
v 0.600753 -0.100000 -0.276071
v 0.600753 0.100000 -0.276071
v 0.634875 -0.100000 -0.246250
v 0.634875 0.100000 -0.246250
v 0.664310 -0.100000 -0.212471
v 0.664310 0.100000 -0.212471
v 0.688852 -0.100000 -0.175185
v 0.688852 0.100000 -0.175185
v 0.708297 -0.100000 -0.134844
v 0.708297 0.100000 -0.134844
v 0.722440 -0.100000 -0.091898
v 0.722440 0.100000 -0.091898
v 0.731076 -0.100000 -0.046800
v 0.731076 0.100000 -0.046800
v 0.734000 -0.100000 0.000000
v 0.734000 0.100000 0.000000
v 0.731151 -0.100000 0.045539
v 0.731151 0.100000 0.045539
v 0.722708 -0.100000 0.089815
v 0.722708 0.100000 0.089815
v 0.708828 -0.100000 0.132313
v 0.708828 0.100000 0.132313
v 0.689667 -0.100000 0.172519
v 0.689667 0.100000 0.172519
v 0.665380 -0.100000 0.209919
v 0.665380 0.100000 0.209919
v 0.636125 -0.100000 0.244000
v 0.636125 0.100000 0.244000
v 0.602057 -0.100000 0.274248
v 0.602057 0.100000 0.274248
v 0.563333 -0.100000 0.300148
v 0.563333 0.100000 0.300148
v 0.520109 -0.100000 0.321188
v 0.520109 0.100000 0.321188
v 0.472542 -0.100000 0.336852
v 0.472542 0.100000 0.336852
v 0.420786 -0.100000 0.346627
v 0.420786 0.100000 0.346627
v 0.365000 -0.100000 0.350000
v 0.365000 0.100000 0.350000
v 0.310992 -0.100000 0.346646
v 0.310992 0.100000 0.346646
v 0.260606 -0.100000 0.336921
v 0.260606 0.100000 0.336921
v 0.214047 -0.100000 0.321328
v 0.214047 0.100000 0.321328
v 0.171518 -0.100000 0.300370
v 0.171518 0.100000 0.300370
v 0.133226 -0.100000 0.274552
v 0.133226 0.100000 0.274552
v 0.099375 -0.100000 0.244375
v 0.099375 0.100000 0.244375
v 0.070170 -0.100000 0.210344
v 0.070170 0.100000 0.210344
v 0.045815 -0.100000 0.172963
v 0.045815 0.100000 0.172963
v 0.026516 -0.100000 0.132734
v 0.026516 0.100000 0.132734
v 0.012477 -0.100000 0.090162
v 0.012477 0.100000 0.090162
v 0.003903 -0.100000 0.045749
v 0.003903 0.100000 0.045749
v 0.001000 -0.100000 0.000000
v 0.001000 0.100000 0.000000
v 0.003981 -0.100000 -0.046590
v 0.003981 0.100000 -0.046590
v 0.012764 -0.100000 -0.091551
v 0.012764 0.100000 -0.091551
v 0.027109 -0.100000 -0.134422
v 0.027109 0.100000 -0.134422
v 0.046778 -0.100000 -0.174741
v 0.046778 0.100000 -0.174741
v 0.071529 -0.100000 -0.212046
v 0.071529 0.100000 -0.212046
v 0.101125 -0.100000 -0.245875
v 0.101125 0.100000 -0.245875
v 0.135325 -0.100000 -0.275767
v 0.135325 0.100000 -0.275767
v 0.173889 -0.100000 -0.301259
v 0.173889 0.100000 -0.301259
v 0.216578 -0.100000 -0.321891
v 0.216578 0.100000 -0.321891
v 0.263153 -0.100000 -0.337199
v 0.263153 0.100000 -0.337199
v 0.313373 -0.100000 -0.346723
v 0.313373 0.100000 -0.346723
v 0.367000 -0.100000 -0.350000
v 0.367000 0.100000 -0.350000
v 0.404374 -0.100000 0.257730
v 0.404374 0.100000 0.257730
v 0.439829 -0.100000 0.251088
v 0.439829 0.100000 0.251088
v 0.473109 -0.100000 0.240328
v 0.473109 0.100000 0.240328
v 0.503963 -0.100000 0.225704
v 0.503963 0.100000 0.225704
v 0.532136 -0.100000 0.207468
v 0.532136 0.100000 0.207468
v 0.557375 -0.100000 0.185875
v 0.557375 0.100000 0.185875
v 0.579427 -0.100000 0.161178
v 0.579427 0.100000 0.161178
v 0.598037 -0.100000 0.133630
v 0.598037 0.100000 0.133630
v 0.612953 -0.100000 0.103484
v 0.612953 0.100000 0.103484
v 0.623921 -0.100000 0.070995
v 0.623921 0.100000 0.070995
v 0.630688 -0.100000 0.036416
v 0.630688 0.100000 0.036416
v 0.633000 -0.100000 0.000000
v 0.633000 0.100000 0.000000
v 0.630688 -0.100000 -0.036626
v 0.630688 0.100000 -0.036626
v 0.623921 -0.100000 -0.071343
v 0.623921 0.100000 -0.071343
v 0.612953 -0.100000 -0.103906
v 0.612953 0.100000 -0.103906
v 0.598037 -0.100000 -0.134074
v 0.598037 0.100000 -0.134074
v 0.579426 -0.100000 -0.161603
v 0.579426 0.100000 -0.161603
v 0.557375 -0.100000 -0.186250
v 0.557375 0.100000 -0.186250
v 0.532136 -0.100000 -0.207772
v 0.532136 0.100000 -0.207772
v 0.503963 -0.100000 -0.225926
v 0.503963 0.100000 -0.225926
v 0.473109 -0.100000 -0.240469
v 0.473109 0.100000 -0.240469
v 0.439829 -0.100000 -0.251157
v 0.439829 0.100000 -0.251157
v 0.404374 -0.100000 -0.257749
v 0.404374 0.100000 -0.257749
v 0.367000 -0.100000 -0.260000
v 0.367000 0.100000 -0.260000
v 0.329855 -0.100000 -0.257749
v 0.329855 0.100000 -0.257749
v 0.294593 -0.100000 -0.251157
v 0.294593 0.100000 -0.251157
v 0.261469 -0.100000 -0.240469
v 0.261469 0.100000 -0.240469
v 0.230741 -0.100000 -0.225926
v 0.230741 0.100000 -0.225926
v 0.202665 -0.100000 -0.207772
v 0.202665 0.100000 -0.207772
v 0.177500 -0.100000 -0.186250
v 0.177500 0.100000 -0.186250
v 0.155501 -0.100000 -0.161603
v 0.155501 0.100000 -0.161603
v 0.136926 -0.100000 -0.134074
v 0.136926 0.100000 -0.134074
v 0.122031 -0.100000 -0.103906
v 0.122031 0.100000 -0.103906
v 0.111074 -0.100000 -0.071343
v 0.111074 0.100000 -0.071343
v 0.104311 -0.100000 -0.036626
v 0.104311 0.100000 -0.036626
v 0.102000 -0.100000 0.000000
v 0.102000 0.100000 0.000000
v 0.104311 -0.100000 0.036416
v 0.104311 0.100000 0.036416
v 0.111074 -0.100000 0.070995
v 0.111074 0.100000 0.070995
v 0.122031 -0.100000 0.103484
v 0.122031 0.100000 0.103484
v 0.136926 -0.100000 0.133630
v 0.136926 0.100000 0.133630
v 0.155501 -0.100000 0.161178
v 0.155501 0.100000 0.161178
v 0.177500 -0.100000 0.185875
v 0.177500 0.100000 0.185875
v 0.202666 -0.100000 0.207468
v 0.202666 0.100000 0.207468
v 0.230741 -0.100000 0.225704
v 0.230741 0.100000 0.225704
v 0.261469 -0.100000 0.240328
v 0.261469 0.100000 0.240328
v 0.294593 -0.100000 0.251088
v 0.294593 0.100000 0.251088
v 0.329855 -0.100000 0.257730
v 0.329855 0.100000 0.257730
v 0.367000 -0.100000 0.260000
v 0.367000 0.100000 0.260000
vn -0.0000 1.0000 -0.0000
vn -0.0000 -1.0000 -0.0000
vn 0.3771 -0.0000 0.9262
vn 0.3491 -0.0000 0.9371
vn 0.3180 -0.0000 0.9481
vn 0.2842 -0.0000 0.9588
vn 0.2482 -0.0000 0.9687
vn 0.2107 -0.0000 0.9776
vn 0.1725 -0.0000 0.9850
vn 0.1345 -0.0000 0.9909
vn 0.0977 -0.0000 0.9952
vn 0.0626 -0.0000 0.9980
vn 0.0301 -0.0000 0.9995
vn -0.0220 -0.0000 0.9998
vn -0.1184 -0.0000 0.9930
vn -0.2385 -0.0000 0.9711
vn -0.3584 -0.0000 0.9336
vn -0.4753 -0.0000 0.8798
vn -0.5867 -0.0000 0.8098
vn -0.6895 -0.0000 0.7242
vn -0.7812 -0.0000 0.6243
vn -0.8590 -0.0000 0.5119
vn -0.9209 -0.0000 0.3898
vn -0.9652 -0.0000 0.2614
vn -0.9915 -0.0000 0.1303
vn -1.0000 -0.0000 -0.0005
vn -0.9913 -0.0000 -0.1318
vn -0.9648 -0.0000 -0.2630
vn -0.9208 -0.0000 -0.3901
vn -0.8602 -0.0000 -0.5100
vn -0.7845 -0.0000 -0.6202
vn -0.6955 -0.0000 -0.7186
vn -0.5951 -0.0000 -0.8036
vn -0.4855 -0.0000 -0.8742
vn -0.3688 -0.0000 -0.9295
vn -0.2474 -0.0000 -0.9689
vn -0.1236 -0.0000 -0.9923
vn -0.0235 -0.0000 -0.9997
vn 0.0308 -0.0000 -0.9995
vn 0.0661 -0.0000 -0.9978
vn 0.1056 -0.0000 -0.9944
vn 0.1475 -0.0000 -0.9891
vn 0.1899 -0.0000 -0.9818
vn 0.2307 -0.0000 -0.9730
vn 0.2683 -0.0000 -0.9633
vn 0.3015 -0.0000 -0.9535
vn 0.3299 -0.0000 -0.9440
vn 0.3535 -0.0000 -0.9355
vn 0.3724 -0.0000 -0.9281
vn 0.8309 -0.0000 -0.5564
vn 0.5168 -0.0000 0.8561
vn -0.4493 -0.0000 0.8934
vn -0.4153 -0.0000 0.9097
vn -0.3798 -0.0000 0.9250
vn -0.3429 -0.0000 0.9394
vn -0.3044 -0.0000 0.9525
vn -0.2645 -0.0000 0.9644
vn -0.2232 -0.0000 0.9748
vn -0.1806 -0.0000 0.9835
vn -0.1369 -0.0000 0.9906
vn -0.0921 -0.0000 0.9958
vn -0.0464 -0.0000 0.9989
vn 0.0201 -0.0000 0.9998
vn 0.1277 -0.0000 0.9918
vn 0.2547 -0.0000 0.9670
vn 0.3780 -0.0000 0.9258
vn 0.4953 -0.0000 0.8687
vn 0.6044 -0.0000 0.7967
vn 0.7034 -0.0000 0.7108
vn 0.7905 -0.0000 0.6124
vn 0.8642 -0.0000 0.5031
vn 0.9231 -0.0000 0.3846
vn 0.9658 -0.0000 0.2593
vn 0.9915 -0.0000 0.1301
vn 1.0000 -0.0000 0.0009
vn 0.9918 -0.0000 -0.1281
vn 0.9660 -0.0000 -0.2586
vn 0.9216 -0.0000 -0.3881
vn 0.8588 -0.0000 -0.5123
vn 0.7790 -0.0000 -0.6271
vn 0.6845 -0.0000 -0.7290
vn 0.5788 -0.0000 -0.8154
vn 0.4655 -0.0000 -0.8851
vn 0.3480 -0.0000 -0.9375
vn 0.2297 -0.0000 -0.9733
vn 0.1131 -0.0000 -0.9936
vn 0.0185 -0.0000 -0.9998
vn -0.0368 -0.0000 -0.9993
vn -0.0724 -0.0000 -0.9974
vn -0.1062 -0.0000 -0.9943
vn -0.1380 -0.0000 -0.9904
vn -0.1676 -0.0000 -0.9859
vn -0.1947 -0.0000 -0.9809
vn -0.2195 -0.0000 -0.9756
vn -0.2416 -0.0000 -0.9704
vn -0.2611 -0.0000 -0.9653
vn -0.2779 -0.0000 -0.9606
vn -0.2921 -0.0000 -0.9564
vn -0.8058 -0.0000 -0.5922
vn -0.7071 -0.0000 0.7071
vn -0.7071 -0.0000 -0.7071
vn 0.7071 -0.0000 -0.7071
vn 0.8338 -0.0000 0.5521
vn 0.1217 -0.0000 -0.9926
vn 0.2465 -0.0000 -0.9692
vn 0.3712 -0.0000 -0.9285
vn 0.4921 -0.0000 -0.8705
vn 0.6053 -0.0000 -0.7960
vn 0.7076 -0.0000 -0.7066
vn 0.7964 -0.0000 -0.6048
vn 0.8700 -0.0000 -0.4931
vn 0.9273 -0.0000 -0.3743
vn 0.9680 -0.0000 -0.2510
vn 0.9921 -0.0000 -0.1255
vn 1.0000 -0.0000 -0.0000
vn 0.9921 -0.0000 0.1251
vn 0.9684 -0.0000 0.2494
vn 0.9286 -0.0000 0.3711
vn 0.8726 -0.0000 0.4885
vn 0.8005 -0.0000 0.5993
vn 0.7130 -0.0000 0.7012
vn 0.6114 -0.0000 0.7913
vn 0.4980 -0.0000 0.8672
vn 0.3761 -0.0000 0.9266
vn 0.2497 -0.0000 0.9683
vn 0.1232 -0.0000 0.9924
vn -0.0008 -0.0000 1.0000
vn -0.1260 -0.0000 0.9920
vn -0.2541 -0.0000 0.9672
vn -0.3807 -0.0000 0.9247
vn -0.5017 -0.0000 0.8650
vn -0.6136 -0.0000 0.7896
vn -0.7137 -0.0000 0.7004
vn -0.8001 -0.0000 0.5999
vn -0.8716 -0.0000 0.4902
vn -0.9276 -0.0000 0.3736
vn -0.9678 -0.0000 0.2519
vn -0.9919 -0.0000 0.1267
vn -1.0000 -0.0000 -0.0003
vn -0.9918 -0.0000 -0.1281
vn -0.9669 -0.0000 -0.2551
vn -0.9255 -0.0000 -0.3787
vn -0.8679 -0.0000 -0.4967
vn -0.7947 -0.0000 -0.6070
vn -0.7069 -0.0000 -0.7073
vn -0.6061 -0.0000 -0.7954
vn -0.4944 -0.0000 -0.8692
vn -0.3745 -0.0000 -0.9272
vn -0.2498 -0.0000 -0.9683
vn -0.1239 -0.0000 -0.9923
vn -0.0007 -0.0000 -1.0000
vn -0.1226 -0.0000 -0.9925
vn -0.2464 -0.0000 -0.9692
vn -0.3687 -0.0000 -0.9295
vn -0.4869 -0.0000 -0.8735
vn -0.5981 -0.0000 -0.8015
vn -0.6996 -0.0000 -0.7145
vn -0.7891 -0.0000 -0.6143
vn -0.8644 -0.0000 -0.5028
vn -0.9239 -0.0000 -0.3825
vn -0.9665 -0.0000 -0.2565
vn -0.9918 -0.0000 -0.1280
vn -1.0000 -0.0000 -0.0002
vn -0.9918 -0.0000 0.1274
vn -0.9667 -0.0000 0.2558
vn -0.9241 -0.0000 0.3821
vn -0.8644 -0.0000 0.5028
vn -0.7887 -0.0000 0.6148
vn -0.6986 -0.0000 0.7155
vn -0.5966 -0.0000 0.8025
vn -0.4851 -0.0000 0.8745
vn -0.3668 -0.0000 0.9303
vn -0.2448 -0.0000 0.9696
vn -0.1217 -0.0000 0.9926
vn 0.0002 -0.0000 1.0000
vn 0.1224 -0.0000 0.9925
vn 0.2459 -0.0000 0.9693
vn 0.3682 -0.0000 0.9297
vn 0.4864 -0.0000 0.8737
vn 0.5978 -0.0000 0.8016
vn 0.6996 -0.0000 0.7146
vn 0.7893 -0.0000 0.6140
vn 0.8648 -0.0000 0.5022
vn 0.9243 -0.0000 0.3817
vn 0.9668 -0.0000 0.2556
vn 0.9919 -0.0000 0.1274
vn 1.0000 -0.0000 -0.0002
vn 0.9918 -0.0000 -0.1279
vn 0.9666 -0.0000 -0.2563
vn 0.9241 -0.0000 -0.3821
vn 0.8648 -0.0000 -0.5022
vn 0.7897 -0.0000 -0.6135
vn 0.7005 -0.0000 -0.7136
vn 0.5993 -0.0000 -0.8005
vn 0.4883 -0.0000 -0.8727
vn 0.3701 -0.0000 -0.9290
vn 0.2475 -0.0000 -0.9689
vn 0.1233 -0.0000 -0.9924
vn 0.0002 -0.0000 -1.0000
vt 0.484211 0.000000
vt 0.000000 0.000000
vt 0.494737 0.000000
vt 0.010526 0.000000
vt 0.473684 0.000000
vt 0.021053 0.000000
vt 0.463158 0.000000
vt 0.031579 0.000000
vt 0.452632 0.000000
vt 0.042105 0.000000
vt 0.442105 0.000000
vt 0.052632 0.000000
vt 0.431579 0.000000
vt 0.747368 0.000000
vt 0.757895 0.000000
vt 0.736842 0.000000
vt 0.768421 0.000000
vt 0.726316 0.000000
vt 0.778947 0.000000
vt 0.715789 0.000000
vt 0.063158 0.000000
vt 0.421053 0.000000
vt 0.789474 0.000000
vt 0.705263 0.000000
vt 0.800000 0.000000
vt 0.694737 0.000000
vt 0.073684 0.000000
vt 0.410526 0.000000
vt 0.810526 0.000000
vt 0.684211 0.000000
vt 0.821053 0.000000
vt 0.673684 0.000000
vt 0.084211 0.000000
vt 0.400000 0.000000
vt 0.831579 0.000000
vt 0.663158 0.000000
vt 0.094737 0.000000
vt 0.389474 0.000000
vt 0.842105 0.000000
vt 0.652632 0.000000
vt 0.642105 0.000000
vt 0.852632 0.000000
vt 0.105263 0.000000
vt 0.378947 0.000000
vt 0.631579 0.000000
vt 0.863158 0.000000
vt 0.115789 0.000000
vt 0.368421 0.000000
vt 0.621053 0.000000
vt 0.873684 0.000000
vt 0.357895 0.000000
vt 0.884211 0.000000
vt 0.610526 0.000000
vt 0.126316 0.000000
vt 0.600000 0.000000
vt 0.894737 0.000000
vt 0.136842 0.000000
vt 0.347368 0.000000
vt 0.589474 0.000000
vt 0.905263 0.000000
vt 0.147368 0.000000
vt 0.336842 0.000000
vt 0.578947 0.000000
vt 0.915789 0.000000
vt 0.157895 0.000000
vt 0.326316 0.000000
vt 0.568421 0.000000
vt 0.926316 0.000000
vt 0.557895 0.000000
vt 0.936842 0.000000
vt 0.168421 0.000000
vt 0.315789 0.000000
vt 0.547368 0.000000
vt 0.947368 0.000000
vt 0.536842 0.000000
vt 0.957895 0.000000
vt 0.178947 0.000000
vt 0.305263 0.000000
vt 0.526316 0.000000
vt 0.968421 0.000000
vt 0.515789 0.000000
vt 0.978947 0.000000
vt 0.189474 0.000000
vt 0.294737 0.000000
vt 0.505263 0.000000
vt 0.989474 0.000000
vt 1.000000 0.000000
vt 0.200000 0.000000
vt 0.284211 0.000000
vt 0.210526 0.000000
vt 0.273684 0.000000
vt 0.221053 0.000000
vt 0.263158 0.000000
vt 0.231579 0.000000
vt 0.252632 0.000000
vt 0.242105 0.000000
vt 0.336634 0.000000
vt 0.356436 0.000000
vt 0.346535 0.000000
vt 0.366337 0.000000
vt 0.376238 0.000000
vt 0.386139 0.000000
vt 0.326733 0.000000
vt 0.396040 0.000000
vt 0.405941 0.000000
vt 0.415842 0.000000
vt 0.316832 0.000000
vt 0.425743 0.000000
vt 0.435644 0.000000
vt 0.306931 0.000000
vt 0.445545 0.000000
vt 0.455446 0.000000
vt 0.297030 0.000000
vt 0.465347 0.000000
vt 0.574257 0.000000
vt 0.564356 0.000000
vt 0.554455 0.000000
vt 0.544554 0.000000
vt 0.534653 0.000000
vt 0.524752 0.000000
vt 0.514852 0.000000
vt 0.504951 0.000000
vt 0.495050 0.000000
vt 0.485149 0.000000
vt 0.475248 0.000000
vt 0.287129 0.000000
vt 0.594059 0.000000
vt 0.584158 0.000000
vt 0.603960 0.000000
vt 0.613861 0.000000
vt 0.623762 0.000000
vt 0.277228 0.000000
vt 0.633663 0.000000
vt 0.643564 0.000000
vt 0.267327 0.000000
vt 0.653465 0.000000
vt 0.663366 0.000000
vt 0.257426 0.000000
vt 0.673267 0.000000
vt 0.247525 0.000000
vt 0.683168 0.000000
vt 0.693069 0.000000
vt 0.237624 0.000000
vt 0.702970 0.000000
vt 0.227723 0.000000
vt 0.712871 0.000000
vt 0.722772 0.000000
vt 0.217822 0.000000
vt 0.970297 0.000000
vt 0.990099 0.000000
vt 0.980198 0.000000
vt 0.960396 0.000000
vt 0.732673 0.000000
vt 0.207921 0.000000
vt 0.742574 0.000000
vt 0.950495 0.000000
vt 0.198020 0.000000
vt 0.752475 0.000000
vt 0.762376 0.000000
vt 0.188119 0.000000
vt 0.772277 0.000000
vt 0.178218 0.000000
vt 0.782178 0.000000
vt 0.792079 0.000000
vt 0.168317 0.000000
vt 0.801980 0.000000
vt 0.940594 0.000000
vt 0.930693 0.000000
vt 0.920792 0.000000
vt 0.811881 0.000000
vt 0.910891 0.000000
vt 0.900990 0.000000
vt 0.891089 0.000000
vt 0.821782 0.000000
vt 0.158416 0.000000
vt 0.881188 0.000000
vt 0.871287 0.000000
vt 0.861386 0.000000
vt 0.831683 0.000000
vt 0.851485 0.000000
vt 0.841584 0.000000
vt 0.148515 0.000000
vt 0.009901 0.000000
vt 0.138614 0.000000
vt 0.019802 0.000000
vt 0.029703 0.000000
vt 0.128713 0.000000
vt 0.039604 0.000000
vt 0.049505 0.000000
vt 0.059406 0.000000
vt 0.118812 0.000000
vt 0.069307 0.000000
vt 0.079208 0.000000
vt 0.089109 0.000000
vt 0.108911 0.000000
vt 0.099010 0.000000
vt 0.000000 1.000000
vt 0.009804 1.000000
vt 0.009804 0.000000
vt 0.019608 1.000000
vt 0.019608 0.000000
vt 0.029412 1.000000
vt 0.029412 0.000000
vt 0.039216 1.000000
vt 0.039216 0.000000
vt 0.049020 1.000000
vt 0.049020 0.000000
vt 0.058824 1.000000
vt 0.058824 0.000000
vt 0.068627 1.000000
vt 0.068627 0.000000
vt 0.078431 1.000000
vt 0.078431 0.000000
vt 0.088235 1.000000
vt 0.088235 0.000000
vt 0.098039 1.000000
vt 0.098039 0.000000
vt 0.107843 1.000000
vt 0.107843 0.000000
vt 0.117647 1.000000
vt 0.117647 0.000000
vt 0.127451 1.000000
vt 0.127451 0.000000
vt 0.137255 1.000000
vt 0.137255 0.000000
vt 0.147059 1.000000
vt 0.147059 0.000000
vt 0.156863 1.000000
vt 0.156863 0.000000
vt 0.166667 1.000000
vt 0.166667 0.000000
vt 0.176471 1.000000
vt 0.176471 0.000000
vt 0.186275 1.000000
vt 0.186275 0.000000
vt 0.196078 1.000000
vt 0.196078 0.000000
vt 0.205882 1.000000
vt 0.205882 0.000000
vt 0.215686 1.000000
vt 0.215686 0.000000
vt 0.225490 1.000000
vt 0.225490 0.000000
vt 0.235294 1.000000
vt 0.235294 0.000000
vt 0.245098 1.000000
vt 0.245098 0.000000
vt 0.254902 1.000000
vt 0.254902 0.000000
vt 0.264706 1.000000
vt 0.264706 0.000000
vt 0.274510 1.000000
vt 0.274510 0.000000
vt 0.284314 1.000000
vt 0.284314 0.000000
vt 0.294118 1.000000
vt 0.294118 0.000000
vt 0.303922 1.000000
vt 0.303922 0.000000
vt 0.313726 1.000000
vt 0.313726 0.000000
vt 0.323529 1.000000
vt 0.323529 0.000000
vt 0.333333 1.000000
vt 0.333333 0.000000
vt 0.343137 1.000000
vt 0.343137 0.000000
vt 0.352941 1.000000
vt 0.352941 0.000000
vt 0.362745 1.000000
vt 0.362745 0.000000
vt 0.372549 1.000000
vt 0.372549 0.000000
vt 0.382353 1.000000
vt 0.382353 0.000000
vt 0.392157 1.000000
vt 0.392157 0.000000
vt 0.401961 1.000000
vt 0.401961 0.000000
vt 0.411765 1.000000
vt 0.411765 0.000000
vt 0.421569 1.000000
vt 0.421569 0.000000
vt 0.431373 1.000000
vt 0.431373 0.000000
vt 0.441176 1.000000
vt 0.441176 0.000000
vt 0.450980 1.000000
vt 0.450980 0.000000
vt 0.460784 1.000000
vt 0.460784 0.000000
vt 0.470588 1.000000
vt 0.470588 0.000000
vt 0.480392 1.000000
vt 0.480392 0.000000
vt 0.490196 1.000000
vt 0.490196 0.000000
vt 0.500000 1.000000
vt 0.500000 0.000000
vt 0.509804 1.000000
vt 0.509804 0.000000
vt 0.519608 1.000000
vt 0.519608 0.000000
vt 0.529412 1.000000
vt 0.529412 0.000000
vt 0.539216 1.000000
vt 0.539216 0.000000
vt 0.549020 1.000000
vt 0.549020 0.000000
vt 0.558824 1.000000
vt 0.558824 0.000000
vt 0.568627 1.000000
vt 0.568627 0.000000
vt 0.578431 1.000000
vt 0.578431 0.000000
vt 0.588235 1.000000
vt 0.588235 0.000000
vt 0.598039 1.000000
vt 0.598039 0.000000
vt 0.607843 1.000000
vt 0.607843 0.000000
vt 0.617647 1.000000
vt 0.617647 0.000000
vt 0.627451 1.000000
vt 0.627451 0.000000
vt 0.637255 1.000000
vt 0.637255 0.000000
vt 0.647059 1.000000
vt 0.647059 0.000000
vt 0.656863 1.000000
vt 0.656863 0.000000
vt 0.666667 1.000000
vt 0.666667 0.000000
vt 0.676471 1.000000
vt 0.676471 0.000000
vt 0.686275 1.000000
vt 0.686275 0.000000
vt 0.696078 1.000000
vt 0.696078 0.000000
vt 0.705882 1.000000
vt 0.705882 0.000000
vt 0.715686 1.000000
vt 0.715686 0.000000
vt 0.725490 1.000000
vt 0.725490 0.000000
vt 0.735294 1.000000
vt 0.735294 0.000000
vt 0.745098 1.000000
vt 0.745098 0.000000
vt 0.754902 1.000000
vt 0.754902 0.000000
vt 0.764706 1.000000
vt 0.764706 0.000000
vt 0.774510 1.000000
vt 0.774510 0.000000
vt 0.784314 1.000000
vt 0.784314 0.000000
vt 0.794118 1.000000
vt 0.794118 0.000000
vt 0.803922 1.000000
vt 0.803922 0.000000
vt 0.813725 1.000000
vt 0.813725 0.000000
vt 0.823529 1.000000
vt 0.823529 0.000000
vt 0.833333 1.000000
vt 0.833333 0.000000
vt 0.843137 1.000000
vt 0.843137 0.000000
vt 0.852941 1.000000
vt 0.852941 0.000000
vt 0.862745 1.000000
vt 0.862745 0.000000
vt 0.872549 1.000000
vt 0.872549 0.000000
vt 0.882353 1.000000
vt 0.882353 0.000000
vt 0.892157 1.000000
vt 0.892157 0.000000
vt 0.901961 1.000000
vt 0.901961 0.000000
vt 0.911765 1.000000
vt 0.911765 0.000000
vt 0.921569 1.000000
vt 0.921569 0.000000
vt 0.931373 1.000000
vt 0.931373 0.000000
vt 0.941176 1.000000
vt 0.941176 0.000000
vt 0.950980 1.000000
vt 0.950980 0.000000
vt 0.960784 1.000000
vt 0.960784 0.000000
vt 0.970588 1.000000
vt 0.970588 0.000000
vt 0.980392 1.000000
vt 0.980392 0.000000
vt 0.990196 1.000000
vt 0.990196 0.000000
vt 1.000000 1.000000
vt 0.020833 1.000000
vt 0.020833 0.000000
vt 0.041667 1.000000
vt 0.041667 0.000000
vt 0.062500 1.000000
vt 0.062500 0.000000
vt 0.083333 1.000000
vt 0.083333 0.000000
vt 0.104167 1.000000
vt 0.104167 0.000000
vt 0.125000 1.000000
vt 0.125000 0.000000
vt 0.145833 1.000000
vt 0.145833 0.000000
vt 0.187500 1.000000
vt 0.187500 0.000000
vt 0.208333 1.000000
vt 0.208333 0.000000
vt 0.229167 1.000000
vt 0.229167 0.000000
vt 0.250000 1.000000
vt 0.250000 0.000000
vt 0.270833 1.000000
vt 0.270833 0.000000
vt 0.291667 1.000000
vt 0.291667 0.000000
vt 0.312500 1.000000
vt 0.312500 0.000000
vt 0.354167 1.000000
vt 0.354167 0.000000
vt 0.375000 1.000000
vt 0.375000 0.000000
vt 0.395833 1.000000
vt 0.395833 0.000000
vt 0.416667 1.000000
vt 0.416667 0.000000
vt 0.437500 1.000000
vt 0.437500 0.000000
vt 0.458333 1.000000
vt 0.458333 0.000000
vt 0.479167 1.000000
vt 0.479167 0.000000
vt 0.520833 1.000000
vt 0.520833 0.000000
vt 0.541667 1.000000
vt 0.541667 0.000000
vt 0.562500 1.000000
vt 0.562500 0.000000
vt 0.583333 1.000000
vt 0.583333 0.000000
vt 0.604167 1.000000
vt 0.604167 0.000000
vt 0.625000 1.000000
vt 0.625000 0.000000
vt 0.645833 1.000000
vt 0.645833 0.000000
vt 0.687500 1.000000
vt 0.687500 0.000000
vt 0.708333 1.000000
vt 0.708333 0.000000
vt 0.729167 1.000000
vt 0.729167 0.000000
vt 0.750000 1.000000
vt 0.750000 0.000000
vt 0.770833 1.000000
vt 0.770833 0.000000
vt 0.791667 1.000000
vt 0.791667 0.000000
vt 0.812500 1.000000
vt 0.812500 0.000000
vt 0.854167 1.000000
vt 0.854167 0.000000
vt 0.875000 1.000000
vt 0.875000 0.000000
vt 0.895833 1.000000
vt 0.895833 0.000000
vt 0.916667 1.000000
vt 0.916667 0.000000
vt 0.937500 1.000000
vt 0.937500 0.000000
vt 0.958333 1.000000
vt 0.958333 0.000000
vt 0.979167 1.000000
vt 0.979167 0.000000
s 0
f 47/1/1 1/2/1 48/3/1
f 47/1/1 2/4/1 1/2/1
f 46/5/1 2/4/1 47/1/1
f 46/5/1 3/6/1 2/4/1
f 45/7/1 3/6/1 46/5/1
f 45/7/1 4/8/1 3/6/1
f 44/9/1 4/8/1 45/7/1
f 44/9/1 5/10/1 4/8/1
f 43/11/1 5/10/1 44/9/1
f 43/11/1 6/12/1 5/10/1
f 42/13/1 72/14/1 43/11/1
f 72/14/1 6/12/1 43/11/1
f 42/13/1 73/15/1 72/14/1
f 71/16/1 6/12/1 72/14/1
f 42/13/1 74/17/1 73/15/1
f 70/18/1 6/12/1 71/16/1
f 42/13/1 75/19/1 74/17/1
f 69/20/1 6/12/1 70/18/1
f 69/20/1 7/21/1 6/12/1
f 41/22/1 75/19/1 42/13/1
f 41/22/1 76/23/1 75/19/1
f 68/24/1 7/21/1 69/20/1
f 41/22/1 77/25/1 76/23/1
f 67/26/1 7/21/1 68/24/1
f 67/26/1 8/27/1 7/21/1
f 40/28/1 77/25/1 41/22/1
f 40/28/1 78/29/1 77/25/1
f 66/30/1 8/27/1 67/26/1
f 40/28/1 79/31/1 78/29/1
f 65/32/1 8/27/1 66/30/1
f 65/32/1 9/33/1 8/27/1
f 39/34/1 79/31/1 40/28/1
f 39/34/1 80/35/1 79/31/1
f 64/36/1 9/33/1 65/32/1
f 64/36/1 10/37/1 9/33/1
f 38/38/1 80/35/1 39/34/1
f 38/38/1 81/39/1 80/35/1
f 63/40/1 10/37/1 64/36/1
f 62/41/1 10/37/1 63/40/1
f 38/38/1 82/42/1 81/39/1
f 62/41/1 11/43/1 10/37/1
f 37/44/1 82/42/1 38/38/1
f 61/45/1 11/43/1 62/41/1
f 37/44/1 83/46/1 82/42/1
f 61/45/1 12/47/1 11/43/1
f 36/48/1 83/46/1 37/44/1
f 60/49/1 12/47/1 61/45/1
f 36/48/1 84/50/1 83/46/1
f 35/51/1 84/50/1 36/48/1
f 35/51/1 85/52/1 84/50/1
f 59/53/1 12/47/1 60/49/1
f 59/53/1 13/54/1 12/47/1
f 58/55/1 13/54/1 59/53/1
f 35/51/1 86/56/1 85/52/1
f 58/55/1 14/57/1 13/54/1
f 34/58/1 86/56/1 35/51/1
f 57/59/1 14/57/1 58/55/1
f 34/58/1 87/60/1 86/56/1
f 57/59/1 15/61/1 14/57/1
f 33/62/1 87/60/1 34/58/1
f 56/63/1 15/61/1 57/59/1
f 33/62/1 88/64/1 87/60/1
f 56/63/1 16/65/1 15/61/1
f 32/66/1 88/64/1 33/62/1
f 55/67/1 16/65/1 56/63/1
f 32/66/1 89/68/1 88/64/1
f 54/69/1 16/65/1 55/67/1
f 32/66/1 90/70/1 89/68/1
f 54/69/1 17/71/1 16/65/1
f 31/72/1 90/70/1 32/66/1
f 53/73/1 17/71/1 54/69/1
f 31/72/1 91/74/1 90/70/1
f 52/75/1 17/71/1 53/73/1
f 31/72/1 92/76/1 91/74/1
f 52/75/1 18/77/1 17/71/1
f 30/78/1 92/76/1 31/72/1
f 51/79/1 18/77/1 52/75/1
f 30/78/1 93/80/1 92/76/1
f 50/81/1 18/77/1 51/79/1
f 30/78/1 94/82/1 93/80/1
f 50/81/1 19/83/1 18/77/1
f 29/84/1 94/82/1 30/78/1
f 49/85/1 19/83/1 50/81/1
f 29/84/1 95/86/1 94/82/1
f 96/87/1 19/83/1 49/85/1
f 29/84/1 96/87/1 95/86/1
f 29/84/1 19/83/1 96/87/1
f 29/84/1 20/88/1 19/83/1
f 28/89/1 20/88/1 29/84/1
f 28/89/1 21/90/1 20/88/1
f 27/91/1 21/90/1 28/89/1
f 27/91/1 22/92/1 21/90/1
f 26/93/1 22/92/1 27/91/1
f 26/93/1 23/94/1 22/92/1
f 25/95/1 23/94/1 26/93/1
f 25/95/1 24/96/1 23/94/1
f 131/97/1 133/98/1 132/99/1
f 131/97/1 134/100/1 133/98/1
f 131/97/1 135/101/1 134/100/1
f 131/97/1 136/102/1 135/101/1
f 130/103/1 136/102/1 131/97/1
f 130/103/1 137/104/1 136/102/1
f 130/103/1 138/105/1 137/104/1
f 130/103/1 139/106/1 138/105/1
f 129/107/1 139/106/1 130/103/1
f 129/107/1 140/108/1 139/106/1
f 129/107/1 141/109/1 140/108/1
f 128/110/1 141/109/1 129/107/1
f 128/110/1 142/111/1 141/109/1
f 128/110/1 143/112/1 142/111/1
f 127/113/1 143/112/1 128/110/1
f 127/113/1 144/114/1 143/112/1
f 127/113/1 155/115/1 144/114/1
f 155/115/1 154/116/1 144/114/1
f 154/116/1 153/117/1 144/114/1
f 153/117/1 152/118/1 144/114/1
f 152/118/1 151/119/1 144/114/1
f 151/119/1 150/120/1 144/114/1
f 150/120/1 149/121/1 144/114/1
f 149/121/1 148/122/1 144/114/1
f 148/122/1 147/123/1 144/114/1
f 147/123/1 146/124/1 144/114/1
f 146/124/1 145/125/1 144/114/1
f 126/126/1 157/127/1 127/113/1
f 157/127/1 156/128/1 127/113/1
f 156/128/1 155/115/1 127/113/1
f 126/126/1 158/129/1 157/127/1
f 126/126/1 159/130/1 158/129/1
f 126/126/1 160/131/1 159/130/1
f 125/132/1 160/131/1 126/126/1
f 125/132/1 161/133/1 160/131/1
f 125/132/1 162/134/1 161/133/1
f 124/135/1 162/134/1 125/132/1
f 124/135/1 163/136/1 162/134/1
f 124/135/1 164/137/1 163/136/1
f 123/138/1 164/137/1 124/135/1
f 123/138/1 165/139/1 164/137/1
f 122/140/1 165/139/1 123/138/1
f 122/140/1 166/141/1 165/139/1
f 122/140/1 167/142/1 166/141/1
f 121/143/1 167/142/1 122/140/1
f 121/143/1 168/144/1 167/142/1
f 120/145/1 168/144/1 121/143/1
f 120/145/1 169/146/1 168/144/1
f 120/145/1 170/147/1 169/146/1
f 119/148/1 170/147/1 120/145/1
f 195/149/1 197/150/1 196/151/1
f 195/149/1 194/152/1 197/150/1
f 194/152/1 198/87/1 197/150/1
f 119/148/1 171/153/1 170/147/1
f 118/154/1 171/153/1 119/148/1
f 118/154/1 172/155/1 171/153/1
f 193/156/1 198/87/1 194/152/1
f 117/157/1 172/155/1 118/154/1
f 117/157/1 173/158/1 172/155/1
f 117/157/1 174/159/1 173/158/1
f 116/160/1 174/159/1 117/157/1
f 116/160/1 175/161/1 174/159/1
f 115/162/1 175/161/1 116/160/1
f 115/162/1 176/163/1 175/161/1
f 115/162/1 177/164/1 176/163/1
f 114/165/1 177/164/1 115/162/1
f 114/165/1 178/166/1 177/164/1
f 192/167/1 198/87/1 193/156/1
f 191/168/1 198/87/1 192/167/1
f 190/169/1 198/87/1 191/168/1
f 114/165/1 179/170/1 178/166/1
f 189/171/1 198/87/1 190/169/1
f 188/172/1 198/87/1 189/171/1
f 187/173/1 198/87/1 188/172/1
f 114/165/1 180/174/1 179/170/1
f 113/175/1 180/174/1 114/165/1
f 186/176/1 198/87/1 187/173/1
f 185/177/1 198/87/1 186/176/1
f 184/178/1 198/87/1 185/177/1
f 113/175/1 181/179/1 180/174/1
f 183/180/1 198/87/1 184/178/1
f 182/181/1 198/87/1 183/180/1
f 181/179/1 198/87/1 182/181/1
f 113/175/1 198/87/1 181/179/1
f 112/182/1 198/87/1 113/175/1
f 112/182/1 97/2/1 198/87/1
f 112/182/1 98/183/1 97/2/1
f 111/184/1 98/183/1 112/182/1
f 111/184/1 99/185/1 98/183/1
f 111/184/1 100/186/1 99/185/1
f 110/187/1 100/186/1 111/184/1
f 110/187/1 101/188/1 100/186/1
f 110/187/1 102/189/1 101/188/1
f 110/187/1 103/190/1 102/189/1
f 109/191/1 103/190/1 110/187/1
f 109/191/1 104/192/1 103/190/1
f 109/191/1 105/193/1 104/192/1
f 109/191/1 106/194/1 105/193/1
f 108/195/1 106/194/1 109/191/1
f 108/195/1 107/196/1 106/194/1
f 245/1/2 246/3/2 199/2/2
f 245/1/2 199/2/2 200/4/2
f 244/5/2 245/1/2 200/4/2
f 244/5/2 200/4/2 201/6/2
f 243/7/2 244/5/2 201/6/2
f 243/7/2 201/6/2 202/8/2
f 242/9/2 243/7/2 202/8/2
f 242/9/2 202/8/2 203/10/2
f 241/11/2 242/9/2 203/10/2
f 241/11/2 203/10/2 204/12/2
f 240/13/2 241/11/2 270/14/2
f 270/14/2 241/11/2 204/12/2
f 240/13/2 270/14/2 271/15/2
f 269/16/2 270/14/2 204/12/2
f 240/13/2 271/15/2 272/17/2
f 268/18/2 269/16/2 204/12/2
f 240/13/2 272/17/2 273/19/2
f 267/20/2 268/18/2 204/12/2
f 267/20/2 204/12/2 205/21/2
f 239/22/2 240/13/2 273/19/2
f 239/22/2 273/19/2 274/23/2
f 266/24/2 267/20/2 205/21/2
f 239/22/2 274/23/2 275/25/2
f 265/26/2 266/24/2 205/21/2
f 265/26/2 205/21/2 206/27/2
f 238/28/2 239/22/2 275/25/2
f 238/28/2 275/25/2 276/29/2
f 264/30/2 265/26/2 206/27/2
f 238/28/2 276/29/2 277/31/2
f 263/32/2 264/30/2 206/27/2
f 263/32/2 206/27/2 207/33/2
f 237/34/2 238/28/2 277/31/2
f 237/34/2 277/31/2 278/35/2
f 262/36/2 263/32/2 207/33/2
f 262/36/2 207/33/2 208/37/2
f 236/38/2 237/34/2 278/35/2
f 236/38/2 278/35/2 279/39/2
f 261/40/2 262/36/2 208/37/2
f 260/41/2 261/40/2 208/37/2
f 236/38/2 279/39/2 280/42/2
f 260/41/2 208/37/2 209/43/2
f 235/44/2 236/38/2 280/42/2
f 259/45/2 260/41/2 209/43/2
f 235/44/2 280/42/2 281/46/2
f 259/45/2 209/43/2 210/47/2
f 234/48/2 235/44/2 281/46/2
f 258/49/2 259/45/2 210/47/2
f 234/48/2 281/46/2 282/50/2
f 233/51/2 234/48/2 282/50/2
f 233/51/2 282/50/2 283/52/2
f 257/53/2 258/49/2 210/47/2
f 257/53/2 210/47/2 211/54/2
f 256/55/2 257/53/2 211/54/2
f 233/51/2 283/52/2 284/56/2
f 256/55/2 211/54/2 212/57/2
f 232/58/2 233/51/2 284/56/2
f 255/59/2 256/55/2 212/57/2
f 232/58/2 284/56/2 285/60/2
f 255/59/2 212/57/2 213/61/2
f 231/62/2 232/58/2 285/60/2
f 254/63/2 255/59/2 213/61/2
f 231/62/2 285/60/2 286/64/2
f 254/63/2 213/61/2 214/65/2
f 230/66/2 231/62/2 286/64/2
f 253/67/2 254/63/2 214/65/2
f 230/66/2 286/64/2 287/68/2
f 252/69/2 253/67/2 214/65/2
f 230/66/2 287/68/2 288/70/2
f 252/69/2 214/65/2 215/71/2
f 229/72/2 230/66/2 288/70/2
f 251/73/2 252/69/2 215/71/2
f 229/72/2 288/70/2 289/74/2
f 250/75/2 251/73/2 215/71/2
f 229/72/2 289/74/2 290/76/2
f 250/75/2 215/71/2 216/77/2
f 228/78/2 229/72/2 290/76/2
f 249/79/2 250/75/2 216/77/2
f 228/78/2 290/76/2 291/80/2
f 248/81/2 249/79/2 216/77/2
f 228/78/2 291/80/2 292/82/2
f 248/81/2 216/77/2 217/83/2
f 227/84/2 228/78/2 292/82/2
f 247/85/2 248/81/2 217/83/2
f 227/84/2 292/82/2 293/86/2
f 294/87/2 247/85/2 217/83/2
f 227/84/2 293/86/2 294/87/2
f 227/84/2 294/87/2 217/83/2
f 227/84/2 217/83/2 218/88/2
f 226/89/2 227/84/2 218/88/2
f 226/89/2 218/88/2 219/90/2
f 225/91/2 226/89/2 219/90/2
f 225/91/2 219/90/2 220/92/2
f 224/93/2 225/91/2 220/92/2
f 224/93/2 220/92/2 221/94/2
f 223/95/2 224/93/2 221/94/2
f 223/95/2 221/94/2 222/96/2
f 329/97/2 330/99/2 331/98/2
f 329/97/2 331/98/2 332/100/2
f 329/97/2 332/100/2 333/101/2
f 329/97/2 333/101/2 334/102/2
f 328/103/2 329/97/2 334/102/2
f 328/103/2 334/102/2 335/104/2
f 328/103/2 335/104/2 336/105/2
f 328/103/2 336/105/2 337/106/2
f 327/107/2 328/103/2 337/106/2
f 327/107/2 337/106/2 338/108/2
f 327/107/2 338/108/2 339/109/2
f 326/110/2 327/107/2 339/109/2
f 326/110/2 339/109/2 340/111/2
f 326/110/2 340/111/2 341/112/2
f 325/113/2 326/110/2 341/112/2
f 325/113/2 341/112/2 342/114/2
f 325/113/2 342/114/2 353/115/2
f 353/115/2 342/114/2 352/116/2
f 352/116/2 342/114/2 351/117/2
f 351/117/2 342/114/2 350/118/2
f 350/118/2 342/114/2 349/119/2
f 349/119/2 342/114/2 348/120/2
f 348/120/2 342/114/2 347/121/2
f 347/121/2 342/114/2 346/122/2
f 346/122/2 342/114/2 345/123/2
f 345/123/2 342/114/2 344/124/2
f 344/124/2 342/114/2 343/125/2
f 324/126/2 325/113/2 355/127/2
f 355/127/2 325/113/2 354/128/2
f 354/128/2 325/113/2 353/115/2
f 324/126/2 355/127/2 356/129/2
f 324/126/2 356/129/2 357/130/2
f 324/126/2 357/130/2 358/131/2
f 323/132/2 324/126/2 358/131/2
f 323/132/2 358/131/2 359/133/2
f 323/132/2 359/133/2 360/134/2
f 322/135/2 323/132/2 360/134/2
f 322/135/2 360/134/2 361/136/2
f 322/135/2 361/136/2 362/137/2
f 321/138/2 322/135/2 362/137/2
f 321/138/2 362/137/2 363/139/2
f 320/140/2 321/138/2 363/139/2
f 320/140/2 363/139/2 364/141/2
f 320/140/2 364/141/2 365/142/2
f 319/143/2 320/140/2 365/142/2
f 319/143/2 365/142/2 366/144/2
f 318/145/2 319/143/2 366/144/2
f 318/145/2 366/144/2 367/146/2
f 318/145/2 367/146/2 368/147/2
f 317/148/2 318/145/2 368/147/2
f 393/149/2 394/151/2 395/150/2
f 393/149/2 395/150/2 392/152/2
f 392/152/2 395/150/2 396/87/2
f 317/148/2 368/147/2 369/153/2
f 316/154/2 317/148/2 369/153/2
f 316/154/2 369/153/2 370/155/2
f 391/156/2 392/152/2 396/87/2
f 315/157/2 316/154/2 370/155/2
f 315/157/2 370/155/2 371/158/2
f 315/157/2 371/158/2 372/159/2
f 314/160/2 315/157/2 372/159/2
f 314/160/2 372/159/2 373/161/2
f 313/162/2 314/160/2 373/161/2
f 313/162/2 373/161/2 374/163/2
f 313/162/2 374/163/2 375/164/2
f 312/165/2 313/162/2 375/164/2
f 312/165/2 375/164/2 376/166/2
f 390/167/2 391/156/2 396/87/2
f 389/168/2 390/167/2 396/87/2
f 388/169/2 389/168/2 396/87/2
f 312/165/2 376/166/2 377/170/2
f 387/171/2 388/169/2 396/87/2
f 386/172/2 387/171/2 396/87/2
f 385/173/2 386/172/2 396/87/2
f 312/165/2 377/170/2 378/174/2
f 311/175/2 312/165/2 378/174/2
f 384/176/2 385/173/2 396/87/2
f 383/177/2 384/176/2 396/87/2
f 382/178/2 383/177/2 396/87/2
f 311/175/2 378/174/2 379/179/2
f 381/180/2 382/178/2 396/87/2
f 380/181/2 381/180/2 396/87/2
f 379/179/2 380/181/2 396/87/2
f 311/175/2 379/179/2 396/87/2
f 310/182/2 311/175/2 396/87/2
f 310/182/2 396/87/2 295/2/2
f 310/182/2 295/2/2 296/183/2
f 309/184/2 310/182/2 296/183/2
f 309/184/2 296/183/2 297/185/2
f 309/184/2 297/185/2 298/186/2
f 308/187/2 309/184/2 298/186/2
f 308/187/2 298/186/2 299/188/2
f 308/187/2 299/188/2 300/189/2
f 308/187/2 300/189/2 301/190/2
f 307/191/2 308/187/2 301/190/2
f 307/191/2 301/190/2 302/192/2
f 307/191/2 302/192/2 303/193/2
f 307/191/2 303/193/2 304/194/2
f 306/195/2 307/191/2 304/194/2
f 306/195/2 304/194/2 305/196/2
s 1
f 398/197/3 400/198/4 399/199/4 397/2/3
f 400/198/4 402/200/5 401/201/5 399/199/4
f 402/200/5 404/202/6 403/203/6 401/201/5
f 404/202/6 406/204/7 405/205/7 403/203/6
f 406/204/7 408/206/8 407/207/8 405/205/7
f 408/206/8 410/208/9 409/209/9 407/207/8
f 410/208/9 412/210/10 411/211/10 409/209/9
f 412/210/10 414/212/11 413/213/11 411/211/10
f 414/212/11 416/214/12 415/215/12 413/213/11
f 416/214/12 418/216/13 417/217/13 415/215/12
f 418/216/13 420/218/14 419/219/14 417/217/13
f 420/218/14 422/220/15 421/221/15 419/219/14
f 422/220/15 424/222/16 423/223/16 421/221/15
f 424/222/16 426/224/17 425/225/17 423/223/16
f 426/224/17 428/226/18 427/227/18 425/225/17
f 428/226/18 430/228/19 429/229/19 427/227/18
f 430/228/19 432/230/20 431/231/20 429/229/19
f 432/230/20 434/232/21 433/233/21 431/231/20
f 434/232/21 436/234/22 435/235/22 433/233/21
f 436/234/22 438/236/23 437/237/23 435/235/22
f 438/236/23 440/238/24 439/239/24 437/237/23
f 440/238/24 442/240/25 441/241/25 439/239/24
f 442/240/25 444/242/26 443/243/26 441/241/25
f 444/242/26 446/244/27 445/245/27 443/243/26
f 446/244/27 448/246/28 447/247/28 445/245/27
f 448/246/28 450/248/29 449/249/29 447/247/28
f 450/248/29 452/250/30 451/251/30 449/249/29
f 452/250/30 454/252/31 453/253/31 451/251/30
f 454/252/31 456/254/32 455/255/32 453/253/31
f 456/254/32 458/256/33 457/257/33 455/255/32
f 458/256/33 460/258/34 459/259/34 457/257/33
f 460/258/34 462/260/35 461/261/35 459/259/34
f 462/260/35 464/262/36 463/263/36 461/261/35
f 464/262/36 466/264/37 465/265/37 463/263/36
f 466/264/37 468/266/38 467/267/38 465/265/37
f 468/266/38 470/268/39 469/269/39 467/267/38
f 470/268/39 472/270/40 471/271/40 469/269/39
f 472/270/40 474/272/41 473/273/41 471/271/40
f 474/272/41 476/274/42 475/275/42 473/273/41
f 476/274/42 478/276/43 477/277/43 475/275/42
f 478/276/43 480/278/44 479/279/44 477/277/43
f 480/278/44 482/280/45 481/281/45 479/279/44
f 482/280/45 484/282/46 483/283/46 481/281/45
f 484/282/46 486/284/47 485/285/47 483/283/46
f 486/284/47 488/286/48 487/287/48 485/285/47
f 488/286/48 490/288/49 489/289/49 487/287/48
f 490/288/49 492/290/50 491/291/50 489/289/49
f 492/290/50 494/292/51 493/293/51 491/291/50
f 494/292/51 496/294/52 495/295/52 493/293/51
f 496/294/52 498/296/53 497/297/53 495/295/52
f 498/296/53 500/298/54 499/299/54 497/297/53
f 500/298/54 502/300/55 501/301/55 499/299/54
f 502/300/55 504/302/56 503/303/56 501/301/55
f 504/302/56 506/304/57 505/305/57 503/303/56
f 506/304/57 508/306/58 507/307/58 505/305/57
f 508/306/58 510/308/59 509/309/59 507/307/58
f 510/308/59 512/310/60 511/311/60 509/309/59
f 512/310/60 514/312/61 513/313/61 511/311/60
f 514/312/61 516/314/62 515/315/62 513/313/61
f 516/314/62 518/316/63 517/317/63 515/315/62
f 518/316/63 520/318/64 519/319/64 517/317/63
f 520/318/64 522/320/65 521/321/65 519/319/64
f 522/320/65 524/322/66 523/323/66 521/321/65
f 524/322/66 526/324/67 525/325/67 523/323/66
f 526/324/67 528/326/68 527/327/68 525/325/67
f 528/326/68 530/328/69 529/329/69 527/327/68
f 530/328/69 532/330/70 531/331/70 529/329/69
f 532/330/70 534/332/71 533/333/71 531/331/70
f 534/332/71 536/334/72 535/335/72 533/333/71
f 536/334/72 538/336/73 537/337/73 535/335/72
f 538/336/73 540/338/74 539/339/74 537/337/73
f 540/338/74 542/340/75 541/341/75 539/339/74
f 542/340/75 544/342/76 543/343/76 541/341/75
f 544/342/76 546/344/77 545/345/77 543/343/76
f 546/344/77 548/346/78 547/347/78 545/345/77
f 548/346/78 550/348/79 549/349/79 547/347/78
f 550/348/79 552/350/80 551/351/80 549/349/79
f 552/350/80 554/352/81 553/353/81 551/351/80
f 554/352/81 556/354/82 555/355/82 553/353/81
f 556/354/82 558/356/83 557/357/83 555/355/82
f 558/356/83 560/358/84 559/359/84 557/357/83
f 560/358/84 562/360/85 561/361/85 559/359/84
f 562/360/85 564/362/86 563/363/86 561/361/85
f 564/362/86 566/364/87 565/365/87 563/363/86
f 566/364/87 568/366/88 567/367/88 565/365/87
f 568/366/88 570/368/89 569/369/89 567/367/88
f 570/368/89 572/370/90 571/371/90 569/369/89
f 572/370/90 574/372/91 573/373/91 571/371/90
f 574/372/91 576/374/92 575/375/92 573/373/91
f 576/374/92 578/376/93 577/377/93 575/375/92
f 578/376/93 580/378/94 579/379/94 577/377/93
f 580/378/94 582/380/95 581/381/95 579/379/94
f 582/380/95 584/382/96 583/383/96 581/381/95
f 584/382/96 586/384/97 585/385/97 583/383/96
f 586/384/97 588/386/98 587/387/98 585/385/97
f 588/386/98 590/388/99 589/389/99 587/387/98
f 590/388/99 592/390/100 591/391/100 589/389/99
f 592/390/100 594/392/100 593/393/100 591/391/100
f 594/392/100 596/394/101 595/395/101 593/393/100
f 596/394/101 598/396/102 597/397/102 595/395/101
f 598/396/102 600/398/103 599/399/103 597/397/102
f 600/398/103 398/400/3 397/87/3 599/399/103
f 602/197/104 604/401/105 603/402/105 601/2/104
f 604/401/105 606/403/106 605/404/106 603/402/105
f 606/403/106 608/405/107 607/406/107 605/404/106
f 608/405/107 610/407/108 609/408/108 607/406/107
f 610/407/108 612/409/109 611/410/109 609/408/108
f 612/409/109 614/411/110 613/412/110 611/410/109
f 614/411/110 616/413/111 615/414/111 613/412/110
f 616/413/111 618/230/112 617/231/112 615/414/111
f 618/230/112 620/415/113 619/416/113 617/231/112
f 620/415/113 622/417/114 621/418/114 619/416/113
f 622/417/114 624/419/115 623/420/115 621/418/114
f 624/419/115 626/421/116 625/422/116 623/420/115
f 626/421/116 628/423/117 627/424/117 625/422/116
f 628/423/117 630/425/118 629/426/118 627/424/117
f 630/425/118 632/427/119 631/428/119 629/426/118
f 632/427/119 634/264/120 633/265/120 631/428/119
f 634/264/120 636/429/121 635/430/121 633/265/120
f 636/429/121 638/431/122 637/432/122 635/430/121
f 638/431/122 640/433/123 639/434/123 637/432/122
f 640/433/123 642/435/124 641/436/124 639/434/123
f 642/435/124 644/437/125 643/438/125 641/436/124
f 644/437/125 646/439/126 645/440/126 643/438/125
f 646/439/126 648/441/127 647/442/127 645/440/126
f 648/441/127 650/298/128 649/299/128 647/442/127
f 650/298/128 652/443/129 651/444/129 649/299/128
f 652/443/129 654/445/130 653/446/130 651/444/129
f 654/445/130 656/447/131 655/448/131 653/446/130
f 656/447/131 658/449/132 657/450/132 655/448/131
f 658/449/132 660/451/133 659/452/133 657/450/132
f 660/451/133 662/453/134 661/454/134 659/452/133
f 662/453/134 664/455/135 663/456/135 661/454/134
f 664/455/135 666/332/136 665/333/136 663/456/135
f 666/332/136 668/457/137 667/458/137 665/333/136
f 668/457/137 670/459/138 669/460/138 667/458/137
f 670/459/138 672/461/139 671/462/139 669/460/138
f 672/461/139 674/463/140 673/464/140 671/462/139
f 674/463/140 676/465/141 675/466/141 673/464/140
f 676/465/141 678/467/142 677/468/142 675/466/141
f 678/467/142 680/469/143 679/470/143 677/468/142
f 680/469/143 682/366/144 681/367/144 679/470/143
f 682/366/144 684/471/145 683/472/145 681/367/144
f 684/471/145 686/473/146 685/474/146 683/472/145
f 686/473/146 688/475/147 687/476/147 685/474/146
f 688/475/147 690/477/148 689/478/148 687/476/147
f 690/477/148 692/479/149 691/480/149 689/478/148
f 692/479/149 694/481/150 693/482/150 691/480/149
f 694/481/150 696/483/151 695/484/151 693/482/150
f 696/483/151 602/400/104 601/87/104 695/484/151
f 698/197/152 700/401/153 699/402/153 697/2/152
f 700/401/153 702/403/154 701/404/154 699/402/153
f 702/403/154 704/405/155 703/406/155 701/404/154
f 704/405/155 706/407/156 705/408/156 703/406/155
f 706/407/156 708/409/157 707/410/157 705/408/156
f 708/409/157 710/411/158 709/412/158 707/410/157
f 710/411/158 712/413/159 711/414/159 709/412/158
f 712/413/159 714/230/160 713/231/160 711/414/159
f 714/230/160 716/415/161 715/416/161 713/231/160
f 716/415/161 718/417/162 717/418/162 715/416/161
f 718/417/162 720/419/163 719/420/163 717/418/162
f 720/419/163 722/421/164 721/422/164 719/420/163
f 722/421/164 724/423/165 723/424/165 721/422/164
f 724/423/165 726/425/166 725/426/166 723/424/165
f 726/425/166 728/427/167 727/428/167 725/426/166
f 728/427/167 730/264/168 729/265/168 727/428/167
f 730/264/168 732/429/169 731/430/169 729/265/168
f 732/429/169 734/431/170 733/432/170 731/430/169
f 734/431/170 736/433/171 735/434/171 733/432/170
f 736/433/171 738/435/172 737/436/172 735/434/171
f 738/435/172 740/437/173 739/438/173 737/436/172
f 740/437/173 742/439/174 741/440/174 739/438/173
f 742/439/174 744/441/175 743/442/175 741/440/174
f 744/441/175 746/298/176 745/299/176 743/442/175
f 746/298/176 748/443/177 747/444/177 745/299/176
f 748/443/177 750/445/178 749/446/178 747/444/177
f 750/445/178 752/447/179 751/448/179 749/446/178
f 752/447/179 754/449/180 753/450/180 751/448/179
f 754/449/180 756/451/181 755/452/181 753/450/180
f 756/451/181 758/453/182 757/454/182 755/452/181
f 758/453/182 760/455/183 759/456/183 757/454/182
f 760/455/183 762/332/184 761/333/184 759/456/183
f 762/332/184 764/457/185 763/458/185 761/333/184
f 764/457/185 766/459/186 765/460/186 763/458/185
f 766/459/186 768/461/187 767/462/187 765/460/186
f 768/461/187 770/463/188 769/464/188 767/462/187
f 770/463/188 772/465/189 771/466/189 769/464/188
f 772/465/189 774/467/190 773/468/190 771/466/189
f 774/467/190 776/469/191 775/470/191 773/468/190
f 776/469/191 778/366/192 777/367/192 775/470/191
f 778/366/192 780/471/193 779/472/193 777/367/192
f 780/471/193 782/473/194 781/474/194 779/472/193
f 782/473/194 784/475/195 783/476/195 781/474/194
f 784/475/195 786/477/196 785/478/196 783/476/195
f 786/477/196 788/479/197 787/480/197 785/478/196
f 788/479/197 790/481/198 789/482/198 787/480/197
f 790/481/198 792/483/199 791/484/199 789/482/198
f 792/483/199 698/400/152 697/87/152 791/484/199
