# Blender 4.4.1
# www.blender.org
mtllib skydome.mtl
o 球
v 0.000000 415.734802 -277.785217
v 0.000000 277.785126 -415.734955
v 0.000000 97.545158 -490.392792
v 0.000000 0.000000 -500.000183
v 0.000000 -97.545158 -490.392792
v 0.000000 -277.785126 -415.734955
v -19.030128 490.392639 -95.670891
v -37.328945 461.939758 -187.665222
v -54.193226 415.734802 -272.447662
v -68.974884 353.553375 -346.760071
v -81.105888 277.785126 -407.746704
v -90.120026 191.341721 -453.063873
v -95.670914 97.545158 -480.970032
v -97.545219 0.000000 -490.392792
v -95.670914 -97.545158 -480.970032
v -90.120026 -191.341721 -453.063873
v -81.105888 -277.785126 -407.746704
v -68.974884 -353.553375 -346.760071
v -54.193226 -415.734802 -272.447662
v -37.328945 -461.939758 -187.665222
v -19.030128 -490.392639 -95.670891
v -37.328938 490.392639 -90.120003
v -73.223351 461.939758 -176.776779
v -106.303833 415.734802 -256.640045
v -135.299103 353.553375 -326.640839
v -159.094910 277.785126 -384.088959
v -176.776779 191.341721 -426.776825
v -187.665253 97.545158 -453.063873
v -191.341827 0.000000 -461.939880
v -187.665253 -97.545158 -453.063873
v -176.776779 -191.341721 -426.776825
v -159.094910 -277.785126 -384.088959
v -135.299103 -353.553375 -326.640839
v -106.303833 -415.734802 -256.640045
v -73.223351 -461.939758 -176.776779
v -37.328938 -490.392639 -90.120003
v -54.193218 490.392639 -81.105858
v -106.303833 461.939758 -159.094879
v -154.329224 415.734802 -230.969925
v -196.423859 353.553375 -293.968994
v -230.969986 277.785126 -345.670929
v -256.640106 191.341721 -384.088989
v -272.447723 97.545158 -407.746704
v -277.785278 0.000000 -415.734894
v -272.447723 -97.545158 -407.746704
v -256.640106 -191.341721 -384.088989
v -230.969986 -277.785126 -345.670929
v -196.423859 -353.553375 -293.968994
v -154.329224 -415.734802 -230.969925
v -106.303833 -461.939758 -159.094879
v -54.193218 -490.392639 -81.105858
v -68.974876 490.392639 -68.974854
v -135.299103 461.939758 -135.299057
v -196.423843 415.734802 -196.423767
v -250.000153 353.553375 -250.000092
v -293.969025 277.785126 -293.968933
v -326.640900 191.341721 -326.640839
v -346.760162 97.545158 -346.760040
v -353.553589 0.000000 -353.553436
v -346.760162 -97.545158 -346.760040
v -326.640900 -191.341721 -326.640839
v -293.969025 -277.785126 -293.968933
v -250.000153 -353.553375 -250.000092
v -196.423843 -415.734802 -196.423767
v -135.299103 -461.939758 -135.299057
v -68.974876 -490.392639 -68.974854
v -81.105881 490.392639 -54.193195
v -159.094925 461.939758 -106.303787
v -230.970001 415.734802 -154.329163
v -293.969055 353.553375 -196.423813
v -345.671021 277.785126 -230.969894
v -384.089050 191.341721 -256.640076
v -407.746796 97.545158 -272.447601
v -415.735016 0.000000 -277.785095
v -407.746796 -97.545158 -272.447601
v -384.089050 -191.341721 -256.640076
v -345.671021 -277.785126 -230.969894
v -293.969055 -353.553375 -196.423813
v -230.970001 -415.734802 -154.329163
v -159.094925 -461.939758 -106.303787
v -81.105881 -490.392639 -54.193195
v 0.000000 500.000000 0.000000
v -90.120010 490.392639 -37.328918
v -176.776779 461.939758 -73.223320
v -256.640106 415.734802 -106.303764
v -326.640930 353.553375 -135.299072
v -384.089050 277.785126 -159.094803
v -426.776917 191.341721 -176.776779
v -453.063934 97.545158 -187.665146
v -461.939972 0.000000 -191.341675
v -453.063934 -97.545158 -187.665146
v -426.776917 -191.341721 -176.776779
v -384.089050 -277.785126 -159.094803
v -326.640930 -353.553375 -135.299072
v -256.640106 -415.734802 -106.303764
v -176.776779 -461.939758 -73.223320
v -90.120010 -490.392639 -37.328918
v -95.670891 490.392639 -19.030113
v -187.665237 461.939758 -37.328918
v -272.447693 415.734802 -54.193176
v -346.760162 353.553375 -68.974876
v -407.746735 277.785126 -81.105812
v -453.063934 191.341721 -90.120026
v -480.970123 97.545158 -95.670837
v -490.392822 0.000000 -97.545097
v -480.970123 -97.545158 -95.670837
v -453.063934 -191.341721 -90.120026
v -407.746735 -277.785126 -81.105812
v -346.760162 -353.553375 -68.974876
v -272.447693 -415.734802 -54.193176
v -187.665237 -461.939758 -37.328918
v -95.670891 -490.392639 -19.030113
v -97.545189 490.392639 0.000006
v -191.341812 461.939758 0.000011
v -277.785217 415.734802 0.000026
v -353.553558 353.553375 -0.000007
v -415.734955 277.785126 0.000045
v -461.940002 191.341721 -0.000022
v -490.392853 97.545158 0.000045
v -500.000153 0.000000 0.000082
v -490.392853 -97.545158 0.000045
v -461.940002 -191.341721 -0.000022
v -415.734955 -277.785126 0.000045
v -353.553558 -353.553375 -0.000007
v -277.785217 -415.734802 0.000026
v -191.341812 -461.939758 0.000011
v -97.545189 -490.392639 0.000006
v -95.670883 490.392639 19.030123
v -187.665237 461.939758 37.328938
v -272.447662 415.734802 54.193222
v -346.760132 353.553375 68.974854
v -407.746704 277.785126 81.105896
v -453.063934 191.341721 90.119980
v -480.970093 97.545158 95.670921
v -490.392731 0.000000 97.545250
v -480.970093 -97.545158 95.670921
v -453.063934 -191.341721 90.119980
v -407.746704 -277.785126 81.105896
v -346.760132 -353.553375 68.974854
v -272.447662 -415.734802 54.193222
v -187.665237 -461.939758 37.328938
v -95.670883 -490.392639 19.030123
v -90.119995 490.392639 37.328922
v -176.776779 461.939758 73.223335
v -256.640045 415.734802 106.303802
v -326.640900 353.553375 135.299042
v -384.088989 277.785126 159.094879
v -426.776917 191.341721 176.776718
v -453.063873 97.545158 187.665222
v -461.939819 0.000000 191.341797
v -453.063873 -97.545158 187.665222
v -426.776917 -191.341721 176.776718
v -384.088989 -277.785126 159.094879
v -326.640900 -353.553375 135.299042
v -256.640045 -415.734802 106.303802
v -176.776779 -461.939758 73.223335
v -90.119995 -490.392639 37.328922
v -81.105850 490.392639 54.193188
v -159.094894 461.939758 106.303795
v -230.969925 415.734802 154.329178
v -293.969025 353.553375 196.423782
v -345.670929 277.785126 230.969925
v -384.089050 191.341721 256.640015
v -407.746704 97.545158 272.447632
v -415.734802 0.000000 277.785187
v -407.746704 -97.545158 272.447632
v -384.089050 -191.341721 256.640015
v -345.670929 -277.785126 230.969925
v -293.969025 -353.553375 196.423782
v -230.969925 -415.734802 154.329178
v -159.094894 -461.939758 106.303795
v -81.105850 -490.392639 54.193188
v -68.974854 490.392639 68.974838
v -135.299072 461.939758 135.299057
v -196.423752 415.734802 196.423782
v -250.000122 353.553375 250.000061
v -293.968933 277.785126 293.968933
v -326.640900 191.341721 326.640778
v -346.760071 97.545158 346.760040
v -353.553345 0.000000 353.553467
v -346.760071 -97.545158 346.760040
v -326.640900 -191.341721 326.640778
v -293.968933 -277.785126 293.968933
v -250.000122 -353.553375 250.000061
v -196.423752 -415.734802 196.423782
v -135.299072 -461.939758 135.299057
v -68.974854 -490.392639 68.974838
v -54.193192 490.392639 81.105827
v -106.303787 461.939758 159.094864
v -154.329147 415.734802 230.969910
v -196.423828 353.553375 293.968964
v -230.969910 277.785126 345.670898
v -256.640106 191.341721 384.088928
v -272.447601 97.545158 407.746643
v -277.785034 0.000000 415.734833
v -272.447601 -97.545158 407.746643
v -256.640106 -191.341721 384.088928
v -230.969910 -277.785126 345.670898
v -196.423828 -353.553375 293.968964
v -154.329147 -415.734802 230.969910
v -106.303787 -461.939758 159.094864
v -54.193192 -490.392639 81.105827
v -37.328915 490.392639 90.119965
v -73.223305 461.939758 176.776733
v -106.303741 415.734802 256.639984
v -135.299072 353.553375 326.640808
v -159.094818 277.785126 384.088898
v -176.776779 191.341721 426.776733
v -187.665131 97.545158 453.063782
v -191.341599 0.000000 461.939728
v -187.665131 -97.545158 453.063782
v -176.776779 -191.341721 426.776733
v -159.094818 -277.785126 384.088898
v -135.299072 -353.553375 326.640808
v -106.303741 -415.734802 256.639984
v -73.223305 -461.939758 176.776733
v -37.328915 -490.392639 90.119965
v -19.030113 490.392639 95.670830
v -37.328903 461.939758 187.665161
v -54.193150 415.734802 272.447540
v -68.974869 353.553375 346.760040
v -81.105812 277.785126 407.746582
v -90.120026 191.341721 453.063782
v -95.670815 97.545158 480.969910
v -97.545013 0.000000 490.392578
v -95.670815 -97.545158 480.969910
v -90.120026 -191.341721 453.063782
v -81.105812 -277.785126 407.746582
v -68.974869 -353.553375 346.760040
v -54.193150 -415.734802 272.447540
v -37.328903 -461.939758 187.665161
v -19.030113 -490.392639 95.670830
v 0.000004 490.392639 97.545128
v 0.000026 461.939758 191.341736
v 0.000048 415.734802 277.785065
v 0.000007 353.553375 353.553467
v 0.000052 277.785126 415.734802
v -0.000015 191.341721 461.939789
v 0.000067 97.545158 490.392670
v 0.000164 0.000000 499.999847
v 0.000067 -97.545158 490.392670
v -0.000015 -191.341721 461.939789
v 0.000052 -277.785126 415.734802
v 0.000007 -353.553375 353.553467
v 0.000048 -415.734802 277.785065
v 0.000026 -461.939758 191.341736
v 0.000004 -490.392639 97.545128
v 19.030119 490.392639 95.670822
v 37.328957 461.939758 187.665161
v 54.193241 415.734802 272.447510
v 68.974876 353.553375 346.760010
v 81.105911 277.785126 407.746552
v 90.119987 191.341721 453.063751
v 95.670952 97.545158 480.969879
v 97.545319 0.000000 490.392456
v 95.670952 -97.545158 480.969879
v 90.119987 -191.341721 453.063751
v 81.105911 -277.785126 407.746552
v 68.974876 -353.553375 346.760010
v 54.193241 -415.734802 272.447510
v 37.328957 -461.939758 187.665161
v 19.030119 -490.392639 95.670822
v 37.328915 490.392639 90.119949
v 73.223351 461.939758 176.776718
v 106.303818 415.734802 256.639893
v 135.299072 353.553375 326.640778
v 159.094910 277.785126 384.088837
v 176.776718 191.341721 426.776703
v 187.665253 97.545158 453.063690
v 191.341858 0.000000 461.939545
v 187.665253 -97.545158 453.063690
v 176.776718 -191.341721 426.776703
v 159.094910 -277.785126 384.088837
v 135.299072 -353.553375 326.640778
v 106.303818 -415.734802 256.639893
v 73.223351 -461.939758 176.776718
v 37.328915 -490.392639 90.119949
v 54.193184 490.392639 81.105804
v 106.303818 461.939758 159.094818
v 154.329193 415.734802 230.969788
v 196.423828 353.553375 293.968933
v 230.969955 277.785126 345.670807
v 256.640015 191.341721 384.088898
v 272.447693 97.545158 407.746521
v 277.785217 0.000000 415.734528
v 272.447693 -97.545158 407.746521
v 256.640015 -191.341721 384.088898
v 230.969955 -277.785126 345.670807
v 196.423828 -353.553375 293.968933
v 154.329193 -415.734802 230.969788
v 106.303818 -461.939758 159.094818
v 54.193184 -490.392639 81.105804
v 68.974838 490.392639 68.974808
v 135.299072 461.939758 135.299011
v 196.423767 415.734802 196.423630
v 250.000107 353.553375 250.000031
v 293.968964 277.785126 293.968811
v 326.640808 191.341721 326.640747
v 346.760101 97.545158 346.759888
v 353.553436 0.000000 353.553101
v 346.760101 -97.545158 346.759888
v 326.640808 -191.341721 326.640747
v 293.968964 -277.785126 293.968811
v 250.000107 -353.553375 250.000031
v 196.423767 -415.734802 196.423630
v 135.299072 -461.939758 135.299011
v 68.974838 -490.392639 68.974808
v 0.000000 -500.000000 0.000000
v 81.105827 490.392639 54.193157
v 159.094879 461.939758 106.303749
v 230.969894 415.734802 154.329025
v 293.968994 353.553375 196.423752
v 345.670929 277.785126 230.969803
v 384.088959 191.341721 256.639984
v 407.746704 97.545158 272.447449
v 415.734802 0.000000 277.784821
v 407.746704 -97.545158 272.447449
v 384.088959 -191.341721 256.639984
v 345.670929 -277.785126 230.969803
v 293.968994 -353.553375 196.423752
v 230.969894 -415.734802 154.329025
v 159.094879 -461.939758 106.303749
v 81.105827 -490.392639 54.193157
v 90.119957 490.392639 37.328892
v 176.776733 461.939758 73.223282
v 256.639954 415.734802 106.303658
v 326.640869 353.553375 135.299026
v 384.088928 277.785126 159.094727
v 426.776794 191.341721 176.776703
v 453.063843 97.545158 187.665009
v 461.939697 0.000000 191.341415
v 453.063843 -97.545158 187.665009
v 426.776794 -191.341721 176.776703
v 384.088928 -277.785126 159.094727
v 326.640869 -353.553375 135.299026
v 256.639954 -415.734802 106.303658
v 176.776733 -461.939758 73.223282
v 90.119957 -490.392639 37.328892
v 95.670830 490.392639 19.030098
v 187.665176 461.939758 37.328892
v 272.447510 415.734802 54.193096
v 346.760101 353.553375 68.974838
v 407.746613 277.785126 81.105743
v 453.063812 191.341721 90.119972
v 480.970001 97.545158 95.670731
v 490.392517 0.000000 97.544884
v 480.970001 -97.545158 95.670731
v 453.063812 -191.341721 90.119972
v 407.746613 -277.785126 81.105743
v 346.760101 -353.553375 68.974838
v 272.447510 -415.734802 54.193096
v 187.665176 -461.939758 37.328892
v 95.670830 -490.392639 19.030098
v 97.545135 490.392639 -0.000009
v 191.341736 461.939758 -0.000026
v 277.785065 415.734802 -0.000075
v 353.553497 353.553375 -0.000015
v 415.734833 277.785126 -0.000082
v 461.939850 191.341721 -0.000007
v 490.392731 97.545158 -0.000134
v 499.999817 0.000000 -0.000224
v 490.392731 -97.545158 -0.000134
v 461.939850 -191.341721 -0.000007
v 415.734833 -277.785126 -0.000082
v 353.553497 -353.553375 -0.000015
v 277.785065 -415.734802 -0.000075
v 191.341736 -461.939758 -0.000026
v 97.545135 -490.392639 -0.000009
v 95.670822 490.392639 -19.030115
v 187.665161 461.939758 -37.328938
v 272.447479 415.734802 -54.193237
v 346.760071 353.553375 -68.974869
v 407.746552 277.785126 -81.105911
v 453.063782 191.341721 -90.119980
v 480.969910 97.545158 -95.670982
v 490.392426 0.000000 -97.545326
v 480.969910 -97.545158 -95.670982
v 453.063782 -191.341721 -90.119980
v 407.746552 -277.785126 -81.105911
v 346.760071 -353.553375 -68.974869
v 272.447479 -415.734802 -54.193237
v 187.665161 -461.939758 -37.328938
v 95.670822 -490.392639 -19.030115
v 90.119949 490.392639 -37.328907
v 176.776718 461.939758 -73.223320
v 256.639862 415.734802 -106.303780
v 326.640839 353.553375 -135.299042
v 384.088837 277.785126 -159.094864
v 426.776764 191.341721 -176.776688
v 453.063690 97.545158 -187.665237
v 461.939484 0.000000 -191.341812
v 453.063690 -97.545158 -187.665237
v 426.776764 -191.341721 -176.776688
v 384.088837 -277.785126 -159.094864
v 326.640839 -353.553375 -135.299042
v 256.639862 -415.734802 -106.303780
v 176.776718 -461.939758 -73.223320
v 90.119949 -490.392639 -37.328907
v 81.105804 490.392639 -54.193165
v 159.094818 461.939758 -106.303764
v 230.969742 415.734802 -154.329132
v 293.968964 353.553375 -196.423767
v 345.670807 277.785126 -230.969894
v 384.088928 191.341721 -256.639954
v 407.746521 97.545158 -272.447632
v 415.734497 0.000000 -277.785126
v 407.746521 -97.545158 -272.447632
v 384.088928 -191.341721 -256.639954
v 345.670807 -277.785126 -230.969894
v 293.968964 -353.553375 -196.423767
v 230.969742 -415.734802 -154.329132
v 159.094818 -461.939758 -106.303764
v 81.105804 -490.392639 -54.193165
v 68.974815 490.392639 -68.974808
v 135.299026 461.939758 -135.299011
v 196.423584 415.734802 -196.423691
v 250.000061 353.553375 -250.000031
v 293.968811 277.785126 -293.968872
v 326.640778 191.341721 -326.640686
v 346.759888 97.545158 -346.759979
v 353.553070 0.000000 -353.553314
v 346.759888 -97.545158 -346.759979
v 326.640778 -191.341721 -326.640686
v 293.968811 -277.785126 -293.968872
v 250.000061 -353.553375 -250.000031
v 196.423584 -415.734802 -196.423691
v 135.299026 -461.939758 -135.299011
v 68.974815 -490.392639 -68.974808
v 54.193157 490.392639 -81.105789
v 106.303749 461.939758 -159.094803
v 154.328995 415.734802 -230.969803
v 196.423767 353.553375 -293.968933
v 230.969772 277.785126 -345.670807
v 256.639984 191.341721 -384.088837
v 272.447449 97.545158 -407.746552
v 277.784790 0.000000 -415.734619
v 272.447449 -97.545158 -407.746552
v 256.639984 -191.341721 -384.088837
v 230.969772 -277.785126 -345.670807
v 196.423767 -353.553375 -293.968933
v 154.328995 -415.734802 -230.969803
v 106.303749 -461.939758 -159.094803
v 54.193157 -490.392639 -81.105789
v 37.328892 490.392639 -90.119919
v 73.223282 461.939758 -176.776688
v 106.303612 415.734802 -256.639832
v 135.299042 353.553375 -326.640778
v 159.094696 277.785126 -384.088776
v 176.776703 191.341721 -426.776642
v 187.665009 97.545158 -453.063660
v 191.341400 0.000000 -461.939484
v 187.665009 -97.545158 -453.063660
v 176.776703 -191.341721 -426.776642
v 159.094696 -277.785126 -384.088776
v 135.299042 -353.553375 -326.640778
v 106.303612 -415.734802 -256.639832
v 73.223282 -461.939758 -176.776688
v 37.328892 -490.392639 -90.119919
v 19.030100 490.392639 -95.670784
v 37.328888 461.939758 -187.665115
v 54.193054 415.734802 -272.447357
v 68.974831 353.553375 -346.760010
v 81.105713 277.785126 -407.746429
v 90.119957 191.341721 -453.063660
v 95.670723 97.545158 -480.969788
v 97.544868 0.000000 -490.392273
v 95.670723 -97.545158 -480.969788
v 90.119957 -191.341721 -453.063660
v 81.105713 -277.785126 -407.746429
v 68.974831 -353.553375 -346.760010
v 54.193054 -415.734802 -272.447357
v 37.328888 -461.939758 -187.665115
v 19.030100 -490.392639 -95.670784
v -0.000007 490.392639 -97.545082
v -0.000034 461.939758 -191.341675
v -0.000045 353.553375 -353.553436
v -0.000030 191.341721 -461.939697
v -0.000030 -191.341721 -461.939697
v -0.000045 -353.553375 -353.553436
v -0.000108 -415.734802 -277.784882
v -0.000034 -461.939758 -191.341675
v -0.000007 -490.392639 -97.545082
vn 0.0097 -0.9951 0.0980
vn 0.0097 0.9951 0.0980
vn 0.0975 0.0975 0.9904
vn 0.0286 -0.9565 0.2902
vn 0.0938 0.2890 0.9527
vn 0.0464 -0.8810 0.4709
vn 0.0865 0.4696 0.8786
vn 0.0624 -0.7715 0.6332
vn 0.0759 0.6326 0.7708
vn 0.0759 -0.6326 0.7708
vn 0.0624 0.7715 0.6332
vn 0.0865 -0.4696 0.8786
vn 0.0464 0.8810 0.4709
vn 0.0938 -0.2890 0.9527
vn 0.0286 0.9565 0.2902
vn 0.0975 -0.0975 0.9904
vn 0.0846 0.9565 0.2790
vn 0.2889 -0.0976 0.9524
vn 0.0286 -0.9951 0.0942
vn 0.0286 0.9951 0.0942
vn 0.2889 0.0976 0.9524
vn 0.0846 -0.9565 0.2790
vn 0.2779 0.2890 0.9161
vn 0.1374 -0.8810 0.4528
vn 0.2563 0.4696 0.8448
vn 0.1847 -0.7715 0.6088
vn 0.2248 0.6326 0.7412
vn 0.2248 -0.6326 0.7412
vn 0.1847 0.7715 0.6088
vn 0.2563 -0.4696 0.8448
vn 0.1374 0.8810 0.4528
vn 0.2779 -0.2890 0.9161
vn 0.2999 -0.7715 0.5611
vn 0.3651 0.6326 0.6831
vn 0.3651 -0.6326 0.6831
vn 0.2999 0.7715 0.5611
vn 0.4162 -0.4696 0.7786
vn 0.2230 0.8810 0.4173
vn 0.4513 -0.2890 0.8443
vn 0.1374 0.9565 0.2571
vn 0.4691 -0.0975 0.8777
vn 0.0464 -0.9951 0.0869
vn 0.0464 0.9951 0.0869
vn 0.4691 0.0975 0.8777
vn 0.1374 -0.9565 0.2571
vn 0.4513 0.2890 0.8443
vn 0.2230 -0.8810 0.4173
vn 0.4162 0.4696 0.7786
vn 0.6314 -0.0975 0.7693
vn 0.0625 -0.9951 0.0761
vn 0.0625 0.9951 0.0761
vn 0.6314 0.0975 0.7693
vn 0.1850 -0.9565 0.2254
vn 0.6073 0.2890 0.7400
vn 0.3002 -0.8810 0.3658
vn 0.5601 0.4696 0.6825
vn 0.4036 -0.7715 0.4918
vn 0.4913 0.6326 0.5987
vn 0.4913 -0.6326 0.5987
vn 0.4036 0.7715 0.4918
vn 0.5601 -0.4696 0.6825
vn 0.3002 0.8810 0.3658
vn 0.6073 -0.2890 0.7400
vn 0.1850 0.9565 0.2254
vn 0.5987 0.6326 0.4913
vn 0.5987 -0.6326 0.4913
vn 0.4918 0.7715 0.4036
vn 0.6825 -0.4696 0.5601
vn 0.3658 0.8810 0.3002
vn 0.7400 -0.2890 0.6073
vn 0.2254 0.9565 0.1850
vn 0.7693 -0.0975 0.6314
vn 0.0761 -0.9951 0.0625
vn 0.0761 0.9951 0.0625
vn 0.7693 0.0975 0.6314
vn 0.2254 -0.9565 0.1850
vn 0.7400 0.2890 0.6073
vn 0.3658 -0.8810 0.3002
vn 0.6825 0.4696 0.5601
vn 0.4918 -0.7715 0.4036
vn 0.0869 -0.9951 0.0464
vn 0.0869 0.9951 0.0464
vn 0.8777 0.0975 0.4691
vn 0.2571 -0.9565 0.1374
vn 0.8443 0.2890 0.4513
vn 0.4173 -0.8810 0.2230
vn 0.7786 0.4696 0.4162
vn 0.5611 -0.7715 0.2999
vn 0.6831 0.6326 0.3651
vn 0.6831 -0.6326 0.3651
vn 0.5611 0.7715 0.2999
vn 0.7786 -0.4696 0.4162
vn 0.4173 0.8810 0.2230
vn 0.8443 -0.2890 0.4513
vn 0.2571 0.9565 0.1374
vn 0.8777 -0.0975 0.4691
vn 0.7412 -0.6326 0.2248
vn 0.6088 0.7715 0.1847
vn 0.8448 -0.4696 0.2563
vn 0.4528 0.8810 0.1374
vn 0.9161 -0.2890 0.2779
vn 0.2790 0.9565 0.0846
vn 0.9524 -0.0975 0.2889
vn 0.0942 -0.9951 0.0286
vn 0.0942 0.9951 0.0286
vn 0.9524 0.0975 0.2889
vn 0.2790 -0.9565 0.0846
vn 0.9161 0.2890 0.2779
vn 0.4528 -0.8810 0.1374
vn 0.8448 0.4696 0.2563
vn 0.6088 -0.7715 0.1847
vn 0.7412 0.6326 0.2248
vn 0.9904 0.0975 0.0975
vn 0.2902 -0.9565 0.0286
vn 0.9527 0.2890 0.0938
vn 0.4709 -0.8810 0.0464
vn 0.8786 0.4696 0.0865
vn 0.6332 -0.7715 0.0624
vn 0.7708 0.6326 0.0759
vn 0.7708 -0.6326 0.0759
vn 0.6332 0.7715 0.0624
vn 0.8786 -0.4696 0.0865
vn 0.4709 0.8810 0.0464
vn 0.9527 -0.2890 0.0938
vn 0.2902 0.9565 0.0286
vn 0.9904 -0.0975 0.0975
vn 0.0980 -0.9951 0.0097
vn 0.0980 0.9951 0.0097
vn 0.6332 0.7715 -0.0624
vn 0.8786 -0.4696 -0.0865
vn 0.4709 0.8810 -0.0464
vn 0.9527 -0.2890 -0.0938
vn 0.2902 0.9565 -0.0286
vn 0.9904 -0.0975 -0.0976
vn 0.0980 -0.9951 -0.0097
vn 0.0980 0.9951 -0.0097
vn 0.9904 0.0975 -0.0976
vn 0.2902 -0.9565 -0.0286
vn 0.9527 0.2890 -0.0938
vn 0.4709 -0.8810 -0.0464
vn 0.8786 0.4696 -0.0865
vn 0.6332 -0.7715 -0.0624
vn 0.7708 0.6326 -0.0759
vn 0.7708 -0.6326 -0.0759
vn 0.9161 0.2890 -0.2779
vn 0.4528 -0.8810 -0.1374
vn 0.8448 0.4696 -0.2563
vn 0.6088 -0.7715 -0.1847
vn 0.7412 0.6326 -0.2248
vn 0.7412 -0.6326 -0.2248
vn 0.6088 0.7715 -0.1847
vn 0.8448 -0.4696 -0.2563
vn 0.4528 0.8810 -0.1374
vn 0.9161 -0.2890 -0.2779
vn 0.2790 0.9565 -0.0846
vn 0.9524 -0.0975 -0.2889
vn 0.0942 -0.9951 -0.0286
vn 0.0942 0.9951 -0.0286
vn 0.9524 0.0975 -0.2889
vn 0.2790 -0.9565 -0.0846
vn 0.4173 0.8810 -0.2230
vn 0.8443 -0.2890 -0.4513
vn 0.2571 0.9565 -0.1374
vn 0.8777 -0.0975 -0.4691
vn 0.0869 -0.9951 -0.0464
vn 0.0869 0.9951 -0.0464
vn 0.8777 0.0975 -0.4691
vn 0.2571 -0.9565 -0.1374
vn 0.8443 0.2890 -0.4513
vn 0.4173 -0.8810 -0.2230
vn 0.7786 0.4696 -0.4162
vn 0.5611 -0.7715 -0.2999
vn 0.6831 0.6326 -0.3651
vn 0.6831 -0.6326 -0.3651
vn 0.5611 0.7715 -0.2999
vn 0.7786 -0.4696 -0.4162
vn 0.3658 -0.8810 -0.3002
vn 0.6825 0.4696 -0.5601
vn 0.4918 -0.7715 -0.4036
vn 0.5987 0.6326 -0.4913
vn 0.5987 -0.6326 -0.4913
vn 0.4918 0.7715 -0.4036
vn 0.6825 -0.4696 -0.5601
vn 0.3658 0.8810 -0.3002
vn 0.7400 -0.2890 -0.6073
vn 0.2254 0.9565 -0.1850
vn 0.7693 -0.0975 -0.6314
vn 0.0761 -0.9951 -0.0625
vn 0.0761 0.9951 -0.0625
vn 0.7693 0.0975 -0.6314
vn 0.2254 -0.9565 -0.1850
vn 0.7400 0.2890 -0.6073
vn 0.6073 -0.2890 -0.7400
vn 0.1850 0.9565 -0.2254
vn 0.6314 -0.0975 -0.7693
vn 0.0625 -0.9951 -0.0761
vn 0.0625 0.9951 -0.0761
vn 0.6314 0.0975 -0.7693
vn 0.1850 -0.9565 -0.2254
vn 0.6073 0.2890 -0.7400
vn 0.3002 -0.8810 -0.3658
vn 0.5601 0.4696 -0.6825
vn 0.4036 -0.7715 -0.4918
vn 0.4913 0.6326 -0.5987
vn 0.4913 -0.6326 -0.5987
vn 0.4036 0.7715 -0.4918
vn 0.5601 -0.4696 -0.6825
vn 0.3002 0.8810 -0.3658
vn 0.4162 0.4696 -0.7786
vn 0.2999 -0.7715 -0.5611
vn 0.3651 0.6326 -0.6831
vn 0.3651 -0.6326 -0.6831
vn 0.2999 0.7715 -0.5611
vn 0.4162 -0.4696 -0.7786
vn 0.2230 0.8810 -0.4173
vn 0.4513 -0.2890 -0.8443
vn 0.1374 0.9565 -0.2571
vn 0.4691 -0.0975 -0.8777
vn 0.0464 -0.9951 -0.0869
vn 0.0464 0.9951 -0.0869
vn 0.4691 0.0975 -0.8777
vn 0.1374 -0.9565 -0.2571
vn 0.4513 0.2890 -0.8443
vn 0.2230 -0.8810 -0.4173
vn 0.0846 0.9565 -0.2790
vn 0.2889 -0.0975 -0.9524
vn 0.0286 -0.9951 -0.0942
vn 0.0286 0.9951 -0.0942
vn 0.2889 0.0975 -0.9524
vn 0.0846 -0.9565 -0.2790
vn 0.2779 0.2890 -0.9161
vn 0.1374 -0.8810 -0.4528
vn 0.2563 0.4696 -0.8448
vn 0.1847 -0.7715 -0.6088
vn 0.2248 0.6326 -0.7412
vn 0.2248 -0.6326 -0.7412
vn 0.1847 0.7715 -0.6088
vn 0.2563 -0.4696 -0.8448
vn 0.1374 0.8810 -0.4528
vn 0.2779 -0.2890 -0.9161
vn 0.0624 -0.7715 -0.6332
vn 0.0759 0.6326 -0.7708
vn 0.0759 -0.6326 -0.7708
vn 0.0624 0.7715 -0.6332
vn 0.0865 -0.4696 -0.8786
vn 0.0464 0.8810 -0.4709
vn 0.0938 -0.2890 -0.9527
vn 0.0286 0.9565 -0.2902
vn 0.0975 -0.0975 -0.9904
vn 0.0097 -0.9951 -0.0980
vn 0.0097 0.9951 -0.0980
vn 0.0975 0.0975 -0.9904
vn 0.0286 -0.9565 -0.2902
vn 0.0938 0.2890 -0.9527
vn 0.0464 -0.8810 -0.4709
vn 0.0865 0.4696 -0.8786
vn -0.0976 -0.0975 -0.9904
vn -0.0097 -0.9951 -0.0980
vn -0.0097 0.9951 -0.0980
vn -0.0976 0.0975 -0.9904
vn -0.0286 -0.9565 -0.2902
vn -0.0938 0.2890 -0.9527
vn -0.0464 -0.8810 -0.4709
vn -0.0865 0.4696 -0.8786
vn -0.0624 -0.7715 -0.6332
vn -0.0759 0.6326 -0.7708
vn -0.0759 -0.6326 -0.7708
vn -0.0624 0.7715 -0.6332
vn -0.0865 -0.4696 -0.8786
vn -0.0464 0.8810 -0.4709
vn -0.0938 -0.2890 -0.9527
vn -0.0286 0.9565 -0.2902
vn -0.2248 0.6326 -0.7412
vn -0.2248 -0.6326 -0.7412
vn -0.1847 0.7715 -0.6088
vn -0.2563 -0.4696 -0.8448
vn -0.1374 0.8810 -0.4528
vn -0.2779 -0.2890 -0.9161
vn -0.0846 0.9565 -0.2790
vn -0.2889 -0.0975 -0.9524
vn -0.0286 -0.9951 -0.0942
vn -0.0286 0.9951 -0.0942
vn -0.2889 0.0975 -0.9524
vn -0.0846 -0.9565 -0.2790
vn -0.2779 0.2890 -0.9161
vn -0.1374 -0.8810 -0.4528
vn -0.2563 0.4696 -0.8448
vn -0.1847 -0.7715 -0.6088
vn -0.0464 0.9951 -0.0869
vn -0.4691 0.0975 -0.8777
vn -0.1374 -0.9565 -0.2571
vn -0.4513 0.2890 -0.8443
vn -0.2231 -0.8810 -0.4173
vn -0.4162 0.4696 -0.7786
vn -0.2999 -0.7715 -0.5611
vn -0.3651 0.6326 -0.6831
vn -0.3651 -0.6326 -0.6831
vn -0.2999 0.7715 -0.5611
vn -0.4162 -0.4696 -0.7786
vn -0.2230 0.8810 -0.4173
vn -0.4513 -0.2890 -0.8443
vn -0.1374 0.9565 -0.2571
vn -0.4691 -0.0975 -0.8777
vn -0.0464 -0.9951 -0.0869
vn -0.4036 0.7715 -0.4918
vn -0.5601 -0.4696 -0.6825
vn -0.3002 0.8810 -0.3658
vn -0.6073 -0.2890 -0.7400
vn -0.1850 0.9565 -0.2254
vn -0.6314 -0.0975 -0.7693
vn -0.0625 -0.9951 -0.0761
vn -0.0625 0.9951 -0.0761
vn -0.6314 0.0975 -0.7693
vn -0.1850 -0.9565 -0.2254
vn -0.6073 0.2890 -0.7400
vn -0.3002 -0.8810 -0.3658
vn -0.5601 0.4696 -0.6825
vn -0.4036 -0.7715 -0.4918
vn -0.4913 0.6326 -0.5987
vn -0.4913 -0.6326 -0.5987
vn -0.2254 -0.9565 -0.1850
vn -0.7400 0.2890 -0.6073
vn -0.3658 -0.8810 -0.3002
vn -0.6825 0.4696 -0.5601
vn -0.4918 -0.7715 -0.4036
vn -0.5987 0.6326 -0.4913
vn -0.5987 -0.6326 -0.4913
vn -0.4918 0.7715 -0.4036
vn -0.6825 -0.4696 -0.5601
vn -0.3658 0.8810 -0.3002
vn -0.7400 -0.2890 -0.6073
vn -0.2254 0.9565 -0.1850
vn -0.7693 -0.0975 -0.6314
vn -0.0761 -0.9951 -0.0625
vn -0.0761 0.9951 -0.0625
vn -0.7693 0.0975 -0.6314
vn -0.7786 -0.4696 -0.4162
vn -0.4173 0.8810 -0.2230
vn -0.8443 -0.2890 -0.4513
vn -0.2571 0.9565 -0.1374
vn -0.8777 -0.0975 -0.4691
vn -0.0869 -0.9951 -0.0464
vn -0.0869 0.9951 -0.0464
vn -0.8777 0.0975 -0.4691
vn -0.2571 -0.9565 -0.1374
vn -0.8443 0.2890 -0.4513
vn -0.4173 -0.8810 -0.2230
vn -0.7786 0.4696 -0.4162
vn -0.5611 -0.7715 -0.2999
vn -0.6831 0.6326 -0.3651
vn -0.6831 -0.6326 -0.3651
vn -0.5611 0.7715 -0.2999
vn -0.9161 0.2890 -0.2779
vn -0.4528 -0.8810 -0.1374
vn -0.8448 0.4696 -0.2563
vn -0.6088 -0.7715 -0.1847
vn -0.7412 0.6326 -0.2248
vn -0.7412 -0.6326 -0.2248
vn -0.6088 0.7715 -0.1847
vn -0.8448 -0.4696 -0.2563
vn -0.4528 0.8810 -0.1374
vn -0.9161 -0.2890 -0.2779
vn -0.2790 0.9565 -0.0846
vn -0.9524 -0.0975 -0.2889
vn -0.0942 -0.9951 -0.0286
vn -0.0942 0.9951 -0.0286
vn -0.9524 0.0975 -0.2889
vn -0.2790 -0.9565 -0.0846
vn -0.4709 0.8810 -0.0464
vn -0.9527 -0.2890 -0.0938
vn -0.2902 0.9565 -0.0286
vn -0.9904 -0.0975 -0.0975
vn -0.0980 -0.9951 -0.0097
vn -0.0980 0.9951 -0.0097
vn -0.9904 0.0975 -0.0975
vn -0.2902 -0.9565 -0.0286
vn -0.9527 0.2890 -0.0938
vn -0.4709 -0.8810 -0.0464
vn -0.8786 0.4696 -0.0865
vn -0.6332 -0.7715 -0.0624
vn -0.7708 0.6326 -0.0759
vn -0.7708 -0.6326 -0.0759
vn -0.6332 0.7715 -0.0624
vn -0.8786 -0.4696 -0.0865
vn -0.4709 -0.8810 0.0464
vn -0.8786 0.4696 0.0865
vn -0.6332 -0.7715 0.0624
vn -0.7708 0.6326 0.0759
vn -0.7708 -0.6326 0.0759
vn -0.6332 0.7715 0.0624
vn -0.8786 -0.4696 0.0865
vn -0.4709 0.8810 0.0464
vn -0.9527 -0.2890 0.0938
vn -0.2902 0.9565 0.0286
vn -0.9904 -0.0975 0.0976
vn -0.0980 -0.9951 0.0097
vn -0.0980 0.9951 0.0097
vn -0.9904 0.0975 0.0976
vn -0.2902 -0.9565 0.0286
vn -0.9527 0.2890 0.0938
vn -0.9161 -0.2890 0.2779
vn -0.2790 0.9565 0.0846
vn -0.9524 -0.0975 0.2889
vn -0.0942 -0.9951 0.0286
vn -0.0942 0.9951 0.0286
vn -0.9524 0.0975 0.2889
vn -0.2790 -0.9565 0.0846
vn -0.9161 0.2890 0.2779
vn -0.4528 -0.8810 0.1374
vn -0.8448 0.4696 0.2563
vn -0.6088 -0.7715 0.1847
vn -0.7412 0.6326 0.2248
vn -0.7412 -0.6326 0.2248
vn -0.6088 0.7715 0.1847
vn -0.8448 -0.4696 0.2563
vn -0.4528 0.8810 0.1374
vn -0.7786 0.4696 0.4162
vn -0.5611 -0.7715 0.2999
vn -0.6831 0.6326 0.3651
vn -0.6831 -0.6326 0.3651
vn -0.5611 0.7715 0.2999
vn -0.7786 -0.4696 0.4162
vn -0.4173 0.8810 0.2231
vn -0.8443 -0.2890 0.4513
vn -0.2571 0.9565 0.1374
vn -0.8777 -0.0975 0.4691
vn -0.0869 -0.9951 0.0464
vn -0.0869 0.9951 0.0464
vn -0.8777 0.0975 0.4691
vn -0.2571 -0.9565 0.1374
vn -0.8443 0.2890 0.4513
vn -0.4173 -0.8810 0.2231
vn -0.2254 0.9565 0.1850
vn -0.7693 -0.0975 0.6314
vn -0.0761 -0.9951 0.0625
vn -0.0761 0.9951 0.0625
vn -0.7693 0.0975 0.6314
vn -0.2254 -0.9565 0.1850
vn -0.7400 0.2890 0.6073
vn -0.3658 -0.8810 0.3002
vn -0.6825 0.4696 0.5601
vn -0.4918 -0.7715 0.4036
vn -0.5987 0.6326 0.4913
vn -0.5987 -0.6326 0.4913
vn -0.4918 0.7715 0.4036
vn -0.6825 -0.4696 0.5601
vn -0.3658 0.8810 0.3002
vn -0.7400 -0.2890 0.6073
vn -0.4913 0.6326 0.5987
vn -0.4913 -0.6326 0.5987
vn -0.4036 0.7715 0.4918
vn -0.5601 -0.4696 0.6825
vn -0.3002 0.8810 0.3658
vn -0.6073 -0.2890 0.7400
vn -0.1850 0.9565 0.2254
vn -0.6314 -0.0975 0.7693
vn -0.0625 -0.9951 0.0761
vn -0.0625 0.9951 0.0761
vn -0.6314 0.0975 0.7693
vn -0.1850 -0.9565 0.2254
vn -0.6073 0.2890 0.7400
vn -0.3002 -0.8810 0.3658
vn -0.5601 0.4696 0.6825
vn -0.4036 -0.7715 0.4918
vn -0.0464 -0.9951 0.0869
vn -0.0464 0.9951 0.0869
vn -0.4691 0.0975 0.8777
vn -0.1374 -0.9565 0.2571
vn -0.4513 0.2890 0.8443
vn -0.2230 -0.8810 0.4173
vn -0.4162 0.4696 0.7786
vn -0.2999 -0.7715 0.5611
vn -0.3651 0.6326 0.6831
vn -0.3651 -0.6326 0.6831
vn -0.2999 0.7715 0.5611
vn -0.4162 -0.4696 0.7786
vn -0.2230 0.8810 0.4173
vn -0.4513 -0.2890 0.8443
vn -0.1374 0.9565 0.2571
vn -0.4691 -0.0975 0.8777
vn -0.2248 -0.6326 0.7412
vn -0.1847 0.7715 0.6088
vn -0.2563 -0.4696 0.8448
vn -0.1374 0.8810 0.4528
vn -0.2779 -0.2890 0.9161
vn -0.0846 0.9565 0.2790
vn -0.2889 -0.0975 0.9524
vn -0.0286 -0.9951 0.0942
vn -0.0286 0.9951 0.0942
vn -0.2889 0.0975 0.9524
vn -0.0846 -0.9565 0.2790
vn -0.2779 0.2890 0.9161
vn -0.1374 -0.8810 0.4528
vn -0.2563 0.4696 0.8448
vn -0.1847 -0.7715 0.6088
vn -0.2248 0.6326 0.7412
vn -0.0976 0.0975 0.9904
vn -0.0286 -0.9565 0.2902
vn -0.0938 0.2890 0.9527
vn -0.0464 -0.8810 0.4709
vn -0.0865 0.4696 0.8786
vn -0.0624 -0.7715 0.6332
vn -0.0759 0.6326 0.7708
vn -0.0759 -0.6326 0.7708
vn -0.0624 0.7715 0.6332
vn -0.0865 -0.4696 0.8786
vn -0.0464 0.8810 0.4709
vn -0.0938 -0.2890 0.9527
vn -0.0286 0.9565 0.2902
vn -0.0976 -0.0975 0.9904
vn -0.0097 -0.9951 0.0980
vn -0.0097 0.9951 0.0980
vt 0.750000 0.937500
vt 0.718750 0.937500
vt 0.734375 1.000000
vt 0.734375 0.000000
vt 0.718750 0.062500
vt 0.750000 0.062500
vt 0.750000 0.437500
vt 0.718750 0.437500
vt 0.718750 0.500000
vt 0.750000 0.500000
vt 0.750000 0.875000
vt 0.718750 0.875000
vt 0.750000 0.375000
vt 0.718750 0.375000
vt 0.750000 0.812500
vt 0.718750 0.812500
vt 0.750000 0.312500
vt 0.718750 0.312500
vt 0.750000 0.750000
vt 0.718750 0.750000
vt 0.750000 0.250000
vt 0.718750 0.250000
vt 0.750000 0.687500
vt 0.718750 0.687500
vt 0.750000 0.187500
vt 0.718750 0.187500
vt 0.750000 0.625000
vt 0.718750 0.625000
vt 0.750000 0.125000
vt 0.718750 0.125000
vt 0.750000 0.562500
vt 0.718750 0.562500
vt 0.687500 0.062500
vt 0.687500 0.125000
vt 0.687500 0.500000
vt 0.687500 0.562500
vt 0.687500 0.937500
vt 0.703125 1.000000
vt 0.703125 0.000000
vt 0.687500 0.437500
vt 0.687500 0.875000
vt 0.687500 0.375000
vt 0.687500 0.812500
vt 0.687500 0.312500
vt 0.687500 0.750000
vt 0.687500 0.250000
vt 0.687500 0.687500
vt 0.687500 0.187500
vt 0.687500 0.625000
vt 0.656250 0.750000
vt 0.656250 0.812500
vt 0.656250 0.250000
vt 0.656250 0.312500
vt 0.656250 0.687500
vt 0.656250 0.187500
vt 0.656250 0.625000
vt 0.656250 0.125000
vt 0.656250 0.562500
vt 0.656250 0.062500
vt 0.656250 0.500000
vt 0.656250 0.937500
vt 0.671875 1.000000
vt 0.671875 0.000000
vt 0.656250 0.437500
vt 0.656250 0.875000
vt 0.656250 0.375000
vt 0.625000 0.500000
vt 0.625000 0.562500
vt 0.625000 0.937500
vt 0.640625 1.000000
vt 0.640625 0.000000
vt 0.625000 0.062500
vt 0.625000 0.437500
vt 0.625000 0.875000
vt 0.625000 0.375000
vt 0.625000 0.812500
vt 0.625000 0.312500
vt 0.625000 0.750000
vt 0.625000 0.250000
vt 0.625000 0.687500
vt 0.625000 0.187500
vt 0.625000 0.625000
vt 0.625000 0.125000
vt 0.593750 0.250000
vt 0.593750 0.312500
vt 0.593750 0.687500
vt 0.593750 0.750000
vt 0.593750 0.187500
vt 0.593750 0.625000
vt 0.593750 0.125000
vt 0.593750 0.562500
vt 0.593750 0.062500
vt 0.593750 0.500000
vt 0.593750 0.937500
vt 0.609375 1.000000
vt 0.609375 0.000000
vt 0.593750 0.437500
vt 0.593750 0.875000
vt 0.593750 0.375000
vt 0.593750 0.812500
vt 0.562500 0.937500
vt 0.578125 1.000000
vt 0.578125 0.000000
vt 0.562500 0.062500
vt 0.562500 0.437500
vt 0.562500 0.500000
vt 0.562500 0.875000
vt 0.562500 0.375000
vt 0.562500 0.812500
vt 0.562500 0.312500
vt 0.562500 0.750000
vt 0.562500 0.250000
vt 0.562500 0.687500
vt 0.562500 0.187500
vt 0.562500 0.625000
vt 0.562500 0.125000
vt 0.562500 0.562500
vt 0.531250 0.687500
vt 0.531250 0.750000
vt 0.531250 0.187500
vt 0.531250 0.250000
vt 0.531250 0.625000
vt 0.531250 0.125000
vt 0.531250 0.562500
vt 0.531250 0.062500
vt 0.531250 0.500000
vt 0.531250 0.937500
vt 0.546875 1.000000
vt 0.546875 0.000000
vt 0.531250 0.437500
vt 0.531250 0.875000
vt 0.531250 0.375000
vt 0.531250 0.812500
vt 0.531250 0.312500
vt 0.500000 0.437500
vt 0.500000 0.500000
vt 0.500000 0.875000
vt 0.500000 0.937500
vt 0.500000 0.375000
vt 0.500000 0.812500
vt 0.500000 0.312500
vt 0.500000 0.750000
vt 0.500000 0.250000
vt 0.500000 0.687500
vt 0.500000 0.187500
vt 0.500000 0.625000
vt 0.500000 0.125000
vt 0.500000 0.562500
vt 0.500000 0.062500
vt 0.515625 1.000000
vt 0.515625 0.000000
vt 0.468750 0.187500
vt 0.468750 0.250000
vt 0.468750 0.625000
vt 0.468750 0.687500
vt 0.468750 0.125000
vt 0.468750 0.562500
vt 0.468750 0.062500
vt 0.468750 0.500000
vt 0.468750 0.937500
vt 0.484375 1.000000
vt 0.484375 0.000000
vt 0.468750 0.437500
vt 0.468750 0.875000
vt 0.468750 0.375000
vt 0.468750 0.812500
vt 0.468750 0.312500
vt 0.468750 0.750000
vt 0.437500 0.375000
vt 0.437500 0.437500
vt 0.437500 0.812500
vt 0.437500 0.875000
vt 0.437500 0.312500
vt 0.437500 0.750000
vt 0.437500 0.250000
vt 0.437500 0.687500
vt 0.437500 0.187500
vt 0.437500 0.625000
vt 0.437500 0.125000
vt 0.437500 0.562500
vt 0.437500 0.062500
vt 0.437500 0.500000
vt 0.437500 0.937500
vt 0.453125 1.000000
vt 0.453125 0.000000
vt 0.406250 0.125000
vt 0.406250 0.187500
vt 0.406250 0.562500
vt 0.406250 0.625000
vt 0.406250 0.062500
vt 0.406250 0.500000
vt 0.406250 0.937500
vt 0.421875 1.000000
vt 0.421875 0.000000
vt 0.406250 0.437500
vt 0.406250 0.875000
vt 0.406250 0.375000
vt 0.406250 0.812500
vt 0.406250 0.312500
vt 0.406250 0.750000
vt 0.406250 0.250000
vt 0.406250 0.687500
vt 0.375000 0.812500
vt 0.375000 0.875000
vt 0.375000 0.312500
vt 0.375000 0.375000
vt 0.375000 0.750000
vt 0.375000 0.250000
vt 0.375000 0.687500
vt 0.375000 0.187500
vt 0.375000 0.625000
vt 0.375000 0.125000
vt 0.375000 0.562500
vt 0.375000 0.062500
vt 0.375000 0.500000
vt 0.375000 0.937500
vt 0.390625 1.000000
vt 0.390625 0.000000
vt 0.375000 0.437500
vt 0.343750 0.562500
vt 0.343750 0.625000
vt 0.343750 0.062500
vt 0.343750 0.125000
vt 0.343750 0.500000
vt 0.343750 0.937500
vt 0.359375 1.000000
vt 0.359375 0.000000
vt 0.343750 0.437500
vt 0.343750 0.875000
vt 0.343750 0.375000
vt 0.343750 0.812500
vt 0.343750 0.312500
vt 0.343750 0.750000
vt 0.343750 0.250000
vt 0.343750 0.687500
vt 0.343750 0.187500
vt 0.312500 0.312500
vt 0.312500 0.375000
vt 0.312500 0.750000
vt 0.312500 0.812500
vt 0.312500 0.250000
vt 0.312500 0.687500
vt 0.312500 0.187500
vt 0.312500 0.625000
vt 0.312500 0.125000
vt 0.312500 0.562500
vt 0.312500 0.062500
vt 0.312500 0.500000
vt 0.312500 0.937500
vt 0.328125 1.000000
vt 0.328125 0.000000
vt 0.312500 0.437500
vt 0.312500 0.875000
vt 0.281250 0.062500
vt 0.281250 0.125000
vt 0.281250 0.500000
vt 0.281250 0.562500
vt 0.281250 0.937500
vt 0.296875 1.000000
vt 0.296875 0.000000
vt 0.281250 0.437500
vt 0.281250 0.875000
vt 0.281250 0.375000
vt 0.281250 0.812500
vt 0.281250 0.312500
vt 0.281250 0.750000
vt 0.281250 0.250000
vt 0.281250 0.687500
vt 0.281250 0.187500
vt 0.281250 0.625000
vt 0.250000 0.750000
vt 0.250000 0.812500
vt 0.250000 0.250000
vt 0.250000 0.312500
vt 0.250000 0.687500
vt 0.250000 0.187500
vt 0.250000 0.625000
vt 0.250000 0.125000
vt 0.250000 0.562500
vt 0.250000 0.062500
vt 0.250000 0.500000
vt 0.250000 0.937500
vt 0.265625 1.000000
vt 0.265625 0.000000
vt 0.250000 0.437500
vt 0.250000 0.875000
vt 0.250000 0.375000
vt 0.218750 0.500000
vt 0.218750 0.562500
vt 0.218750 0.937500
vt 0.234375 1.000000
vt 0.234375 0.000000
vt 0.218750 0.062500
vt 0.218750 0.437500
vt 0.218750 0.875000
vt 0.218750 0.375000
vt 0.218750 0.812500
vt 0.218750 0.312500
vt 0.218750 0.750000
vt 0.218750 0.250000
vt 0.218750 0.687500
vt 0.218750 0.187500
vt 0.218750 0.625000
vt 0.218750 0.125000
vt 0.187500 0.250000
vt 0.187500 0.312500
vt 0.187500 0.687500
vt 0.187500 0.750000
vt 0.187500 0.187500
vt 0.187500 0.625000
vt 0.187500 0.125000
vt 0.187500 0.562500
vt 0.187500 0.062500
vt 0.187500 0.500000
vt 0.187500 0.937500
vt 0.203125 1.000000
vt 0.203125 0.000000
vt 0.187500 0.437500
vt 0.187500 0.875000
vt 0.187500 0.375000
vt 0.187500 0.812500
vt 0.171875 0.000000
vt 0.156250 0.062500
vt 0.156250 0.437500
vt 0.156250 0.500000
vt 0.156250 0.875000
vt 0.156250 0.937500
vt 0.156250 0.375000
vt 0.156250 0.812500
vt 0.156250 0.312500
vt 0.156250 0.750000
vt 0.156250 0.250000
vt 0.156250 0.687500
vt 0.156250 0.187500
vt 0.156250 0.625000
vt 0.156250 0.125000
vt 0.156250 0.562500
vt 0.171875 1.000000
vt 0.125000 0.187500
vt 0.125000 0.250000
vt 0.125000 0.625000
vt 0.125000 0.687500
vt 0.125000 0.125000
vt 0.125000 0.562500
vt 0.125000 0.062500
vt 0.125000 0.500000
vt 0.125000 0.937500
vt 0.140625 1.000000
vt 0.140625 0.000000
vt 0.125000 0.437500
vt 0.125000 0.875000
vt 0.125000 0.375000
vt 0.125000 0.812500
vt 0.125000 0.312500
vt 0.125000 0.750000
vt 0.093750 0.875000
vt 0.093750 0.937500
vt 0.093750 0.375000
vt 0.093750 0.437500
vt 0.093750 0.812500
vt 0.093750 0.312500
vt 0.093750 0.750000
vt 0.093750 0.250000
vt 0.093750 0.687500
vt 0.093750 0.187500
vt 0.093750 0.625000
vt 0.093750 0.125000
vt 0.093750 0.562500
vt 0.093750 0.062500
vt 0.093750 0.500000
vt 0.109375 1.000000
vt 0.109375 0.000000
vt 0.062500 0.625000
vt 0.062500 0.687500
vt 0.062500 0.125000
vt 0.062500 0.187500
vt 0.062500 0.562500
vt 0.062500 0.062500
vt 0.062500 0.500000
vt 0.062500 0.937500
vt 0.078125 1.000000
vt 0.078125 0.000000
vt 0.062500 0.437500
vt 0.062500 0.875000
vt 0.062500 0.375000
vt 0.062500 0.812500
vt 0.062500 0.312500
vt 0.062500 0.750000
vt 0.062500 0.250000
vt 0.031250 0.375000
vt 0.031250 0.437500
vt 0.031250 0.812500
vt 0.031250 0.875000
vt 0.031250 0.312500
vt 0.031250 0.750000
vt 0.031250 0.250000
vt 0.031250 0.687500
vt 0.031250 0.187500
vt 0.031250 0.625000
vt 0.031250 0.125000
vt 0.031250 0.562500
vt 0.031250 0.062500
vt 0.031250 0.500000
vt 0.031250 0.937500
vt 0.046875 1.000000
vt 0.046875 0.000000
vt 0.000000 0.125000
vt 0.000000 0.187500
vt 0.000000 0.562500
vt 0.000000 0.625000
vt 0.000000 0.062500
vt 0.000000 0.500000
vt 0.000000 0.937500
vt 0.015625 1.000000
vt 0.015625 0.000000
vt 0.000000 0.437500
vt 0.000000 0.875000
vt 0.000000 0.375000
vt 0.000000 0.812500
vt 0.000000 0.312500
vt 0.000000 0.750000
vt 0.000000 0.250000
vt 0.000000 0.687500
vt 1.000000 0.812500
vt 0.968750 0.812500
vt 0.968750 0.875000
vt 1.000000 0.875000
vt 1.000000 0.312500
vt 0.968750 0.312500
vt 0.968750 0.375000
vt 1.000000 0.375000
vt 1.000000 0.750000
vt 0.968750 0.750000
vt 1.000000 0.250000
vt 0.968750 0.250000
vt 1.000000 0.687500
vt 0.968750 0.687500
vt 1.000000 0.187500
vt 0.968750 0.187500
vt 1.000000 0.625000
vt 0.968750 0.625000
vt 1.000000 0.125000
vt 0.968750 0.125000
vt 1.000000 0.562500
vt 0.968750 0.562500
vt 1.000000 0.062500
vt 0.968750 0.062500
vt 1.000000 0.500000
vt 0.968750 0.500000
vt 1.000000 0.937500
vt 0.968750 0.937500
vt 0.984375 1.000000
vt 0.984375 0.000000
vt 1.000000 0.437500
vt 0.968750 0.437500
vt 0.937500 0.562500
vt 0.937500 0.625000
vt 0.937500 0.062500
vt 0.937500 0.125000
vt 0.937500 0.500000
vt 0.937500 0.937500
vt 0.953125 1.000000
vt 0.953125 0.000000
vt 0.937500 0.437500
vt 0.937500 0.875000
vt 0.937500 0.375000
vt 0.937500 0.812500
vt 0.937500 0.312500
vt 0.937500 0.750000
vt 0.937500 0.250000
vt 0.937500 0.687500
vt 0.937500 0.187500
vt 0.906250 0.312500
vt 0.906250 0.375000
vt 0.906250 0.750000
vt 0.906250 0.812500
vt 0.906250 0.250000
vt 0.906250 0.687500
vt 0.906250 0.187500
vt 0.906250 0.625000
vt 0.906250 0.125000
vt 0.906250 0.562500
vt 0.906250 0.062500
vt 0.906250 0.500000
vt 0.906250 0.937500
vt 0.921875 1.000000
vt 0.921875 0.000000
vt 0.906250 0.437500
vt 0.906250 0.875000
vt 0.875000 0.062500
vt 0.875000 0.125000
vt 0.875000 0.500000
vt 0.875000 0.562500
vt 0.875000 0.937500
vt 0.890625 1.000000
vt 0.890625 0.000000
vt 0.875000 0.437500
vt 0.875000 0.875000
vt 0.875000 0.375000
vt 0.875000 0.812500
vt 0.875000 0.312500
vt 0.875000 0.750000
vt 0.875000 0.250000
vt 0.875000 0.687500
vt 0.875000 0.187500
vt 0.875000 0.625000
vt 0.843750 0.250000
vt 0.843750 0.312500
vt 0.843750 0.687500
vt 0.843750 0.750000
vt 0.843750 0.187500
vt 0.843750 0.625000
vt 0.843750 0.125000
vt 0.843750 0.562500
vt 0.843750 0.062500
vt 0.843750 0.500000
vt 0.843750 0.937500
vt 0.859375 1.000000
vt 0.859375 0.000000
vt 0.843750 0.437500
vt 0.843750 0.875000
vt 0.843750 0.375000
vt 0.843750 0.812500
vt 0.812500 0.937500
vt 0.828125 1.000000
vt 0.828125 0.000000
vt 0.812500 0.062500
vt 0.812500 0.437500
vt 0.812500 0.500000
vt 0.812500 0.875000
vt 0.812500 0.375000
vt 0.812500 0.812500
vt 0.812500 0.312500
vt 0.812500 0.750000
vt 0.812500 0.250000
vt 0.812500 0.687500
vt 0.812500 0.187500
vt 0.812500 0.625000
vt 0.812500 0.125000
vt 0.812500 0.562500
vt 0.781250 0.687500
vt 0.781250 0.750000
vt 0.781250 0.187500
vt 0.781250 0.250000
vt 0.781250 0.625000
vt 0.781250 0.125000
vt 0.781250 0.562500
vt 0.781250 0.062500
vt 0.781250 0.500000
vt 0.781250 0.937500
vt 0.796875 1.000000
vt 0.796875 0.000000
vt 0.781250 0.437500
vt 0.781250 0.875000
vt 0.781250 0.375000
vt 0.781250 0.812500
vt 0.781250 0.312500
vt 0.765625 1.000000
vt 0.765625 0.000000
s 0
usemtl マテリアル
f 474/1/1 82/3/1 7/2/1
f 308/4/2 482/6/2 21/5/2
f 5/7/3 4/10/3 14/9/3 15/8/3
f 475/11/4 474/1/4 7/2/4 8/12/4
f 478/13/5 5/7/5 15/8/5 16/14/5
f 1/15/6 475/11/6 8/12/6 9/16/6
f 6/17/7 478/13/7 16/14/7 17/18/7
f 476/19/8 1/15/8 9/16/8 10/20/8
f 479/21/9 6/17/9 17/18/9 18/22/9
f 2/23/10 476/19/10 10/20/10 11/24/10
f 480/25/11 479/21/11 18/22/11 19/26/11
f 477/27/12 2/23/12 11/24/12 12/28/12
f 481/29/13 480/25/13 19/26/13 20/30/13
f 3/31/14 477/27/14 12/28/14 13/32/14
f 482/6/15 481/29/15 20/30/15 21/5/15
f 4/10/16 3/31/16 13/32/16 14/9/16
f 21/5/17 20/30/17 35/34/17 36/33/17
f 14/9/18 13/32/18 28/36/18 29/35/18
f 7/2/19 82/38/19 22/37/19
f 308/39/20 21/5/20 36/33/20
f 15/8/21 14/9/21 29/35/21 30/40/21
f 8/12/22 7/2/22 22/37/22 23/41/22
f 16/14/23 15/8/23 30/40/23 31/42/23
f 9/16/24 8/12/24 23/41/24 24/43/24
f 17/18/25 16/14/25 31/42/25 32/44/25
f 10/20/26 9/16/26 24/43/26 25/45/26
f 18/22/27 17/18/27 32/44/27 33/46/27
f 11/24/28 10/20/28 25/45/28 26/47/28
f 19/26/29 18/22/29 33/46/29 34/48/29
f 12/28/30 11/24/30 26/47/30 27/49/30
f 20/30/31 19/26/31 34/48/31 35/34/31
f 13/32/32 12/28/32 27/49/32 28/36/32
f 25/45/33 24/43/33 39/51/33 40/50/33
f 33/46/34 32/44/34 47/53/34 48/52/34
f 26/47/35 25/45/35 40/50/35 41/54/35
f 34/48/36 33/46/36 48/52/36 49/55/36
f 27/49/37 26/47/37 41/54/37 42/56/37
f 35/34/38 34/48/38 49/55/38 50/57/38
f 28/36/39 27/49/39 42/56/39 43/58/39
f 36/33/40 35/34/40 50/57/40 51/59/40
f 29/35/41 28/36/41 43/58/41 44/60/41
f 22/37/42 82/62/42 37/61/42
f 308/63/43 36/33/43 51/59/43
f 30/40/44 29/35/44 44/60/44 45/64/44
f 23/41/45 22/37/45 37/61/45 38/65/45
f 31/42/46 30/40/46 45/64/46 46/66/46
f 24/43/47 23/41/47 38/65/47 39/51/47
f 32/44/48 31/42/48 46/66/48 47/53/48
f 44/60/49 43/58/49 58/68/49 59/67/49
f 37/61/50 82/70/50 52/69/50
f 308/71/51 51/59/51 66/72/51
f 45/64/52 44/60/52 59/67/52 60/73/52
f 38/65/53 37/61/53 52/69/53 53/74/53
f 46/66/54 45/64/54 60/73/54 61/75/54
f 39/51/55 38/65/55 53/74/55 54/76/55
f 47/53/56 46/66/56 61/75/56 62/77/56
f 40/50/57 39/51/57 54/76/57 55/78/57
f 48/52/58 47/53/58 62/77/58 63/79/58
f 41/54/59 40/50/59 55/78/59 56/80/59
f 49/55/60 48/52/60 63/79/60 64/81/60
f 42/56/61 41/54/61 56/80/61 57/82/61
f 50/57/62 49/55/62 64/81/62 65/83/62
f 43/58/63 42/56/63 57/82/63 58/68/63
f 51/59/64 50/57/64 65/83/64 66/72/64
f 63/79/65 62/77/65 77/85/65 78/84/65
f 56/80/66 55/78/66 70/87/66 71/86/66
f 64/81/67 63/79/67 78/84/67 79/88/67
f 57/82/68 56/80/68 71/86/68 72/89/68
f 65/83/69 64/81/69 79/88/69 80/90/69
f 58/68/70 57/82/70 72/89/70 73/91/70
f 66/72/71 65/83/71 80/90/71 81/92/71
f 59/67/72 58/68/72 73/91/72 74/93/72
f 52/69/73 82/95/73 67/94/73
f 308/96/74 66/72/74 81/92/74
f 60/73/75 59/67/75 74/93/75 75/97/75
f 53/74/76 52/69/76 67/94/76 68/98/76
f 61/75/77 60/73/77 75/97/77 76/99/77
f 54/76/78 53/74/78 68/98/78 69/100/78
f 62/77/79 61/75/79 76/99/79 77/85/79
f 55/78/80 54/76/80 69/100/80 70/87/80
f 67/94/81 82/102/81 83/101/81
f 308/103/82 81/92/82 97/104/82
f 75/97/83 74/93/83 90/106/83 91/105/83
f 68/98/84 67/94/84 83/101/84 84/107/84
f 76/99/85 75/97/85 91/105/85 92/108/85
f 69/100/86 68/98/86 84/107/86 85/109/86
f 77/85/87 76/99/87 92/108/87 93/110/87
f 70/87/88 69/100/88 85/109/88 86/111/88
f 78/84/89 77/85/89 93/110/89 94/112/89
f 71/86/90 70/87/90 86/111/90 87/113/90
f 79/88/91 78/84/91 94/112/91 95/114/91
f 72/89/92 71/86/92 87/113/92 88/115/92
f 80/90/93 79/88/93 95/114/93 96/116/93
f 73/91/94 72/89/94 88/115/94 89/117/94
f 81/92/95 80/90/95 96/116/95 97/104/95
f 74/93/96 73/91/96 89/117/96 90/106/96
f 87/113/97 86/111/97 101/119/97 102/118/97
f 95/114/98 94/112/98 109/121/98 110/120/98
f 88/115/99 87/113/99 102/118/99 103/122/99
f 96/116/100 95/114/100 110/120/100 111/123/100
f 89/117/101 88/115/101 103/122/101 104/124/101
f 97/104/102 96/116/102 111/123/102 112/125/102
f 90/106/103 89/117/103 104/124/103 105/126/103
f 83/101/104 82/128/104 98/127/104
f 308/129/105 97/104/105 112/125/105
f 91/105/106 90/106/106 105/126/106 106/130/106
f 84/107/107 83/101/107 98/127/107 99/131/107
f 92/108/108 91/105/108 106/130/108 107/132/108
f 85/109/109 84/107/109 99/131/109 100/133/109
f 93/110/110 92/108/110 107/132/110 108/134/110
f 86/111/111 85/109/111 100/133/111 101/119/111
f 94/112/112 93/110/112 108/134/112 109/121/112
f 106/130/113 105/126/113 120/136/113 121/135/113
f 99/131/114 98/127/114 113/138/114 114/137/114
f 107/132/115 106/130/115 121/135/115 122/139/115
f 100/133/116 99/131/116 114/137/116 115/140/116
f 108/134/117 107/132/117 122/139/117 123/141/117
f 101/119/118 100/133/118 115/140/118 116/142/118
f 109/121/119 108/134/119 123/141/119 124/143/119
f 102/118/120 101/119/120 116/142/120 117/144/120
f 110/120/121 109/121/121 124/143/121 125/145/121
f 103/122/122 102/118/122 117/144/122 118/146/122
f 111/123/123 110/120/123 125/145/123 126/147/123
f 104/124/124 103/122/124 118/146/124 119/148/124
f 112/125/125 111/123/125 126/147/125 127/149/125
f 105/126/126 104/124/126 119/148/126 120/136/126
f 98/127/127 82/150/127 113/138/127
f 308/151/128 112/125/128 127/149/128
f 125/145/129 124/143/129 139/153/129 140/152/129
f 118/146/130 117/144/130 132/155/130 133/154/130
f 126/147/131 125/145/131 140/152/131 141/156/131
f 119/148/132 118/146/132 133/154/132 134/157/132
f 127/149/133 126/147/133 141/156/133 142/158/133
f 120/136/134 119/148/134 134/157/134 135/159/134
f 113/138/135 82/161/135 128/160/135
f 308/162/136 127/149/136 142/158/136
f 121/135/137 120/136/137 135/159/137 136/163/137
f 114/137/138 113/138/138 128/160/138 129/164/138
f 122/139/139 121/135/139 136/163/139 137/165/139
f 115/140/140 114/137/140 129/164/140 130/166/140
f 123/141/141 122/139/141 137/165/141 138/167/141
f 116/142/142 115/140/142 130/166/142 131/168/142
f 124/143/143 123/141/143 138/167/143 139/153/143
f 117/144/144 116/142/144 131/168/144 132/155/144
f 137/165/145 136/163/145 151/170/145 152/169/145
f 130/166/146 129/164/146 144/172/146 145/171/146
f 138/167/147 137/165/147 152/169/147 153/173/147
f 131/168/148 130/166/148 145/171/148 146/174/148
f 139/153/149 138/167/149 153/173/149 154/175/149
f 132/155/150 131/168/150 146/174/150 147/176/150
f 140/152/151 139/153/151 154/175/151 155/177/151
f 133/154/152 132/155/152 147/176/152 148/178/152
f 141/156/153 140/152/153 155/177/153 156/179/153
f 134/157/154 133/154/154 148/178/154 149/180/154
f 142/158/155 141/156/155 156/179/155 157/181/155
f 135/159/156 134/157/156 149/180/156 150/182/156
f 128/160/157 82/184/157 143/183/157
f 308/185/158 142/158/158 157/181/158
f 136/163/159 135/159/159 150/182/159 151/170/159
f 129/164/160 128/160/160 143/183/160 144/172/160
f 156/179/161 155/177/161 170/187/161 171/186/161
f 149/180/162 148/178/162 163/189/162 164/188/162
f 157/181/163 156/179/163 171/186/163 172/190/163
f 150/182/164 149/180/164 164/188/164 165/191/164
f 143/183/165 82/193/165 158/192/165
f 308/194/166 157/181/166 172/190/166
f 151/170/167 150/182/167 165/191/167 166/195/167
f 144/172/168 143/183/168 158/192/168 159/196/168
f 152/169/169 151/170/169 166/195/169 167/197/169
f 145/171/170 144/172/170 159/196/170 160/198/170
f 153/173/171 152/169/171 167/197/171 168/199/171
f 146/174/172 145/171/172 160/198/172 161/200/172
f 154/175/173 153/173/173 168/199/173 169/201/173
f 147/176/174 146/174/174 161/200/174 162/202/174
f 155/177/175 154/175/175 169/201/175 170/187/175
f 148/178/176 147/176/176 162/202/176 163/189/176
f 160/198/177 159/196/177 174/204/177 175/203/177
f 168/199/178 167/197/178 182/206/178 183/205/178
f 161/200/179 160/198/179 175/203/179 176/207/179
f 169/201/180 168/199/180 183/205/180 184/208/180
f 162/202/181 161/200/181 176/207/181 177/209/181
f 170/187/182 169/201/182 184/208/182 185/210/182
f 163/189/183 162/202/183 177/209/183 178/211/183
f 171/186/184 170/187/184 185/210/184 186/212/184
f 164/188/185 163/189/185 178/211/185 179/213/185
f 172/190/186 171/186/186 186/212/186 187/214/186
f 165/191/187 164/188/187 179/213/187 180/215/187
f 158/192/188 82/217/188 173/216/188
f 308/218/189 172/190/189 187/214/189
f 166/195/190 165/191/190 180/215/190 181/219/190
f 159/196/191 158/192/191 173/216/191 174/204/191
f 167/197/192 166/195/192 181/219/192 182/206/192
f 179/213/193 178/211/193 193/221/193 194/220/193
f 187/214/194 186/212/194 201/223/194 202/222/194
f 180/215/195 179/213/195 194/220/195 195/224/195
f 173/216/196 82/226/196 188/225/196
f 308/227/197 187/214/197 202/222/197
f 181/219/198 180/215/198 195/224/198 196/228/198
f 174/204/199 173/216/199 188/225/199 189/229/199
f 182/206/200 181/219/200 196/228/200 197/230/200
f 175/203/201 174/204/201 189/229/201 190/231/201
f 183/205/202 182/206/202 197/230/202 198/232/202
f 176/207/203 175/203/203 190/231/203 191/233/203
f 184/208/204 183/205/204 198/232/204 199/234/204
f 177/209/205 176/207/205 191/233/205 192/235/205
f 185/210/206 184/208/206 199/234/206 200/236/206
f 178/211/207 177/209/207 192/235/207 193/221/207
f 186/212/208 185/210/208 200/236/208 201/223/208
f 198/232/209 197/230/209 212/238/209 213/237/209
f 191/233/210 190/231/210 205/240/210 206/239/210
f 199/234/211 198/232/211 213/237/211 214/241/211
f 192/235/212 191/233/212 206/239/212 207/242/212
f 200/236/213 199/234/213 214/241/213 215/243/213
f 193/221/214 192/235/214 207/242/214 208/244/214
f 201/223/215 200/236/215 215/243/215 216/245/215
f 194/220/216 193/221/216 208/244/216 209/246/216
f 202/222/217 201/223/217 216/245/217 217/247/217
f 195/224/218 194/220/218 209/246/218 210/248/218
f 188/225/219 82/250/219 203/249/219
f 308/251/220 202/222/220 217/247/220
f 196/228/221 195/224/221 210/248/221 211/252/221
f 189/229/222 188/225/222 203/249/222 204/253/222
f 197/230/223 196/228/223 211/252/223 212/238/223
f 190/231/224 189/229/224 204/253/224 205/240/224
f 217/247/225 216/245/225 231/255/225 232/254/225
f 210/248/226 209/246/226 224/257/226 225/256/226
f 203/249/227 82/259/227 218/258/227
f 308/260/228 217/247/228 232/254/228
f 211/252/229 210/248/229 225/256/229 226/261/229
f 204/253/230 203/249/230 218/258/230 219/262/230
f 212/238/231 211/252/231 226/261/231 227/263/231
f 205/240/232 204/253/232 219/262/232 220/264/232
f 213/237/233 212/238/233 227/263/233 228/265/233
f 206/239/234 205/240/234 220/264/234 221/266/234
f 214/241/235 213/237/235 228/265/235 229/267/235
f 207/242/236 206/239/236 221/266/236 222/268/236
f 215/243/237 214/241/237 229/267/237 230/269/237
f 208/244/238 207/242/238 222/268/238 223/270/238
f 216/245/239 215/243/239 230/269/239 231/255/239
f 209/246/240 208/244/240 223/270/240 224/257/240
f 221/266/241 220/264/241 235/272/241 236/271/241
f 229/267/242 228/265/242 243/274/242 244/273/242
f 222/268/243 221/266/243 236/271/243 237/275/243
f 230/269/244 229/267/244 244/273/244 245/276/244
f 223/270/245 222/268/245 237/275/245 238/277/245
f 231/255/246 230/269/246 245/276/246 246/278/246
f 224/257/247 223/270/247 238/277/247 239/279/247
f 232/254/248 231/255/248 246/278/248 247/280/248
f 225/256/249 224/257/249 239/279/249 240/281/249
f 218/258/250 82/283/250 233/282/250
f 308/284/251 232/254/251 247/280/251
f 226/261/252 225/256/252 240/281/252 241/285/252
f 219/262/253 218/258/253 233/282/253 234/286/253
f 227/263/254 226/261/254 241/285/254 242/287/254
f 220/264/255 219/262/255 234/286/255 235/272/255
f 228/265/256 227/263/256 242/287/256 243/274/256
f 240/281/257 239/279/257 254/289/257 255/288/257
f 233/282/258 82/291/258 248/290/258
f 308/292/259 247/280/259 262/293/259
f 241/285/260 240/281/260 255/288/260 256/294/260
f 234/286/261 233/282/261 248/290/261 249/295/261
f 242/287/262 241/285/262 256/294/262 257/296/262
f 235/272/263 234/286/263 249/295/263 250/297/263
f 243/274/264 242/287/264 257/296/264 258/298/264
f 236/271/265 235/272/265 250/297/265 251/299/265
f 244/273/266 243/274/266 258/298/266 259/300/266
f 237/275/267 236/271/267 251/299/267 252/301/267
f 245/276/268 244/273/268 259/300/268 260/302/268
f 238/277/269 237/275/269 252/301/269 253/303/269
f 246/278/270 245/276/270 260/302/270 261/304/270
f 239/279/271 238/277/271 253/303/271 254/289/271
f 247/280/272 246/278/272 261/304/272 262/293/272
f 259/300/273 258/298/273 273/306/273 274/305/273
f 252/301/274 251/299/274 266/308/274 267/307/274
f 260/302/275 259/300/275 274/305/275 275/309/275
f 253/303/276 252/301/276 267/307/276 268/310/276
f 261/304/277 260/302/277 275/309/277 276/311/277
f 254/289/278 253/303/278 268/310/278 269/312/278
f 262/293/279 261/304/279 276/311/279 277/313/279
f 255/288/280 254/289/280 269/312/280 270/314/280
f 248/290/281 82/316/281 263/315/281
f 308/317/282 262/293/282 277/313/282
f 256/294/283 255/288/283 270/314/283 271/318/283
f 249/295/284 248/290/284 263/315/284 264/319/284
f 257/296/285 256/294/285 271/318/285 272/320/285
f 250/297/286 249/295/286 264/319/286 265/321/286
f 258/298/287 257/296/287 272/320/287 273/306/287
f 251/299/288 250/297/288 265/321/288 266/308/288
f 308/322/289 277/313/289 292/323/289
f 271/318/290 270/314/290 285/325/290 286/324/290
f 264/319/291 263/315/291 278/327/291 279/326/291
f 272/320/292 271/318/292 286/324/292 287/328/292
f 265/321/293 264/319/293 279/326/293 280/329/293
f 273/306/294 272/320/294 287/328/294 288/330/294
f 266/308/295 265/321/295 280/329/295 281/331/295
f 274/305/296 273/306/296 288/330/296 289/332/296
f 267/307/297 266/308/297 281/331/297 282/333/297
f 275/309/298 274/305/298 289/332/298 290/334/298
f 268/310/299 267/307/299 282/333/299 283/335/299
f 276/311/300 275/309/300 290/334/300 291/336/300
f 269/312/301 268/310/301 283/335/301 284/337/301
f 277/313/302 276/311/302 291/336/302 292/323/302
f 270/314/303 269/312/303 284/337/303 285/325/303
f 263/315/304 82/338/304 278/327/304
f 290/334/305 289/332/305 304/340/305 305/339/305
f 283/335/306 282/333/306 297/342/306 298/341/306
f 291/336/307 290/334/307 305/339/307 306/343/307
f 284/337/308 283/335/308 298/341/308 299/344/308
f 292/323/309 291/336/309 306/343/309 307/345/309
f 285/325/310 284/337/310 299/344/310 300/346/310
f 278/327/311 82/348/311 293/347/311
f 308/349/312 292/323/312 307/345/312
f 286/324/313 285/325/313 300/346/313 301/350/313
f 279/326/314 278/327/314 293/347/314 294/351/314
f 287/328/315 286/324/315 301/350/315 302/352/315
f 280/329/316 279/326/316 294/351/316 295/353/316
f 288/330/317 287/328/317 302/352/317 303/354/317
f 281/331/318 280/329/318 295/353/318 296/355/318
f 289/332/319 288/330/319 303/354/319 304/340/319
f 282/333/320 281/331/320 296/355/320 297/342/320
f 294/351/321 293/347/321 309/357/321 310/356/321
f 302/352/322 301/350/322 317/359/322 318/358/322
f 295/353/323 294/351/323 310/356/323 311/360/323
f 303/354/324 302/352/324 318/358/324 319/361/324
f 296/355/325 295/353/325 311/360/325 312/362/325
f 304/340/326 303/354/326 319/361/326 320/363/326
f 297/342/327 296/355/327 312/362/327 313/364/327
f 305/339/328 304/340/328 320/363/328 321/365/328
f 298/341/329 297/342/329 313/364/329 314/366/329
f 306/343/330 305/339/330 321/365/330 322/367/330
f 299/344/331 298/341/331 314/366/331 315/368/331
f 307/345/332 306/343/332 322/367/332 323/369/332
f 300/346/333 299/344/333 315/368/333 316/370/333
f 293/347/334 82/371/334 309/357/334
f 308/372/335 307/345/335 323/369/335
f 301/350/336 300/346/336 316/370/336 317/359/336
f 314/366/337 313/364/337 328/374/337 329/373/337
f 322/367/338 321/365/338 336/376/338 337/375/338
f 315/368/339 314/366/339 329/373/339 330/377/339
f 323/369/340 322/367/340 337/375/340 338/378/340
f 316/370/341 315/368/341 330/377/341 331/379/341
f 309/357/342 82/381/342 324/380/342
f 308/382/343 323/369/343 338/378/343
f 317/359/344 316/370/344 331/379/344 332/383/344
f 310/356/345 309/357/345 324/380/345 325/384/345
f 318/358/346 317/359/346 332/383/346 333/385/346
f 311/360/347 310/356/347 325/384/347 326/386/347
f 319/361/348 318/358/348 333/385/348 334/387/348
f 312/362/349 311/360/349 326/386/349 327/388/349
f 320/363/350 319/361/350 334/387/350 335/389/350
f 313/364/351 312/362/351 327/388/351 328/374/351
f 321/365/352 320/363/352 335/389/352 336/376/352
f 333/385/353 332/383/353 347/391/353 348/390/353
f 326/386/354 325/384/354 340/393/354 341/392/354
f 334/387/355 333/385/355 348/390/355 349/394/355
f 327/388/356 326/386/356 341/392/356 342/395/356
f 335/389/357 334/387/357 349/394/357 350/396/357
f 328/374/358 327/388/358 342/395/358 343/397/358
f 336/376/359 335/389/359 350/396/359 351/398/359
f 329/373/360 328/374/360 343/397/360 344/399/360
f 337/375/361 336/376/361 351/398/361 352/400/361
f 330/377/362 329/373/362 344/399/362 345/401/362
f 338/378/363 337/375/363 352/400/363 353/402/363
f 331/379/364 330/377/364 345/401/364 346/403/364
f 324/380/365 82/405/365 339/404/365
f 308/406/366 338/378/366 353/402/366
f 332/383/367 331/379/367 346/403/367 347/391/367
f 325/384/368 324/380/368 339/404/368 340/393/368
f 352/400/369 351/398/369 366/408/369 367/407/369
f 345/401/370 344/399/370 359/410/370 360/409/370
f 353/402/371 352/400/371 367/407/371 368/411/371
f 346/403/372 345/401/372 360/409/372 361/412/372
f 339/404/373 82/414/373 354/413/373
f 308/415/374 353/402/374 368/411/374
f 347/391/375 346/403/375 361/412/375 362/416/375
f 340/393/376 339/404/376 354/413/376 355/417/376
f 348/390/377 347/391/377 362/416/377 363/418/377
f 341/392/378 340/393/378 355/417/378 356/419/378
f 349/394/379 348/390/379 363/418/379 364/420/379
f 342/395/380 341/392/380 356/419/380 357/421/380
f 350/396/381 349/394/381 364/420/381 365/422/381
f 343/397/382 342/395/382 357/421/382 358/423/382
f 351/398/383 350/396/383 365/422/383 366/408/383
f 344/399/384 343/397/384 358/423/384 359/410/384
f 356/424/385 355/427/385 370/426/385 371/425/385
f 364/428/386 363/431/386 378/430/386 379/429/386
f 357/432/387 356/424/387 371/425/387 372/433/387
f 365/434/388 364/428/388 379/429/388 380/435/388
f 358/436/389 357/432/389 372/433/389 373/437/389
f 366/438/390 365/434/390 380/435/390 381/439/390
f 359/440/391 358/436/391 373/437/391 374/441/391
f 367/442/392 366/438/392 381/439/392 382/443/392
f 360/444/393 359/440/393 374/441/393 375/445/393
f 368/446/394 367/442/394 382/443/394 383/447/394
f 361/448/395 360/444/395 375/445/395 376/449/395
f 354/450/396 82/452/396 369/451/396
f 308/453/397 368/446/397 383/447/397
f 362/454/398 361/448/398 376/449/398 377/455/398
f 355/427/399 354/450/399 369/451/399 370/426/399
f 363/431/400 362/454/400 377/455/400 378/430/400
f 375/445/401 374/441/401 389/457/401 390/456/401
f 383/447/402 382/443/402 397/459/402 398/458/402
f 376/449/403 375/445/403 390/456/403 391/460/403
f 369/451/404 82/462/404 384/461/404
f 308/463/405 383/447/405 398/458/405
f 377/455/406 376/449/406 391/460/406 392/464/406
f 370/426/407 369/451/407 384/461/407 385/465/407
f 378/430/408 377/455/408 392/464/408 393/466/408
f 371/425/409 370/426/409 385/465/409 386/467/409
f 379/429/410 378/430/410 393/466/410 394/468/410
f 372/433/411 371/425/411 386/467/411 387/469/411
f 380/435/412 379/429/412 394/468/412 395/470/412
f 373/437/413 372/433/413 387/469/413 388/471/413
f 381/439/414 380/435/414 395/470/414 396/472/414
f 374/441/415 373/437/415 388/471/415 389/457/415
f 382/443/416 381/439/416 396/472/416 397/459/416
f 394/468/417 393/466/417 408/474/417 409/473/417
f 387/469/418 386/467/418 401/476/418 402/475/418
f 395/470/419 394/468/419 409/473/419 410/477/419
f 388/471/420 387/469/420 402/475/420 403/478/420
f 396/472/421 395/470/421 410/477/421 411/479/421
f 389/457/422 388/471/422 403/478/422 404/480/422
f 397/459/423 396/472/423 411/479/423 412/481/423
f 390/456/424 389/457/424 404/480/424 405/482/424
f 398/458/425 397/459/425 412/481/425 413/483/425
f 391/460/426 390/456/426 405/482/426 406/484/426
f 384/461/427 82/486/427 399/485/427
f 308/487/428 398/458/428 413/483/428
f 392/464/429 391/460/429 406/484/429 407/488/429
f 385/465/430 384/461/430 399/485/430 400/489/430
f 393/466/431 392/464/431 407/488/431 408/474/431
f 386/467/432 385/465/432 400/489/432 401/476/432
f 413/483/433 412/481/433 427/491/433 428/490/433
f 406/484/434 405/482/434 420/493/434 421/492/434
f 399/485/435 82/495/435 414/494/435
f 308/496/436 413/483/436 428/490/436
f 407/488/437 406/484/437 421/492/437 422/497/437
f 400/489/438 399/485/438 414/494/438 415/498/438
f 408/474/439 407/488/439 422/497/439 423/499/439
f 401/476/440 400/489/440 415/498/440 416/500/440
f 409/473/441 408/474/441 423/499/441 424/501/441
f 402/475/442 401/476/442 416/500/442 417/502/442
f 410/477/443 409/473/443 424/501/443 425/503/443
f 403/478/444 402/475/444 417/502/444 418/504/444
f 411/479/445 410/477/445 425/503/445 426/505/445
f 404/480/446 403/478/446 418/504/446 419/506/446
f 412/481/447 411/479/447 426/505/447 427/491/447
f 405/482/448 404/480/448 419/506/448 420/493/448
f 425/503/449 424/501/449 439/508/449 440/507/449
f 418/504/450 417/502/450 432/510/450 433/509/450
f 426/505/451 425/503/451 440/507/451 441/511/451
f 419/506/452 418/504/452 433/509/452 434/512/452
f 427/491/453 426/505/453 441/511/453 442/513/453
f 420/493/454 419/506/454 434/512/454 435/514/454
f 428/490/455 427/491/455 442/513/455 443/515/455
f 421/492/456 420/493/456 435/514/456 436/516/456
f 414/494/457 82/518/457 429/517/457
f 308/519/458 428/490/458 443/515/458
f 422/497/459 421/492/459 436/516/459 437/520/459
f 415/498/460 414/494/460 429/517/460 430/521/460
f 423/499/461 422/497/461 437/520/461 438/522/461
f 416/500/462 415/498/462 430/521/462 431/523/462
f 424/501/463 423/499/463 438/522/463 439/508/463
f 417/502/464 416/500/464 431/523/464 432/510/464
f 429/517/465 82/525/465 444/524/465
f 308/526/466 443/515/466 458/527/466
f 437/520/467 436/516/467 451/529/467 452/528/467
f 430/521/468 429/517/468 444/524/468 445/530/468
f 438/522/469 437/520/469 452/528/469 453/531/469
f 431/523/470 430/521/470 445/530/470 446/532/470
f 439/508/471 438/522/471 453/531/471 454/533/471
f 432/510/472 431/523/472 446/532/472 447/534/472
f 440/507/473 439/508/473 454/533/473 455/535/473
f 433/509/474 432/510/474 447/534/474 448/536/474
f 441/511/475 440/507/475 455/535/475 456/537/475
f 434/512/476 433/509/476 448/536/476 449/538/476
f 442/513/477 441/511/477 456/537/477 457/539/477
f 435/514/478 434/512/478 449/538/478 450/540/478
f 443/515/479 442/513/479 457/539/479 458/527/479
f 436/516/480 435/514/480 450/540/480 451/529/480
f 448/536/481 447/534/481 462/542/481 463/541/481
f 456/537/482 455/535/482 470/544/482 471/543/482
f 449/538/483 448/536/483 463/541/483 464/545/483
f 457/539/484 456/537/484 471/543/484 472/546/484
f 450/540/485 449/538/485 464/545/485 465/547/485
f 458/527/486 457/539/486 472/546/486 473/548/486
f 451/529/487 450/540/487 465/547/487 466/549/487
f 444/524/488 82/551/488 459/550/488
f 308/552/489 458/527/489 473/548/489
f 452/528/490 451/529/490 466/549/490 467/553/490
f 445/530/491 444/524/491 459/550/491 460/554/491
f 453/531/492 452/528/492 467/553/492 468/555/492
f 446/532/493 445/530/493 460/554/493 461/556/493
f 454/533/494 453/531/494 468/555/494 469/557/494
f 447/534/495 446/532/495 461/556/495 462/542/495
f 455/535/496 454/533/496 469/557/496 470/544/496
f 467/553/497 466/549/497 4/10/497 5/7/497
f 460/554/498 459/550/498 474/1/498 475/11/498
f 468/555/499 467/553/499 5/7/499 478/13/499
f 461/556/500 460/554/500 475/11/500 1/15/500
f 469/557/501 468/555/501 478/13/501 6/17/501
f 462/542/502 461/556/502 1/15/502 476/19/502
f 470/544/503 469/557/503 6/17/503 479/21/503
f 463/541/504 462/542/504 476/19/504 2/23/504
f 471/543/505 470/544/505 479/21/505 480/25/505
f 464/545/506 463/541/506 2/23/506 477/27/506
f 472/546/507 471/543/507 480/25/507 481/29/507
f 465/547/508 464/545/508 477/27/508 3/31/508
f 473/548/509 472/546/509 481/29/509 482/6/509
f 466/549/510 465/547/510 3/31/510 4/10/510
f 459/550/511 82/558/511 474/1/511
f 308/559/512 473/548/512 482/6/512
